<svg width="15" height="12" viewBox="0 0 15 12" fill="none" xmlns="http://www.w3.org/2000/svg">
<path d="M3.74219 0.0147705C4.85156 0.0147705 5.71875 0.410604 6.34375 1.20227C7.08854 2.13977 7.46094 3.69446 7.46094 5.86633C7.46094 8.033 7.08594 9.59029 6.33594 10.5382C5.71615 11.3195 4.85156 11.7101 3.74219 11.7101C2.6276 11.7101 1.72917 11.283 1.04688 10.4288C0.364583 9.56946 0.0234375 8.04081 0.0234375 5.8429C0.0234375 3.68665 0.398438 2.13456 1.14844 1.18665C1.76823 0.405396 2.63281 0.0147705 3.74219 0.0147705ZM3.74219 1.83508C3.47656 1.83508 3.23958 1.92102 3.03125 2.0929C2.82292 2.25956 2.66146 2.56165 2.54688 2.99915C2.39583 3.56685 2.32031 4.52258 2.32031 5.86633C2.32031 7.21008 2.38802 8.13456 2.52344 8.63977C2.65885 9.13977 2.82812 9.4731 3.03125 9.63977C3.23958 9.80644 3.47656 9.88977 3.74219 9.88977C4.00781 9.88977 4.24479 9.80644 4.45312 9.63977C4.66146 9.4679 4.82292 9.16321 4.9375 8.72571C5.08854 8.16321 5.16406 7.21008 5.16406 5.86633C5.16406 4.52258 5.09635 3.60071 4.96094 3.10071C4.82552 2.5955 4.65365 2.25956 4.44531 2.0929C4.24219 1.92102 4.00781 1.83508 3.74219 1.83508ZM14.5547 11.5148H12.3594V3.24133C11.5573 3.99133 10.612 4.54602 9.52344 4.9054V2.91321C10.0964 2.72571 10.7188 2.37154 11.3906 1.85071C12.0625 1.32467 12.5234 0.712687 12.7734 0.0147705H14.5547V11.5148Z" fill="white"/>
</svg>
