<svg width="187" height="577" viewBox="0 0 187 577" fill="none" xmlns="http://www.w3.org/2000/svg">
<path d="M153.105 0.662103L153.105 -1.3379L151.105 -1.3379L151.105 0.662103L153.105 0.662103ZM186.113 0.662105L188.113 0.662105L188.113 -1.3379L186.113 -1.3379L186.113 0.662105ZM186.113 36.3359L186.113 38.3359L188.113 38.3359L188.113 36.3359L186.113 36.3359ZM153.105 36.3359L151.105 36.3359L151.105 38.3359L153.105 38.3359L153.105 36.3359ZM-8.15747e-07 0.662097L-7.28324e-07 -1.3379L-2 -1.3379L-2 0.662097L-8.15747e-07 0.662097ZM134.824 0.662103L136.824 0.662103L136.824 -1.3379L134.824 -1.3379L134.824 0.662103ZM134.824 36.3359L134.824 38.3359L136.824 38.3359L136.824 36.3359L134.824 36.3359ZM-2.3751e-06 36.3359L-2 36.3359L-2 38.3359L-2.46252e-06 38.3359L-2.3751e-06 36.3359ZM153.105 2.6621L186.113 2.6621L186.113 -1.3379L153.105 -1.3379L153.105 2.6621ZM184.113 0.662105L184.113 36.3359L188.113 36.3359L188.113 0.662105L184.113 0.662105ZM186.113 34.3359L153.105 34.3359L153.105 38.3359L186.113 38.3359L186.113 34.3359ZM155.105 36.3359L155.105 0.662103L151.105 0.662103L151.105 36.3359L155.105 36.3359ZM-9.0317e-07 2.6621L134.824 2.6621L134.824 -1.3379L-7.28324e-07 -1.3379L-9.0317e-07 2.6621ZM132.824 0.662103L132.824 36.3359L136.824 36.3359L136.824 0.662103L132.824 0.662103ZM134.824 34.3359L-2.28768e-06 34.3359L-2.46252e-06 38.3359L134.824 38.3359L134.824 34.3359ZM2 36.3359L2 0.662097L-2 0.662097L-2 36.3359L2 36.3359ZM-4.03434e-06 74.2949L-3.94692e-06 72.2949L-2 72.2949L-2 74.2949L-4.03434e-06 74.2949ZM184.59 74.2949L186.59 74.2949L186.59 72.2949L184.59 72.2949L184.59 74.2949ZM184.59 111.873L184.59 113.873L186.59 113.873L186.59 111.873L184.59 111.873ZM31.3574 111.873L31.3574 109.873L29.3574 109.873L29.3574 111.873L31.3574 111.873ZM31.3574 205.311L31.3574 207.311L33.3574 207.311L33.3574 205.311L31.3574 205.311ZM-9.76121e-06 205.311L-2.00001 205.311L-2.00001 207.311L-9.84864e-06 207.311L-9.76121e-06 205.311ZM-4.12176e-06 76.2949L184.59 76.2949L184.59 72.2949L-3.94692e-06 72.2949L-4.12176e-06 76.2949ZM182.59 74.2949L182.59 111.873L186.59 111.873L186.59 74.2949L182.59 74.2949ZM184.59 109.873L31.3574 109.873L31.3574 113.873L184.59 113.873L184.59 109.873ZM29.3574 111.873L29.3574 205.311L33.3574 205.311L33.3574 111.873L29.3574 111.873ZM31.3574 203.311L-9.67379e-06 203.311L-9.84864e-06 207.311L31.3574 207.311L31.3574 203.311ZM1.99999 205.311L2 74.2949L-2 74.2949L-2.00001 205.311L1.99999 205.311ZM-1.82738e-05 400.057L-2.00002 400.057L-2.00002 403.012L0.74342 401.913L-1.82738e-05 400.057ZM-1.6487e-05 359.178L-0.717607 357.311L-2.00002 357.804L-2.00002 359.178L-1.6487e-05 359.178ZM42.2754 342.928L42.9929 344.795L44.2754 344.302L44.2754 342.928L42.2754 342.928ZM42.2754 268.533L44.2754 268.533L44.2754 267.132L42.9584 266.653L42.2754 268.533ZM-1.18533e-05 253.172L-2.00001 253.172L-2.00001 254.573L-0.683056 255.052L-1.18533e-05 253.172ZM-1.01108e-05 213.309L0.725851 211.445L-2.00001 210.383L-2.00001 213.309L-1.01108e-05 213.309ZM186.113 285.799L188.113 285.799L188.113 284.431L186.839 283.935L186.113 285.799ZM186.113 325.535L186.857 327.392L188.113 326.889L188.113 325.535L186.113 325.535ZM73.6328 330.867L71.6328 330.867L71.6328 333.743L74.329 332.742L73.6328 330.867ZM142.695 305.223L143.391 307.098L148.491 305.204L143.379 303.343L142.695 305.223ZM73.6328 280.086L74.3168 278.207L71.6328 277.23L71.6328 280.086L73.6328 280.086ZM1.99998 400.057L1.99998 359.178L-2.00002 359.178L-2.00002 400.057L1.99998 400.057ZM0.717574 361.045L42.9929 344.795L41.5578 341.061L-0.717607 357.311L0.717574 361.045ZM44.2754 342.928L44.2754 268.533L40.2754 268.533L40.2754 342.928L44.2754 342.928ZM42.9584 266.653L0.683033 251.292L-0.683056 255.052L41.5923 270.413L42.9584 266.653ZM1.99999 253.172L1.99999 213.309L-2.00001 213.309L-2.00001 253.172L1.99999 253.172ZM-0.725871 215.172L185.387 287.662L186.839 283.935L0.725851 211.445L-0.725871 215.172ZM184.113 285.799L184.113 325.535L188.113 325.535L188.113 285.799L184.113 285.799ZM185.37 323.678L-0.743457 398.2L0.74342 401.913L186.857 327.392L185.37 323.678ZM74.329 332.742L143.391 307.098L141.999 303.348L72.9366 328.992L74.329 332.742ZM143.379 303.343L74.3168 278.207L72.9488 281.965L142.011 307.102L143.379 303.343ZM71.6328 280.086L71.6328 330.867L75.6328 330.867L75.6328 280.086L71.6328 280.086ZM186.113 420.242L188.113 420.242L188.113 418.242L186.113 418.242L186.113 420.242ZM184.209 527.518L182.239 527.17L182.237 527.183L182.235 527.196L184.209 527.518ZM176.592 546.941L174.943 545.809L174.935 545.821L176.592 546.941ZM160.977 561.287L159.967 559.56L159.958 559.566L160.977 561.287ZM115.273 559.891L116.365 558.215L116.358 558.21L116.351 558.206L115.273 559.891ZM98.8965 540.848L100.718 540.023L98.4878 535.095L96.9761 540.289L98.8965 540.848ZM29.1992 570.174L30.0861 568.381L30.0783 568.377L29.1992 570.174ZM10.0293 554.051L8.39081 555.198L8.39365 555.202L10.0293 554.051ZM1.26951 528.914L-0.718896 529.129L-0.718469 529.133L1.26951 528.914ZM-2.19253e-05 483.592L-2.00008 483.592L-1.99996 483.606L-2.19253e-05 483.592ZM-1.91562e-05 420.242L-1.90688e-05 418.242L-2.00002 418.242L-2.00002 420.242L-1.91562e-05 420.242ZM155.137 457.82L157.137 457.82L157.137 455.82L155.137 455.82L155.137 457.82ZM112.1 457.82L112.1 455.82L110.1 455.82L110.1 457.82L112.1 457.82ZM112.734 509.744L114.72 509.509L114.72 509.508L112.734 509.744ZM147.9 525.613L146.596 524.097L146.577 524.114L146.559 524.13L147.9 525.613ZM154.502 511.521L156.487 511.763L156.488 511.755L156.489 511.747L154.502 511.521ZM81.123 457.82L83.123 457.82L83.123 455.82L81.123 455.82L81.123 457.82ZM31.3574 457.82L31.3574 455.82L29.3574 455.82L29.3574 457.82L31.3574 457.82ZM32.5 518.377L34.4677 518.019L34.463 517.993L34.4576 517.967L32.5 518.377ZM39.8633 531.961L41.1959 530.47L41.194 530.468L39.8633 531.961ZM69.9511 533.23L71.0933 534.872L69.9511 533.23ZM78.457 521.424L76.5693 520.763L76.5659 520.773L78.457 521.424ZM184.113 420.242L184.113 494.637L188.113 494.637L188.113 420.242L184.113 420.242ZM184.113 494.637C184.113 509.339 183.477 520.155 182.239 527.17L186.179 527.865C187.48 520.492 188.113 509.388 188.113 494.637L184.113 494.637ZM182.235 527.196C181.094 534.205 178.658 540.399 174.943 545.809L178.241 548.073C182.312 542.143 184.954 535.387 186.183 527.839L182.235 527.196ZM174.935 545.821C171.224 551.307 166.249 555.89 159.967 559.56L161.986 563.014C168.738 559.067 174.173 554.086 178.248 548.062L174.935 545.821ZM159.958 559.566C153.857 563.178 146.977 565 139.268 565L139.268 569C147.638 569 155.231 567.013 161.996 563.008L159.958 559.566ZM139.268 565C130.936 565 123.317 562.742 116.365 558.215L114.182 561.567C121.787 566.518 130.164 569 139.268 569L139.268 565ZM116.351 558.206C109.406 553.764 104.202 547.719 100.718 540.023L97.0744 541.672C100.87 550.057 106.584 556.707 114.196 561.575L116.351 558.206ZM96.9761 540.289C93.7725 551.296 88.3555 559.622 80.7955 565.412L83.2278 568.588C91.5794 562.191 97.4188 553.081 100.817 541.407L96.9761 540.289ZM80.7955 565.412C73.2149 571.219 64.2981 574.141 53.9551 574.141L53.9551 578.141C65.1094 578.141 74.897 574.969 83.2278 568.588L80.7955 565.412ZM53.9551 574.141C45.8175 574.141 37.8676 572.231 30.0861 568.381L28.3123 571.966C36.6115 576.072 45.1655 578.141 53.9551 578.141L53.9551 574.141ZM30.0783 568.377C22.4074 564.624 16.2842 559.464 11.6649 552.9L8.39365 555.202C13.4227 562.348 20.0796 567.938 28.3201 571.97L30.0783 568.377ZM11.6677 552.904C7.15809 546.461 4.32883 538.42 3.25748 528.695L-0.718469 529.133C0.410681 539.382 3.4213 548.098 8.39081 555.198L11.6677 552.904ZM3.25791 528.699C2.59403 522.558 2.16944 507.564 1.99992 483.578L-1.99996 483.606C-1.83096 507.524 -1.40917 522.744 -0.718896 529.129L3.25791 528.699ZM1.99998 483.592L1.99998 420.242L-2.00002 420.242L-2.00002 483.592L1.99998 483.592ZM-1.92436e-05 422.242L186.113 422.242L186.113 418.242L-1.90688e-05 418.242L-1.92436e-05 422.242ZM155.137 455.82L112.1 455.82L112.1 459.82L155.137 459.82L155.137 455.82ZM110.1 457.82L110.1 482.449L114.1 482.449L114.1 457.82L110.1 457.82ZM110.1 482.449C110.1 497.045 110.308 506.281 110.748 509.981L114.72 509.508C114.314 506.098 114.1 497.137 114.1 482.449L110.1 482.449ZM110.748 509.979C111.549 516.74 113.89 522.234 117.922 526.266L120.75 523.437C117.503 520.19 115.443 515.613 114.72 509.509L110.748 509.979ZM117.922 526.266C122.075 530.419 127.477 532.437 133.936 532.437L133.936 528.437C128.376 528.437 124.045 526.732 120.75 523.437L117.922 526.266ZM133.936 532.437C140.082 532.437 145.249 530.709 149.242 527.096L146.559 524.13C143.443 526.949 139.3 528.437 133.936 528.437L133.936 532.437ZM149.205 527.129C153.328 523.581 155.685 518.362 156.487 511.763L152.517 511.28C151.796 517.207 149.751 521.382 146.596 524.097L149.205 527.129ZM156.489 511.747C156.928 507.882 157.137 497.036 157.137 479.402L153.137 479.402C153.137 497.146 152.922 507.713 152.515 511.296L156.489 511.747ZM157.137 479.402L157.137 457.82L153.137 457.82L153.137 479.402L157.137 479.402ZM81.123 455.82L31.3574 455.82L31.3574 459.82L81.123 459.82L81.123 455.82ZM29.3574 457.82L29.3574 492.605L33.3574 492.605L33.3574 457.82L29.3574 457.82ZM29.3574 492.605C29.3574 506.082 29.7293 514.902 30.5424 518.787L34.4576 517.967C33.7472 514.573 33.3574 506.212 33.3574 492.605L29.3574 492.605ZM30.5322 518.735C31.6201 524.718 34.2762 529.66 38.5325 533.454L41.194 530.468C37.6639 527.321 35.4111 523.208 34.4677 518.019L30.5322 518.735ZM38.5306 533.452C42.9566 537.407 48.7609 539.293 55.7324 539.293L55.7324 535.293C49.5008 535.293 44.7256 533.624 41.1959 530.47L38.5306 533.452ZM55.7324 539.293C61.6522 539.293 66.8085 537.853 71.0933 534.872L68.809 531.589C65.3073 534.025 60.9844 535.293 55.7324 535.293L55.7324 539.293ZM71.0933 534.872C75.386 531.886 78.4543 527.576 80.3481 522.075L76.5659 520.773C74.9051 525.597 72.3028 529.158 68.809 531.589L71.0933 534.872ZM80.3447 522.085C81.3229 519.29 82.0034 515.033 82.4501 509.46C82.9003 503.843 83.123 496.739 83.123 488.162L79.123 488.162C79.123 496.682 78.9014 503.67 78.4629 509.14C78.021 514.654 77.3684 518.48 76.5693 520.763L80.3447 522.085ZM83.123 488.162L83.123 457.82L79.123 457.82L79.123 488.162L83.123 488.162Z" fill="white"/>
</svg>
