<svg width="72" height="222" viewBox="0 0 72 222" fill="none" xmlns="http://www.w3.org/2000/svg">
<path d="M58.8867 0.177733L58.8867 -0.822267L57.8867 -0.822267L57.8867 0.177733L58.8867 0.177733ZM71.582 0.177734L72.582 0.177734L72.582 -0.822266L71.582 -0.822266L71.582 0.177734ZM71.582 13.8984L71.582 14.8984L72.582 14.8984L72.582 13.8984L71.582 13.8984ZM58.8867 13.8984L57.8867 13.8984L57.8867 14.8984L58.8867 14.8984L58.8867 13.8984ZM-3.13749e-07 0.177731L-2.70037e-07 -0.822269L-1 -0.822269L-1 0.177731L-3.13749e-07 0.177731ZM51.8555 0.177733L52.8555 0.177733L52.8555 -0.822267L51.8555 -0.822267L51.8555 0.177733ZM51.8555 13.8984L51.8555 14.8984L52.8555 14.8984L52.8555 13.8984L51.8555 13.8984ZM-9.135e-07 13.8984L-1 13.8984L-1 14.8984L-9.57211e-07 14.8984L-9.135e-07 13.8984ZM58.8867 1.17773L71.582 1.17773L71.582 -0.822266L58.8867 -0.822267L58.8867 1.17773ZM70.582 0.177734L70.582 13.8984L72.582 13.8984L72.582 0.177734L70.582 0.177734ZM71.582 12.8984L58.8867 12.8984L58.8867 14.8984L71.582 14.8984L71.582 12.8984ZM59.8867 13.8984L59.8867 0.177733L57.8867 0.177733L57.8867 13.8984L59.8867 13.8984ZM-3.5746e-07 1.17773L51.8555 1.17773L51.8555 -0.822267L-2.70037e-07 -0.822269L-3.5746e-07 1.17773ZM50.8555 0.177733L50.8555 13.8984L52.8555 13.8984L52.8555 0.177733L50.8555 0.177733ZM51.8555 12.8984L-8.69788e-07 12.8984L-9.57211e-07 14.8984L51.8555 14.8984L51.8555 12.8984ZM0.999999 13.8984L1 0.177731L-1 0.177731L-1 13.8984L0.999999 13.8984ZM-1.55167e-06 28.498L-1.50796e-06 27.498L-1 27.498L-1 28.498L-1.55167e-06 28.498ZM70.9961 28.498L71.9961 28.498L71.9961 27.498L70.9961 27.498L70.9961 28.498ZM70.9961 42.9512L70.9961 43.9512L71.9961 43.9512L71.9961 42.9512L70.9961 42.9512ZM12.0605 42.9512L12.0605 41.9512L11.0605 41.9512L11.0605 42.9512L12.0605 42.9512ZM12.0605 78.8887L12.0605 79.8887L13.0605 79.8887L13.0605 78.8887L12.0605 78.8887ZM-3.75431e-06 78.8887L-1 78.8887L-1 79.8887L-3.79802e-06 79.8887L-3.75431e-06 78.8887ZM-1.59538e-06 29.498L70.9961 29.498L70.9961 27.498L-1.50796e-06 27.498L-1.59538e-06 29.498ZM69.9961 28.498L69.9961 42.9512L71.9961 42.9512L71.9961 28.498L69.9961 28.498ZM70.9961 41.9512L12.0605 41.9512L12.0605 43.9512L70.9961 43.9512L70.9961 41.9512ZM11.0605 42.9512L11.0605 78.8887L13.0605 78.8887L13.0605 42.9512L11.0605 42.9512ZM12.0605 77.8887L-3.7106e-06 77.8887L-3.79802e-06 79.8887L12.0605 79.8887L12.0605 77.8887ZM0.999996 78.8887L0.999998 28.498L-1 28.498L-1 78.8887L0.999996 78.8887ZM-7.0284e-06 153.791L-1.00001 153.791L-1.00001 155.269L0.371712 154.719L-7.0284e-06 153.791ZM-6.34114e-06 138.068L-0.358794 137.135L-1.00001 137.381L-1.00001 138.068L-6.34114e-06 138.068ZM16.2598 131.818L16.6185 132.752L17.2598 132.505L17.2598 131.818L16.2598 131.818ZM16.2598 103.205L17.2598 103.205L17.2598 102.504L16.6013 102.265L16.2598 103.205ZM-4.55896e-06 97.2969L-1 97.2969L-1 97.9975L-0.341519 98.2367L-4.55896e-06 97.2969ZM-3.88878e-06 81.9648L0.362934 81.033L-1 80.5022L-1 81.9648L-3.88878e-06 81.9648ZM71.582 109.846L72.582 109.846L72.582 109.162L71.945 108.914L71.582 109.846ZM71.582 125.129L71.9537 126.057L72.582 125.806L72.582 125.129L71.582 125.129ZM28.3203 127.18L27.3203 127.18L27.3203 128.618L28.6684 128.117L28.3203 127.18ZM54.8828 117.316L55.2309 118.254L57.7808 117.307L55.2248 116.377L54.8828 117.316ZM28.3203 107.648L28.6623 106.709L27.3203 106.22L27.3203 107.648L28.3203 107.648ZM0.999993 153.791L0.999994 138.068L-1.00001 138.068L-1.00001 153.791L0.999993 153.791ZM0.358781 139.002L16.6185 132.752L15.901 130.885L-0.358794 137.135L0.358781 139.002ZM17.2598 131.818L17.2598 103.205L15.2598 103.205L15.2598 131.818L17.2598 131.818ZM16.6013 102.265L0.34151 96.357L-0.341519 98.2367L15.9182 104.145L16.6013 102.265ZM0.999995 97.2969L0.999996 81.9648L-1 81.9648L-1 97.2969L0.999995 97.2969ZM-0.362942 82.8967L71.2191 110.778L71.945 108.914L0.362934 81.033L-0.362942 82.8967ZM70.582 109.846L70.582 125.129L72.582 125.129L72.582 109.846L70.582 109.846ZM71.2103 124.201L-0.371726 152.863L0.371712 154.719L71.9537 126.057L71.2103 124.201ZM28.6684 128.117L55.2309 118.254L54.5347 116.379L27.9722 126.242L28.6684 128.117ZM55.2248 116.377L28.6623 106.709L27.9783 108.588L54.5408 118.256L55.2248 116.377ZM27.3203 107.648L27.3203 127.18L29.3203 127.18L29.3203 107.648L27.3203 107.648ZM71.582 161.555L72.582 161.555L72.582 160.555L71.582 160.555L71.582 161.555ZM70.8496 202.814L69.8647 202.641L69.8626 202.654L70.8496 202.814ZM67.9199 210.285L67.0955 209.719L67.0916 209.725L67.9199 210.285ZM61.9141 215.803L61.4095 214.939L61.4046 214.942L61.9141 215.803ZM44.3359 215.266L44.8816 214.428L44.8747 214.423L44.3359 215.266ZM38.0371 207.941L38.9481 207.529L37.8328 205.065L37.0769 207.662L38.0371 207.941ZM11.2305 219.221L11.6739 218.324L11.67 218.322L11.2305 219.221ZM3.85741 213.02L3.03818 213.593L3.0396 213.595L3.85741 213.02ZM0.488272 203.352L-0.505937 203.459L-0.505716 203.461L0.488272 203.352ZM-8.4328e-06 185.92L-1.00003 185.92L-0.999986 185.927L-8.4328e-06 185.92ZM-7.36776e-06 161.555L-7.32405e-06 160.555L-1.00001 160.555L-1.00001 161.555L-7.36776e-06 161.555ZM59.668 176.008L60.668 176.008L60.668 175.008L59.668 175.008L59.668 176.008ZM43.1152 176.008L43.1152 175.008L42.1152 175.008L42.1152 176.008L43.1152 176.008ZM43.3594 195.979L44.3524 195.861L44.3524 195.86L43.3594 195.979ZM56.8848 202.082L56.2325 201.324L56.2231 201.332L56.2138 201.34L56.8848 202.082ZM59.4238 196.662L60.4165 196.783L60.4174 196.775L59.4238 196.662ZM31.2012 176.008L32.2012 176.008L32.2012 175.008L31.2012 175.008L31.2012 176.008ZM12.0605 176.008L12.0605 175.008L11.0605 175.008L11.0605 176.008L12.0605 176.008ZM12.5 199.299L13.4839 199.12L13.4815 199.107L13.4788 199.094L12.5 199.299ZM15.332 204.523L15.9984 203.778L15.9974 203.777L15.332 204.523ZM26.9043 205.012L27.4754 205.833L26.9043 205.012ZM30.1758 200.471L29.2319 200.14L29.2302 200.145L30.1758 200.471ZM70.582 161.555L70.582 190.168L72.582 190.168L72.582 161.555L70.582 161.555ZM70.582 190.168C70.582 195.82 70.3373 199.963 69.8648 202.641L71.8344 202.988C72.3385 200.132 72.582 195.844 72.582 190.168L70.582 190.168ZM69.8626 202.654C69.4288 205.318 68.5036 207.668 67.0955 209.719L68.7443 210.851C70.331 208.54 71.3589 205.909 71.8366 202.975L69.8626 202.654ZM67.0916 209.725C65.6852 211.804 63.7981 213.543 61.4095 214.939L62.4186 216.666C65.043 215.132 67.1599 213.193 68.7482 210.845L67.0916 209.725ZM61.4046 214.942C59.0965 216.309 56.4917 217 53.5644 217L53.5644 219C56.8221 219 59.7837 218.226 62.4235 216.663L61.4046 214.942ZM53.5644 217C50.4046 217 47.5181 216.144 44.8816 214.428L43.7903 216.104C46.7527 218.033 50.0186 219 53.5644 219L53.5644 217ZM44.8747 214.423C42.242 212.739 40.2698 210.449 38.9481 207.529L37.1261 208.354C38.6038 211.619 40.8309 214.211 43.7972 216.108L44.8747 214.423ZM37.0769 207.662C35.856 211.857 33.7969 215.014 30.9349 217.206L32.151 218.794C35.4088 216.299 37.6792 212.75 38.9973 208.221L37.0769 207.662ZM30.9349 217.206C28.0625 219.406 24.6832 220.516 20.7519 220.516L20.7519 222.516C25.0889 222.516 28.9036 221.281 32.151 218.794L30.9349 217.206ZM20.7519 220.516C17.6597 220.516 14.6369 219.79 11.6739 218.324L10.787 220.117C14.0089 221.711 17.3337 222.516 20.7519 222.516L20.7519 220.516ZM11.67 218.322C8.75251 216.895 6.42827 214.935 4.67522 212.444L3.0396 213.595C4.9975 216.377 7.58862 218.552 10.7909 220.119L11.67 218.322ZM4.67664 212.446C2.96869 210.006 1.89099 206.952 1.48226 203.242L-0.505716 203.461C-0.0680865 207.433 1.10029 210.825 3.03818 213.593L4.67664 212.446ZM1.48248 203.244C1.22865 200.896 1.06519 195.142 0.999969 185.913L-0.999986 185.927C-0.934999 195.122 -0.772943 200.989 -0.505937 203.459L1.48248 203.244ZM0.999992 185.92L0.999993 161.555L-1.00001 161.555L-1.00001 185.92L0.999992 185.92ZM-7.41147e-06 162.555L71.582 162.555L71.582 160.555L-7.32405e-06 160.555L-7.41147e-06 162.555ZM59.668 175.008L43.1152 175.008L43.1152 177.008L59.668 177.008L59.668 175.008ZM42.1152 176.008L42.1152 185.48L44.1152 185.48L44.1152 176.008L42.1152 176.008ZM42.1152 185.48C42.1152 191.089 42.195 194.657 42.3664 196.097L44.3524 195.86C44.1982 194.566 44.1152 191.135 44.1152 185.48L42.1152 185.48ZM42.3663 196.096C42.6787 198.734 43.5955 200.9 45.1913 202.496L46.6055 201.082C45.4019 199.878 44.6259 198.171 44.3524 195.861L42.3663 196.096ZM45.1913 202.496C46.8381 204.143 48.9779 204.937 51.5137 204.937L51.5137 202.937C49.427 202.937 47.8234 202.3 46.6055 201.082L45.1913 202.496ZM51.5137 204.937C53.9227 204.937 55.9691 204.259 57.5557 202.824L56.2138 201.34C55.066 202.379 53.5317 202.937 51.5137 202.937L51.5137 204.937ZM57.537 202.84C59.1787 201.427 60.1031 199.36 60.4165 196.783L58.4311 196.541C58.1586 198.782 57.3903 200.328 56.2325 201.324L57.537 202.84ZM60.4174 196.775C60.5882 195.272 60.668 191.085 60.668 184.309L58.668 184.309C58.668 191.139 58.585 195.187 58.4302 196.549L60.4174 196.775ZM60.668 184.309L60.668 176.008L58.668 176.008L58.668 184.309L60.668 184.309ZM31.2012 175.008L12.0605 175.008L12.0605 177.008L31.2012 177.008L31.2012 175.008ZM11.0605 176.008L11.0605 189.387L13.0605 189.387L13.0605 176.008L11.0605 176.008ZM11.0605 189.387C11.0605 194.563 11.2026 197.981 11.5212 199.504L13.4788 199.094C13.2115 197.817 13.0605 194.627 13.0605 189.387L11.0605 189.387ZM11.5161 199.478C11.9429 201.825 12.9877 203.773 14.6667 205.27L15.9974 203.777C14.6815 202.604 13.8384 201.07 13.4839 199.12L11.5161 199.478ZM14.6657 205.269C16.4197 206.837 18.7115 207.574 21.4355 207.574L21.4355 205.574C19.0815 205.574 17.3042 204.945 15.9984 203.778L14.6657 205.269ZM21.4355 207.574C23.7509 207.574 25.7822 207.01 27.4754 205.833L26.3332 204.191C25.0316 205.096 23.417 205.574 21.4355 205.574L21.4355 207.574ZM27.4754 205.833C29.1725 204.652 30.3795 202.951 31.1213 200.796L29.2302 200.145C28.6049 201.962 27.6309 203.288 26.3332 204.191L27.4754 205.833ZM31.1196 200.801C31.5062 199.697 31.7695 198.034 31.9416 195.888C32.1155 193.719 32.2012 190.98 32.2012 187.678L30.2012 187.678C30.2012 190.951 30.116 193.632 29.948 195.728C29.7783 197.845 29.5289 199.292 29.2319 200.14L31.1196 200.801ZM32.2012 187.678L32.2012 176.008L30.2012 176.008L30.2012 187.678L32.2012 187.678Z" fill="white"/>
</svg>
