<svg width="194" height="72" viewBox="0 0 194 72" fill="none" xmlns="http://www.w3.org/2000/svg">
<path d="M0.666016 72H-0.333984V73H0.666016V72ZM0.666016 1.00391V0.00390625H-0.333984V1.00391H0.666016ZM15.1191 1.00391H16.1191V0.00390625H15.1191V1.00391ZM15.1191 59.9395H14.1191V60.9395H15.1191V59.9395ZM51.0566 59.9395H52.0566V58.9395H51.0566V59.9395ZM51.0566 72V73H52.0566V72H51.0566ZM1.66602 72V1.00391H-0.333984V72H1.66602ZM0.666016 2.00391H15.1191V0.00390625H0.666016V2.00391ZM14.1191 1.00391V59.9395H16.1191V1.00391H14.1191ZM15.1191 60.9395H51.0566V58.9395H15.1191V60.9395ZM50.0566 59.9395V72H52.0566V59.9395H50.0566ZM51.0566 71H0.666016V73H51.0566V71ZM125.959 72V73H127.437L126.887 71.6283L125.959 72ZM110.236 72L109.303 72.3588L109.549 73H110.236V72ZM103.986 55.7402L104.92 55.3814L104.673 54.7402H103.986V55.7402ZM75.373 55.7402V54.7402H74.6724L74.4332 55.3987L75.373 55.7402ZM69.4648 72V73H70.1655L70.4047 72.3415L69.4648 72ZM54.1328 72L53.201 71.6371L52.6701 73H54.1328V72ZM82.0137 0.417969V-0.582031H81.33L81.0819 0.0550318L82.0137 0.417969ZM97.2969 0.417969L98.2252 0.0462503L97.9736 -0.582031H97.2969V0.417969ZM99.3477 43.6797V44.6797H100.786L100.285 43.3316L99.3477 43.6797ZM89.4844 17.1172L90.4218 16.7691L89.475 14.2192L88.5447 16.7752L89.4844 17.1172ZM79.8164 43.6797L78.8767 43.3377L78.3883 44.6797H79.8164V43.6797ZM125.959 71H110.236V73H125.959V71ZM111.17 71.6412L104.92 55.3814L103.053 56.099L109.303 72.3588L111.17 71.6412ZM103.986 54.7402H75.373V56.7402H103.986V54.7402ZM74.4332 55.3987L68.525 71.6585L70.4047 72.3415L76.3129 56.0817L74.4332 55.3987ZM69.4648 71H54.1328V73H69.4648V71ZM55.0646 72.3629L82.9455 0.780906L81.0819 0.0550318L53.201 71.6371L55.0646 72.3629ZM82.0137 1.41797H97.2969V-0.582031H82.0137V1.41797ZM96.3685 0.789687L125.031 72.3717L126.887 71.6283L98.2252 0.0462503L96.3685 0.789687ZM100.285 43.3316L90.4218 16.7691L88.5469 17.4653L98.4102 44.0278L100.285 43.3316ZM88.5447 16.7752L78.8767 43.3377L80.7561 44.0217L90.4241 17.4592L88.5447 16.7752ZM79.8164 44.6797H99.3477V42.6797H79.8164V44.6797ZM133.723 0.417969V-0.582031H132.723V0.417969H133.723ZM174.982 1.15039L174.809 2.13526L174.822 2.1374L174.982 1.15039ZM182.453 4.08008L181.887 4.9045L181.893 4.90836L182.453 4.08008ZM187.971 10.0859L187.107 10.5905L187.11 10.5954L187.971 10.0859ZM187.434 27.6641L186.596 27.1184L186.591 27.1253L187.434 27.6641ZM180.109 33.9629L179.697 33.0519L177.233 34.1672L179.83 34.923L180.109 33.9629ZM191.389 60.7695L190.492 60.3261L190.49 60.33L191.389 60.7695ZM185.188 68.1426L185.761 68.9618L185.763 68.9604L185.188 68.1426ZM175.52 71.5117L175.627 72.5059L175.629 72.5057L175.52 71.5117ZM158.088 72V73L158.095 73L158.088 72ZM133.723 72H132.723V73H133.723V72ZM148.176 12.332V11.332H147.176V12.332H148.176ZM148.176 28.8848H147.176V29.8848H148.176V28.8848ZM168.146 28.6406L168.029 27.6476L168.028 27.6476L168.146 28.6406ZM174.25 15.1152L173.492 15.7675L173.5 15.7769L173.508 15.7861L174.25 15.1152ZM168.83 12.5762L168.951 11.5835L168.943 11.5826L168.83 12.5762ZM148.176 40.7988V39.7988H147.176V40.7988H148.176ZM148.176 59.9395H147.176V60.9395H148.176V59.9395ZM171.467 59.5L171.288 58.5161L171.275 58.5185L171.262 58.5212L171.467 59.5ZM176.691 56.668L175.946 56.0016L175.945 56.0026L176.691 56.668ZM177.18 45.0957L178.001 44.5246L177.18 45.0957ZM172.639 41.8242L172.308 42.7681L172.313 42.7698L172.639 41.8242ZM133.723 1.41797H162.336V-0.582031H133.723V1.41797ZM162.336 1.41797C167.988 1.41797 172.131 1.66272 174.809 2.13517L175.156 0.165607C172.3 -0.338502 168.012 -0.582031 162.336 -0.582031V1.41797ZM174.822 2.1374C177.486 2.57119 179.836 3.4964 181.887 4.90448L183.019 3.25568C180.708 1.66896 178.077 0.641049 175.143 0.163383L174.822 2.1374ZM181.893 4.90836C183.972 6.31483 185.711 8.20188 187.107 10.5905L188.834 9.58137C187.3 6.95697 185.361 4.84011 183.013 3.25179L181.893 4.90836ZM187.11 10.5954C188.477 12.9035 189.168 15.5083 189.168 18.4355H191.168C191.168 15.1779 190.394 12.2163 188.831 9.57644L187.11 10.5954ZM189.168 18.4355C189.168 21.5954 188.312 24.4819 186.596 27.1184L188.272 28.2097C190.201 25.2473 191.168 21.9814 191.168 18.4355H189.168ZM186.591 27.1253C184.907 29.758 182.617 31.7301 179.697 33.0519L180.522 34.8739C183.787 33.3962 186.379 31.1691 188.276 28.2028L186.591 27.1253ZM179.83 34.923C184.025 36.144 187.182 38.2031 189.374 41.0651L190.962 39.849C188.467 36.5912 184.918 34.3208 180.389 33.0027L179.83 34.923ZM189.374 41.0651C191.574 43.9374 192.684 47.3168 192.684 51.248H194.684C194.684 46.9111 193.449 43.0964 190.962 39.849L189.374 41.0651ZM192.684 51.248C192.684 54.3403 191.958 57.3631 190.492 60.3261L192.285 61.213C193.879 57.9911 194.684 54.6663 194.684 51.248H192.684ZM190.49 60.33C189.063 63.2475 187.103 65.5717 184.612 67.3248L185.763 68.9604C188.545 67.0025 190.72 64.4114 192.287 61.2091L190.49 60.33ZM184.614 67.3233C182.174 69.0313 179.12 70.109 175.41 70.5177L175.629 72.5057C179.601 72.0681 182.993 70.8997 185.761 68.9618L184.614 67.3233ZM175.412 70.5175C173.064 70.7713 167.31 70.9348 158.081 71L158.095 73C167.29 72.935 173.157 72.7729 175.627 72.5059L175.412 70.5175ZM158.088 71H133.723V73H158.088V71ZM134.723 72V0.417969H132.723V72H134.723ZM147.176 12.332V28.8848H149.176V12.332H147.176ZM148.176 29.8848H157.648V27.8848H148.176V29.8848ZM157.648 29.8848C163.257 29.8848 166.825 29.805 168.265 29.6336L168.028 27.6476C166.734 27.8018 163.303 27.8848 157.648 27.8848V29.8848ZM168.264 29.6337C170.902 29.3213 173.068 28.4045 174.664 26.8087L173.25 25.3945C172.046 26.5981 170.339 27.3741 168.029 27.6476L168.264 29.6337ZM174.664 26.8087C176.311 25.1619 177.105 23.0221 177.105 20.4863H175.105C175.105 22.573 174.468 24.1766 173.25 25.3945L174.664 26.8087ZM177.105 20.4863C177.105 18.0773 176.427 16.0309 174.992 14.4443L173.508 15.7861C174.547 16.934 175.105 18.4683 175.105 20.4863H177.105ZM175.008 14.463C173.595 12.8213 171.527 11.8969 168.951 11.5835L168.709 13.5689C170.95 13.8414 172.496 14.6097 173.492 15.7675L175.008 14.463ZM168.943 11.5826C167.44 11.4118 163.253 11.332 156.477 11.332V13.332C163.307 13.332 167.355 13.415 168.717 13.5698L168.943 11.5826ZM156.477 11.332H148.176V13.332H156.477V11.332ZM147.176 40.7988V59.9395H149.176V40.7988H147.176ZM148.176 60.9395H161.555V58.9395H148.176V60.9395ZM161.555 60.9395C166.731 60.9395 170.149 60.7974 171.672 60.4788L171.262 58.5212C169.985 58.7885 166.795 58.9395 161.555 58.9395V60.9395ZM171.646 60.4839C173.993 60.0571 175.941 59.0123 177.438 57.3333L175.945 56.0026C174.772 57.3185 173.238 58.1616 171.288 58.5161L171.646 60.4839ZM177.437 57.3343C179.005 55.5803 179.742 53.2885 179.742 50.5645H177.742C177.742 52.9185 177.113 54.6958 175.946 56.0016L177.437 57.3343ZM179.742 50.5645C179.742 48.2491 179.178 46.2178 178.001 44.5246L176.359 45.6668C177.264 46.9684 177.742 48.583 177.742 50.5645H179.742ZM178.001 44.5246C176.82 42.8275 175.119 41.6205 172.964 40.8787L172.313 42.7698C174.13 43.3951 175.456 44.3691 176.359 45.6668L178.001 44.5246ZM172.969 40.8804C171.865 40.4938 170.202 40.2305 168.055 40.0584C165.887 39.8845 163.148 39.7988 159.846 39.7988V41.7988C163.119 41.7988 165.8 41.884 167.896 42.052C170.013 42.2217 171.46 42.471 172.308 42.7681L172.969 40.8804ZM159.846 39.7988H148.176V41.7988H159.846V39.7988Z" fill="white"/>
</svg>
