<svg width="503" height="187" viewBox="0 0 503 187" fill="none" xmlns="http://www.w3.org/2000/svg">
<path d="M0.931641 187H-1.06836V189H0.931641V187ZM0.931641 2.41016V0.410156H-1.06836V2.41016H0.931641ZM38.5098 2.41016H40.5098V0.410156H38.5098V2.41016ZM38.5098 155.643H36.5098V157.643H38.5098V155.643ZM131.947 155.643H133.947V153.643H131.947V155.643ZM131.947 187V189H133.947V187H131.947ZM2.93164 187V2.41016H-1.06836V187H2.93164ZM0.931641 4.41016H38.5098V0.410156H0.931641V4.41016ZM36.5098 2.41016V155.643H40.5098V2.41016H36.5098ZM38.5098 157.643H131.947V153.643H38.5098V157.643ZM129.947 155.643V187H133.947V155.643H129.947ZM131.947 185H0.931641V189H131.947V185ZM326.693 187V189H329.649L328.55 186.257L326.693 187ZM285.814 187L283.948 187.718L284.441 189H285.814V187ZM269.564 144.725L271.431 144.007L270.938 142.725H269.564V144.725ZM195.17 144.725V142.725H193.769L193.29 144.042L195.17 144.725ZM179.809 187V189H181.21L181.688 187.683L179.809 187ZM139.945 187L138.082 186.274L137.02 189H139.945V187ZM212.436 0.886719V-1.11328H211.068L210.572 0.160843L212.436 0.886719ZM252.172 0.886719L254.029 0.14328L253.525 -1.11328H252.172V0.886719ZM257.504 113.367V115.367H260.38L259.379 112.671L257.504 113.367ZM231.859 44.3047L233.734 43.6085L231.841 38.5087L229.98 43.6207L231.859 44.3047ZM206.723 113.367L204.843 112.683L203.866 115.367H206.723V113.367ZM326.693 185H285.814V189H326.693V185ZM287.681 186.282L271.431 144.007L267.698 145.442L283.948 187.718L287.681 186.282ZM269.564 142.725H195.17V146.725H269.564V142.725ZM193.29 144.042L177.929 186.317L181.688 187.683L197.05 145.408L193.29 144.042ZM179.809 185H139.945V189H179.809V185ZM141.809 187.726L214.299 1.61259L210.572 0.160843L138.082 186.274L141.809 187.726ZM212.436 2.88672H252.172V-1.11328H212.436V2.88672ZM250.315 1.63016L324.837 187.743L328.55 186.257L254.029 0.14328L250.315 1.63016ZM259.379 112.671L233.734 43.6085L229.984 45.0009L255.629 114.063L259.379 112.671ZM229.98 43.6207L204.843 112.683L208.602 114.051L233.739 44.9887L229.98 43.6207ZM206.723 115.367H257.504V111.367H206.723V115.367ZM346.879 0.886719V-1.11328H344.879V0.886719H346.879ZM454.154 2.79102L453.807 4.76058L453.82 4.76289L453.833 4.76503L454.154 2.79102ZM473.578 10.4082L472.446 12.057L472.458 12.0648L473.578 10.4082ZM487.924 26.0234L486.197 27.0326L486.203 27.0424L487.924 26.0234ZM486.527 71.7266L484.851 70.6352L484.847 70.6421L484.842 70.649L486.527 71.7266ZM467.484 88.1035L466.66 86.2815L461.731 88.5121L466.925 90.0238L467.484 88.1035ZM496.811 157.801L495.018 156.914L495.014 156.922L496.811 157.801ZM480.688 176.971L481.834 178.609L481.839 178.606L480.688 176.971ZM455.551 185.73L455.766 187.719L455.77 187.718L455.551 185.73ZM410.229 187V189L410.243 189L410.229 187ZM346.879 187H344.879V189H346.879V187ZM384.457 31.8633V29.8633H382.457V31.8633H384.457ZM384.457 74.9004H382.457V76.9004H384.457V74.9004ZM436.381 74.2656L436.146 72.2795L436.144 72.2796L436.381 74.2656ZM452.25 39.0996L450.734 40.4041L450.75 40.423L450.767 40.4414L452.25 39.0996ZM438.158 32.498L438.4 30.5127L438.392 30.5117L438.384 30.5108L438.158 32.498ZM384.457 105.877V103.877H382.457V105.877H384.457ZM384.457 155.643H382.457V157.643H384.457V155.643ZM445.014 154.5L444.656 152.532L444.63 152.537L444.604 152.542L445.014 154.5ZM458.598 147.137L457.106 145.804L457.105 145.806L458.598 147.137ZM459.867 117.049L461.509 115.907L459.867 117.049ZM448.061 108.543L447.4 110.431L447.41 110.434L448.061 108.543ZM346.879 2.88672H421.273V-1.11328H346.879V2.88672ZM421.273 2.88672C435.976 2.88672 446.792 3.52271 453.807 4.76058L454.502 0.821449C447.128 -0.479736 436.024 -1.11328 421.273 -1.11328V2.88672ZM453.833 4.76503C460.842 5.90605 467.036 8.34241 472.446 12.057L474.71 8.7594C468.779 4.68753 462.024 2.04577 454.476 0.817001L453.833 4.76503ZM472.458 12.0648C477.944 15.7762 482.526 20.7514 486.197 27.0326L489.651 25.0143C485.704 18.2616 480.723 12.8267 474.699 8.75163L472.458 12.0648ZM486.203 27.0424C489.815 33.1429 491.637 40.0225 491.637 47.7324H495.637C495.637 39.3616 493.65 31.7686 489.645 25.0045L486.203 27.0424ZM491.637 47.7324C491.637 56.0639 489.379 63.6825 484.851 70.6352L488.203 72.8179C493.155 65.2133 495.637 56.8358 495.637 47.7324H491.637ZM484.842 70.649C480.401 77.5941 474.355 82.7982 466.66 86.2815L468.309 89.9256C476.694 86.1302 483.344 80.4163 488.212 72.8041L484.842 70.649ZM466.925 90.0238C477.933 93.2275 486.258 98.6445 492.049 106.204L495.224 103.772C488.828 95.4206 479.718 89.5811 468.043 86.1832L466.925 90.0238ZM492.049 106.204C497.855 113.785 500.777 122.702 500.777 133.045H504.777C504.777 121.891 501.606 112.103 495.224 103.772L492.049 106.204ZM500.777 133.045C500.777 141.182 498.868 149.132 495.018 156.914L498.603 158.688C502.709 150.388 504.777 141.834 504.777 133.045H500.777ZM495.014 156.922C491.26 164.593 486.101 170.716 479.536 175.335L481.839 178.606C488.985 173.577 494.574 166.92 498.607 158.68L495.014 156.922ZM479.541 175.332C473.098 179.842 465.056 182.671 455.332 183.742L455.77 187.718C466.019 186.589 474.735 183.579 481.834 178.609L479.541 175.332ZM455.336 183.742C449.195 184.406 434.2 184.831 410.214 185L410.243 189C434.16 188.831 449.381 188.409 455.766 187.719L455.336 183.742ZM410.229 185H346.879V189H410.229V185ZM348.879 187V0.886719H344.879V187H348.879ZM382.457 31.8633V74.9004H386.457V31.8633H382.457ZM384.457 76.9004H409.086V72.9004H384.457V76.9004ZM409.086 76.9004C423.682 76.9004 432.918 76.692 436.617 76.2516L436.144 72.2796C432.735 72.6856 423.774 72.9004 409.086 72.9004V76.9004ZM436.616 76.2518C443.377 75.4511 448.871 73.1098 452.902 69.0783L450.074 66.2498C446.827 69.4969 442.249 71.5567 436.146 72.2795L436.616 76.2518ZM452.902 69.0783C457.055 64.9254 459.074 59.5227 459.074 53.0645H455.074C455.074 58.6244 453.369 62.9548 450.074 66.2498L452.902 69.0783ZM459.074 53.0645C459.074 46.9182 457.346 41.7512 453.733 37.7578L450.767 40.4414C453.586 43.5574 455.074 47.7003 455.074 53.0645H459.074ZM453.766 37.7951C450.218 33.6718 444.998 31.3152 438.4 30.5127L437.917 34.4834C443.844 35.2043 448.019 37.2488 450.734 40.4041L453.766 37.7951ZM438.384 30.5108C434.519 30.0717 423.673 29.8633 406.039 29.8633V33.8633C423.783 33.8633 434.349 34.0781 437.932 34.4853L438.384 30.5108ZM406.039 29.8633H384.457V33.8633H406.039V29.8633ZM382.457 105.877V155.643H386.457V105.877H382.457ZM384.457 157.643H419.242V153.643H384.457V157.643ZM419.242 157.643C432.719 157.643 441.539 157.271 445.423 156.458L444.604 152.542C441.21 153.253 432.849 153.643 419.242 153.643V157.643ZM445.371 156.468C451.355 155.38 456.297 152.724 460.091 148.467L457.105 145.806C453.958 149.336 449.844 151.589 444.656 152.532L445.371 156.468ZM460.089 148.469C464.044 144.043 465.93 138.239 465.93 131.268H461.93C461.93 137.499 460.261 142.274 457.106 145.804L460.089 148.469ZM465.93 131.268C465.93 125.348 464.49 120.191 461.509 115.907L458.225 118.191C460.661 121.693 461.93 126.016 461.93 131.268H465.93ZM461.509 115.907C458.523 111.614 454.213 108.546 448.712 106.652L447.41 110.434C452.234 112.095 455.795 114.697 458.225 118.191L461.509 115.907ZM448.721 106.655C445.926 105.677 441.67 104.997 436.096 104.55C430.479 104.1 423.375 103.877 414.799 103.877V107.877C423.319 107.877 430.306 108.099 435.777 108.537C441.291 108.979 445.117 109.632 447.4 110.431L448.721 106.655ZM414.799 103.877H384.457V107.877H414.799V103.877Z" fill="white"/>
</svg>
