<svg width="31" height="37" viewBox="0 0 31 37" fill="none" xmlns="http://www.w3.org/2000/svg">
<path d="M25.8195 31.8198C19.9616 37.6777 10.4642 37.6777 4.60629 31.8198C-1.25158 25.9619 -1.25158 16.4645 4.60629 10.6066L15.2129 -1.45435e-05L25.8195 10.6066C31.6774 16.4644 31.6774 25.9619 25.8195 31.8198Z" fill="#F0AB00"/>
<path d="M10.7422 15.0148C11.8516 15.0148 12.7188 15.4106 13.3438 16.2023C14.0885 17.1398 14.4609 18.6945 14.4609 20.8663C14.4609 23.033 14.0859 24.5903 13.3359 25.5382C12.7161 26.3195 11.8516 26.7101 10.7422 26.7101C9.6276 26.7101 8.72917 26.283 8.04688 25.4288C7.36458 24.5695 7.02344 23.0408 7.02344 20.8429C7.02344 18.6866 7.39844 17.1346 8.14844 16.1866C8.76823 15.4054 9.63281 15.0148 10.7422 15.0148ZM10.7422 16.8351C10.4766 16.8351 10.2396 16.921 10.0312 17.0929C9.82292 17.2596 9.66146 17.5616 9.54688 17.9991C9.39583 18.5669 9.32031 19.5226 9.32031 20.8663C9.32031 22.2101 9.38802 23.1346 9.52344 23.6398C9.65885 24.1398 9.82812 24.4731 10.0312 24.6398C10.2396 24.8064 10.4766 24.8898 10.7422 24.8898C11.0078 24.8898 11.2448 24.8064 11.4531 24.6398C11.6615 24.4679 11.8229 24.1632 11.9375 23.7257C12.0885 23.1632 12.1641 22.2101 12.1641 20.8663C12.1641 19.5226 12.0964 18.6007 11.9609 18.1007C11.8255 17.5955 11.6536 17.2596 11.4453 17.0929C11.2422 16.921 11.0078 16.8351 10.7422 16.8351ZM21.5547 26.5148H19.3594V18.2413C18.5573 18.9913 17.612 19.546 16.5234 19.9054V17.9132C17.0964 17.7257 17.7188 17.3715 18.3906 16.8507C19.0625 16.3247 19.5234 15.7127 19.7734 15.0148H21.5547V26.5148Z" fill="white"/>
</svg>
