<svg width="31" height="37" viewBox="0 0 31 37" fill="none" xmlns="http://www.w3.org/2000/svg">
<path d="M25.8195 31.8198C19.9616 37.6777 10.4642 37.6777 4.60629 31.8198C-1.25158 25.9619 -1.25158 16.4645 4.60629 10.6066L15.2129 -1.45435e-05L25.8195 10.6066C31.6774 16.4644 31.6774 25.9619 25.8195 31.8198Z" fill="#F0AB00"/>
<path d="M10.7422 15.0148C11.8516 15.0148 12.7188 15.4106 13.3438 16.2023C14.0885 17.1398 14.4609 18.6945 14.4609 20.8663C14.4609 23.033 14.0859 24.5903 13.3359 25.5382C12.7161 26.3195 11.8516 26.7101 10.7422 26.7101C9.6276 26.7101 8.72917 26.283 8.04688 25.4288C7.36458 24.5695 7.02344 23.0408 7.02344 20.8429C7.02344 18.6866 7.39844 17.1346 8.14844 16.1866C8.76823 15.4054 9.63281 15.0148 10.7422 15.0148ZM10.7422 16.8351C10.4766 16.8351 10.2396 16.921 10.0312 17.0929C9.82292 17.2596 9.66146 17.5616 9.54688 17.9991C9.39583 18.5669 9.32031 19.5226 9.32031 20.8663C9.32031 22.2101 9.38802 23.1346 9.52344 23.6398C9.65885 24.1398 9.82812 24.4731 10.0312 24.6398C10.2396 24.8064 10.4766 24.8898 10.7422 24.8898C11.0078 24.8898 11.2448 24.8064 11.4531 24.6398C11.6615 24.4679 11.8229 24.1632 11.9375 23.7257C12.0885 23.1632 12.1641 22.2101 12.1641 20.8663C12.1641 19.5226 12.0964 18.6007 11.9609 18.1007C11.8255 17.5955 11.6536 17.2596 11.4453 17.0929C11.2422 16.921 11.0078 16.8351 10.7422 16.8351ZM15.8594 23.4757L17.9844 23.2179C18.0521 23.7596 18.2344 24.1736 18.5312 24.4601C18.8281 24.7465 19.1875 24.8898 19.6094 24.8898C20.0625 24.8898 20.4427 24.7179 20.75 24.3741C21.0625 24.0304 21.2188 23.5669 21.2188 22.9835C21.2188 22.4314 21.0703 21.9939 20.7734 21.671C20.4766 21.3481 20.1146 21.1866 19.6875 21.1866C19.4062 21.1866 19.0703 21.2413 18.6797 21.3507L18.9219 19.5616C19.5156 19.5773 19.9688 19.4497 20.2812 19.1788C20.5938 18.9028 20.75 18.5382 20.75 18.0851C20.75 17.6997 20.6354 17.3924 20.4062 17.1632C20.1771 16.934 19.8724 16.8195 19.4922 16.8195C19.1172 16.8195 18.7969 16.9497 18.5312 17.2101C18.2656 17.4705 18.1042 17.8507 18.0469 18.3507L16.0234 18.007C16.1641 17.3142 16.375 16.7622 16.6562 16.3507C16.9427 15.934 17.3385 15.6085 17.8438 15.3741C18.3542 15.1346 18.9245 15.0148 19.5547 15.0148C20.6328 15.0148 21.4974 15.3585 22.1484 16.046C22.6849 16.6085 22.9531 17.2439 22.9531 17.9523C22.9531 18.9575 22.4036 19.7596 21.3047 20.3585C21.9609 20.4991 22.4844 20.8142 22.875 21.3038C23.2708 21.7934 23.4688 22.3846 23.4688 23.0773C23.4688 24.0825 23.1016 24.9392 22.3672 25.6476C21.6328 26.3559 20.7188 26.7101 19.625 26.7101C18.5885 26.7101 17.7292 26.4132 17.0469 25.8195C16.3646 25.2205 15.9688 24.4392 15.8594 23.4757Z" fill="white"/>
</svg>
