<svg width="557" height="190" viewBox="0 0 557 190" fill="none" xmlns="http://www.w3.org/2000/svg">
<path d="M0.804688 94.0078C0.804688 88.5391 2.15234 83.2461 4.84766 78.1289C7.54297 73.0117 11.3516 69.1055 16.2734 66.4102C21.2344 63.7148 26.7617 62.3672 32.8555 62.3672C42.2695 62.3672 49.9844 65.4336 56 71.5664C62.0156 77.6602 65.0234 85.375 65.0234 94.7109C65.0234 104.125 61.9766 111.938 55.8828 118.148C49.8281 124.32 42.1914 127.406 32.9727 127.406C27.2695 127.406 21.8203 126.117 16.625 123.539C11.4688 120.961 7.54297 117.191 4.84766 112.23C2.15234 107.23 0.804688 101.156 0.804688 94.0078ZM17.6797 94.8867C17.6797 101.059 19.1445 105.785 22.0742 109.066C25.0039 112.348 28.6172 113.988 32.9141 113.988C37.2109 113.988 40.8047 112.348 43.6953 109.066C46.625 105.785 48.0898 101.02 48.0898 94.7695C48.0898 88.6758 46.625 83.9883 43.6953 80.707C40.8047 77.4258 37.2109 75.7852 32.9141 75.7852C28.6172 75.7852 25.0039 77.4258 22.0742 80.707C19.1445 83.9883 17.6797 88.7148 17.6797 94.8867ZM71.3281 63.7734H87.793V86.5664H111.348V63.7734H127.871V126H111.348V99.8672H87.793V126H71.3281V63.7734ZM137.867 63.7734H154.273V89.2031C157.008 88.8906 158.941 88.0508 160.074 86.6836C161.207 85.3164 162.574 82.3281 164.176 77.7188C166.285 71.5859 168.59 67.6602 171.09 65.9414C173.59 64.2227 176.871 63.3633 180.934 63.3633C182.184 63.3633 184.352 63.4609 187.438 63.6562L187.496 74.5547C183.16 74.5547 180.387 74.9648 179.176 75.7852C177.965 76.6445 176.656 79.2031 175.25 83.4609C173.336 89.2031 170.582 92.7383 166.988 94.0664C172.184 95.5117 176.578 100.023 180.172 107.602C180.367 107.992 180.582 108.402 180.816 108.832L190.016 126H172.32L164.117 108.012C162.438 104.379 160.973 102.055 159.723 101.039C158.512 99.9844 156.695 99.457 154.273 99.457V126H137.867V63.7734ZM187.18 94.0078C187.18 88.5391 188.527 83.2461 191.223 78.1289C193.918 73.0117 197.727 69.1055 202.648 66.4102C207.609 63.7148 213.137 62.3672 219.23 62.3672C228.645 62.3672 236.359 65.4336 242.375 71.5664C248.391 77.6602 251.398 85.375 251.398 94.7109C251.398 104.125 248.352 111.938 242.258 118.148C236.203 124.32 228.566 127.406 219.348 127.406C213.645 127.406 208.195 126.117 203 123.539C197.844 120.961 193.918 117.191 191.223 112.23C188.527 107.23 187.18 101.156 187.18 94.0078ZM204.055 94.8867C204.055 101.059 205.52 105.785 208.449 109.066C211.379 112.348 214.992 113.988 219.289 113.988C223.586 113.988 227.18 112.348 230.07 109.066C233 105.785 234.465 101.02 234.465 94.7695C234.465 88.6758 233 83.9883 230.07 80.707C227.18 77.4258 223.586 75.7852 219.289 75.7852C214.992 75.7852 211.379 77.4258 208.449 80.707C205.52 83.9883 204.055 88.7148 204.055 94.8867ZM259.754 63.7734H314.891V126H298.484V77.1328H276.043V105.082C276.043 112.191 275.223 117.191 273.582 120.082C271.941 122.934 270.125 124.809 268.133 125.707C266.141 126.605 262.938 127.055 258.523 127.055C255.906 127.055 252.449 126.703 248.152 126V113.871C248.504 113.871 249.422 113.91 250.906 113.988C252.625 114.105 253.953 114.164 254.891 114.164C257.117 114.164 258.484 113.441 258.992 111.996C259.5 110.512 259.754 106.43 259.754 99.75V63.7734ZM320.141 94.0078C320.141 88.5391 321.488 83.2461 324.184 78.1289C326.879 73.0117 330.688 69.1055 335.609 66.4102C340.57 63.7148 346.098 62.3672 352.191 62.3672C361.605 62.3672 369.32 65.4336 375.336 71.5664C381.352 77.6602 384.359 85.375 384.359 94.7109C384.359 104.125 381.312 111.938 375.219 118.148C369.164 124.32 361.527 127.406 352.309 127.406C346.605 127.406 341.156 126.117 335.961 123.539C330.805 120.961 326.879 117.191 324.184 112.23C321.488 107.23 320.141 101.156 320.141 94.0078ZM337.016 94.8867C337.016 101.059 338.48 105.785 341.41 109.066C344.34 112.348 347.953 113.988 352.25 113.988C356.547 113.988 360.141 112.348 363.031 109.066C365.961 105.785 367.426 101.02 367.426 94.7695C367.426 88.6758 365.961 83.9883 363.031 80.707C360.141 77.4258 356.547 75.7852 352.25 75.7852C347.953 75.7852 344.34 77.4258 341.41 80.707C338.48 83.9883 337.016 88.7148 337.016 94.8867ZM390.664 63.7734H432.676V77.0742H407.129V126H390.664V63.7734ZM434.938 63.7734H450.758V102.855L476.07 63.7734H492.242V126H476.422V86.2148L450.758 126H434.938V63.7734ZM556.496 63.7734V126H540.148V100.16H538.625C535.07 100.16 532.453 100.629 530.773 101.566C529.133 102.465 527.297 104.398 525.266 107.367L524.27 108.598L513.43 126H494.27L506.047 107.953C509.406 102.797 512.453 99.8281 515.188 99.0469C510.578 98.7734 506.828 97.0352 503.938 93.832C501.086 90.5898 499.66 86.4688 499.66 81.4688C499.66 77.4453 500.598 74.0078 502.473 71.1562C504.387 68.3047 506.906 66.3711 510.031 65.3555C513.195 64.3008 517.883 63.7734 524.094 63.7734H556.496ZM540.148 74.3789H528.371C524.035 74.3789 520.988 75.0039 519.23 76.2539C517.473 77.4648 516.594 79.4961 516.594 82.3477C516.594 85.1992 517.59 87.25 519.582 88.5C521.574 89.75 524.836 90.375 529.367 90.375H540.148V74.3789Z" fill="white"/>
<path d="M16.2734 4.41016L15.796 3.53146L15.7931 3.53306L16.2734 4.41016ZM56 9.56641L55.2861 10.2667L55.2883 10.2689L56 9.56641ZM55.8828 56.1484L55.169 55.4481L55.169 55.4481L55.8828 56.1484ZM16.625 61.5391L16.1778 62.4335L16.1805 62.4348L16.625 61.5391ZM4.84766 50.2305L3.9674 50.705L3.96897 50.7079L4.84766 50.2305ZM43.6953 47.0664L42.9494 46.4004L42.945 46.4054L43.6953 47.0664ZM43.6953 18.707L42.9449 19.3681L42.9494 19.373L43.6953 18.707ZM1.80469 32.0078C1.80469 26.7108 3.1083 21.577 5.73243 16.5949L3.96288 15.6629C1.19638 20.9152 -0.195312 26.3673 -0.195312 32.0078H1.80469ZM5.73243 16.5949C8.33919 11.6459 12.0096 7.88521 16.7538 5.28725L15.7931 3.53306C10.6935 6.32573 6.74675 10.3776 3.96288 15.6629L5.73243 16.5949ZM16.7508 5.28885C21.5537 2.67939 26.9149 1.36719 32.8555 1.36719V-0.632812C26.6086 -0.632812 20.915 0.750301 15.796 3.53147L16.7508 5.28885ZM32.8555 1.36719C42.0294 1.36719 49.4775 4.34494 55.2861 10.2667L56.7139 8.86615C50.4912 2.52225 42.5097 -0.632812 32.8555 -0.632812V1.36719ZM55.2883 10.2689C61.1017 16.1577 64.0234 23.6119 64.0234 32.7109H66.0234C66.0234 23.1381 62.9296 15.1626 56.7117 8.86388L55.2883 10.2689ZM64.0234 32.7109C64.0234 41.8867 61.0634 49.4403 55.169 55.4481L56.5966 56.8488C62.8897 50.4347 66.0234 42.3633 66.0234 32.7109H64.0234ZM55.169 55.4481C49.3157 61.4146 41.9426 64.4062 32.9727 64.4062V66.4062C42.4402 66.4062 50.3405 63.226 56.5967 56.8487L55.169 55.4481ZM32.9727 64.4062C27.4264 64.4062 22.1291 63.1541 17.0695 60.6433L16.1805 62.4348C21.5115 65.0803 27.1126 66.4062 32.9727 66.4062V64.4062ZM17.0722 60.6446C12.095 58.156 8.32174 54.5301 5.72634 49.7531L3.96897 50.7079C6.7642 55.8527 10.8425 59.7659 16.1778 62.4335L17.0722 60.6446ZM5.72791 49.756C3.12896 44.9347 1.80469 39.0326 1.80469 32.0078H-0.195312C-0.195312 39.2799 1.17573 45.5262 3.96741 50.705L5.72791 49.756ZM16.6797 32.8867C16.6797 39.2055 18.1794 44.2056 21.3283 47.7324L22.8202 46.4004C20.1097 43.3647 18.6797 38.9117 18.6797 32.8867H16.6797ZM21.3283 47.7324C24.4426 51.2204 28.3247 52.9883 32.9141 52.9883V50.9883C28.9097 50.9883 25.5653 49.4749 22.8202 46.4004L21.3283 47.7324ZM32.9141 52.9883C37.5039 52.9883 41.3691 51.2198 44.4457 47.7274L42.945 46.4054C40.2403 49.4755 36.918 50.9883 32.9141 50.9883V52.9883ZM44.4412 47.7324C47.592 44.2036 49.0898 39.1626 49.0898 32.7695H47.0898C47.0898 38.8765 45.658 43.3667 42.9494 46.4004L44.4412 47.7324ZM49.0898 32.7695C49.0898 26.525 47.5883 21.5657 44.4412 18.041L42.9494 19.373C45.6617 22.4109 47.0898 26.8266 47.0898 32.7695H49.0898ZM44.4457 18.046C41.3691 14.5536 37.5039 12.7852 32.9141 12.7852V14.7852C36.918 14.7852 40.2403 16.2979 42.945 19.3681L44.4457 18.046ZM32.9141 12.7852C28.3247 12.7852 24.4426 14.553 21.3283 18.041L22.8202 19.373C25.5653 16.2985 28.9097 14.7852 32.9141 14.7852V12.7852ZM21.3283 18.041C18.1794 21.5678 16.6797 26.5679 16.6797 32.8867H18.6797C18.6797 26.8618 20.1097 22.4088 22.8202 19.373L21.3283 18.041ZM71.3281 1.77344V0.773438H70.3281V1.77344H71.3281ZM87.793 1.77344H88.793V0.773438H87.793V1.77344ZM87.793 24.5664H86.793V25.5664H87.793V24.5664ZM111.348 24.5664V25.5664H112.348V24.5664H111.348ZM111.348 1.77344V0.773438H110.348V1.77344H111.348ZM127.871 1.77344H128.871V0.773438H127.871V1.77344ZM127.871 64V65H128.871V64H127.871ZM111.348 64H110.348V65H111.348V64ZM111.348 37.8672H112.348V36.8672H111.348V37.8672ZM87.793 37.8672V36.8672H86.793V37.8672H87.793ZM87.793 64V65H88.793V64H87.793ZM71.3281 64H70.3281V65H71.3281V64ZM71.3281 2.77344H87.793V0.773438H71.3281V2.77344ZM86.793 1.77344V24.5664H88.793V1.77344H86.793ZM87.793 25.5664H111.348V23.5664H87.793V25.5664ZM112.348 24.5664V1.77344H110.348V24.5664H112.348ZM111.348 2.77344H127.871V0.773438H111.348V2.77344ZM126.871 1.77344V64H128.871V1.77344H126.871ZM127.871 63H111.348V65H127.871V63ZM112.348 64V37.8672H110.348V64H112.348ZM111.348 36.8672H87.793V38.8672H111.348V36.8672ZM86.793 37.8672V64H88.793V37.8672H86.793ZM87.793 63H71.3281V65H87.793V63ZM72.3281 64V1.77344H70.3281V64H72.3281ZM137.867 1.77344V0.773438H136.867V1.77344H137.867ZM154.273 1.77344H155.273V0.773438H154.273V1.77344ZM154.273 27.2031H153.273V28.3239L154.387 28.1967L154.273 27.2031ZM160.074 24.6836L159.304 24.0456L160.074 24.6836ZM164.176 15.7188L165.12 16.047L165.121 16.044L164.176 15.7188ZM171.09 3.94141L170.523 3.11736L171.09 3.94141ZM187.438 1.65625L188.437 1.65087L188.432 0.717222L187.501 0.658247L187.438 1.65625ZM187.496 12.5547V13.5547H188.501L188.496 12.5493L187.496 12.5547ZM179.176 13.7852L178.615 12.9572L178.606 12.9633L178.597 12.9697L179.176 13.7852ZM175.25 21.4609L176.199 21.7772L176.2 21.7746L175.25 21.4609ZM166.988 32.0664L166.642 31.1284L163.74 32.2007L166.72 33.0298L166.988 32.0664ZM180.172 45.6016L179.268 46.0301L179.273 46.0395L179.277 46.0488L180.172 45.6016ZM180.816 46.832L181.698 46.3597L181.694 46.3532L180.816 46.832ZM190.016 64V65H191.686L190.897 63.5277L190.016 64ZM172.32 64L171.41 64.4149L171.677 65H172.32V64ZM164.117 46.0117L165.027 45.5968L165.025 45.592L164.117 46.0117ZM159.723 39.0391L159.066 39.7931L159.079 39.8044L159.092 39.8152L159.723 39.0391ZM154.273 37.457V36.457H153.273V37.457H154.273ZM154.273 64V65H155.273V64H154.273ZM137.867 64H136.867V65H137.867V64ZM137.867 2.77344H154.273V0.773438H137.867V2.77344ZM153.273 1.77344V27.2031H155.273V1.77344H153.273ZM154.387 28.1967C157.241 27.8705 159.476 26.973 160.844 25.3216L159.304 24.0456C158.407 25.1286 156.775 25.9108 154.16 26.2096L154.387 28.1967ZM160.844 25.3216C161.495 24.5357 162.164 23.3516 162.859 21.833C163.56 20.3001 164.314 18.3687 165.12 16.047L163.231 15.3905C162.436 17.6782 161.706 19.5456 161.04 21.0009C160.367 22.4707 159.786 23.4643 159.304 24.0456L160.844 25.3216ZM165.121 16.044C167.225 9.92761 169.445 6.28544 171.656 4.76545L170.523 3.11736C167.734 5.03487 165.345 9.24426 163.23 15.3935L165.121 16.044ZM171.656 4.76545C173.942 3.1943 177.006 2.36328 180.934 2.36328V0.363281C176.736 0.363281 173.238 1.25101 170.523 3.11736L171.656 4.76545ZM180.934 2.36328C182.148 2.36328 184.288 2.4589 187.374 2.65425L187.501 0.658247C184.415 0.462973 182.219 0.363281 180.934 0.363281V2.36328ZM186.438 1.66163L186.496 12.5601L188.496 12.5493L188.437 1.65087L186.438 1.66163ZM187.496 11.5547C185.303 11.5547 183.472 11.6581 182.018 11.8731C180.594 12.0836 179.413 12.4166 178.615 12.9572L179.737 14.6131C180.15 14.3334 180.96 14.0512 182.31 13.8515C183.63 13.6564 185.354 13.5547 187.496 13.5547V11.5547ZM178.597 12.9697C177.787 13.5446 177.067 14.5809 176.396 15.8933C175.709 17.2361 175.012 18.9935 174.3 21.1473L176.2 21.7746C176.894 19.6706 177.555 18.0197 178.176 16.804C178.814 15.5577 179.354 14.8851 179.755 14.6007L178.597 12.9697ZM174.301 21.1447C172.427 26.7664 169.819 29.9543 166.642 31.1284L167.335 33.0044C171.345 31.5223 174.244 27.6399 176.199 21.7772L174.301 21.1447ZM166.72 33.0298C171.512 34.3628 175.73 38.569 179.268 46.0301L181.075 45.1731C177.426 37.4779 172.855 32.6606 167.256 31.103L166.72 33.0298ZM179.277 46.0488C179.479 46.4512 179.699 46.872 179.939 47.3109L181.694 46.3532C181.465 45.9327 181.256 45.5331 181.066 45.1544L179.277 46.0488ZM179.935 47.3043L189.134 64.4723L190.897 63.5277L181.698 46.3597L179.935 47.3043ZM190.016 63H172.32V65H190.016V63ZM173.23 63.5851L165.027 45.5968L163.207 46.4266L171.41 64.4149L173.23 63.5851ZM165.025 45.592C164.174 43.7525 163.368 42.2217 162.605 41.0108C161.849 39.8119 161.102 38.8712 160.353 38.2629L159.092 39.8152C159.593 40.2225 160.204 40.9518 160.913 42.0771C161.614 43.1904 162.38 44.6382 163.21 46.4314L165.025 45.592ZM160.379 38.285C158.913 37.0081 156.818 36.457 154.273 36.457V38.457C156.572 38.457 158.11 38.9606 159.066 39.7931L160.379 38.285ZM153.273 37.457V64H155.273V37.457H153.273ZM154.273 63H137.867V65H154.273V63ZM138.867 64V1.77344H136.867V64H138.867ZM202.648 4.41016L202.171 3.53146L202.168 3.53306L202.648 4.41016ZM242.375 9.56641L241.661 10.2667L241.663 10.2689L242.375 9.56641ZM242.258 56.1484L241.544 55.4481L241.544 55.4481L242.258 56.1484ZM203 61.5391L202.553 62.4335L202.555 62.4348L203 61.5391ZM191.223 50.2305L190.342 50.705L190.344 50.7079L191.223 50.2305ZM230.07 47.0664L229.324 46.4004L229.32 46.4054L230.07 47.0664ZM230.07 18.707L229.32 19.3681L229.324 19.373L230.07 18.707ZM188.18 32.0078C188.18 26.7108 189.483 21.577 192.107 16.5949L190.338 15.6629C187.571 20.9152 186.18 26.3673 186.18 32.0078H188.18ZM192.107 16.5949C194.714 11.6459 198.385 7.88521 203.129 5.28725L202.168 3.53306C197.068 6.32573 193.122 10.3776 190.338 15.6629L192.107 16.5949ZM203.126 5.28885C207.929 2.67939 213.29 1.36719 219.23 1.36719V-0.632812C212.984 -0.632812 207.29 0.750301 202.171 3.53147L203.126 5.28885ZM219.23 1.36719C228.404 1.36719 235.853 4.34494 241.661 10.2667L243.089 8.86615C236.866 2.52225 228.885 -0.632812 219.23 -0.632812V1.36719ZM241.663 10.2689C247.477 16.1577 250.398 23.6119 250.398 32.7109H252.398C252.398 23.1381 249.305 15.1626 243.087 8.86388L241.663 10.2689ZM250.398 32.7109C250.398 41.8867 247.438 49.4403 241.544 55.4481L242.972 56.8488C249.265 50.4347 252.398 42.3633 252.398 32.7109H250.398ZM241.544 55.4481C235.691 61.4146 228.318 64.4062 219.348 64.4062V66.4062C228.815 66.4062 236.715 63.226 242.972 56.8487L241.544 55.4481ZM219.348 64.4062C213.801 64.4062 208.504 63.1541 203.445 60.6433L202.555 62.4348C207.887 65.0803 213.488 66.4062 219.348 66.4062V64.4062ZM203.447 60.6446C198.47 58.156 194.697 54.5301 192.101 49.7531L190.344 50.7079C193.139 55.8527 197.218 59.7659 202.553 62.4335L203.447 60.6446ZM192.103 49.756C189.504 44.9347 188.18 39.0326 188.18 32.0078H186.18C186.18 39.2799 187.551 45.5262 190.342 50.705L192.103 49.756ZM203.055 32.8867C203.055 39.2055 204.554 44.2056 207.703 47.7324L209.195 46.4004C206.485 43.3647 205.055 38.9117 205.055 32.8867H203.055ZM207.703 47.7324C210.818 51.2204 214.7 52.9883 219.289 52.9883V50.9883C215.285 50.9883 211.94 49.4749 209.195 46.4004L207.703 47.7324ZM219.289 52.9883C223.879 52.9883 227.744 51.2198 230.821 47.7274L229.32 46.4054C226.615 49.4755 223.293 50.9883 219.289 50.9883V52.9883ZM230.816 47.7324C233.967 44.2036 235.465 39.1626 235.465 32.7695H233.465C233.465 38.8765 232.033 43.3667 229.324 46.4004L230.816 47.7324ZM235.465 32.7695C235.465 26.525 233.963 21.5657 230.816 18.041L229.324 19.373C232.037 22.4109 233.465 26.8266 233.465 32.7695H235.465ZM230.821 18.046C227.744 14.5536 223.879 12.7852 219.289 12.7852V14.7852C223.293 14.7852 226.615 16.2979 229.32 19.3681L230.821 18.046ZM219.289 12.7852C214.7 12.7852 210.818 14.553 207.703 18.041L209.195 19.373C211.94 16.2985 215.285 14.7852 219.289 14.7852V12.7852ZM207.703 18.041C204.554 21.5678 203.055 26.5679 203.055 32.8867H205.055C205.055 26.8618 206.485 22.4088 209.195 19.373L207.703 18.041ZM259.754 1.77344V0.773438H258.754V1.77344H259.754ZM314.891 1.77344H315.891V0.773438H314.891V1.77344ZM314.891 64V65H315.891V64H314.891ZM298.484 64H297.484V65H298.484V64ZM298.484 15.1328H299.484V14.1328H298.484V15.1328ZM276.043 15.1328V14.1328H275.043V15.1328H276.043ZM273.582 58.082L274.449 58.5807L274.452 58.5756L273.582 58.082ZM248.152 64H247.152V64.8497L247.991 64.9869L248.152 64ZM248.152 51.8711V50.8711H247.152V51.8711H248.152ZM250.906 51.9883L250.974 50.9906L250.967 50.9901L250.959 50.9897L250.906 51.9883ZM258.992 49.9961L259.936 50.3276L259.938 50.3198L258.992 49.9961ZM259.754 2.77344H314.891V0.773438H259.754V2.77344ZM313.891 1.77344V64H315.891V1.77344H313.891ZM314.891 63H298.484V65H314.891V63ZM299.484 64V15.1328H297.484V64H299.484ZM298.484 14.1328H276.043V16.1328H298.484V14.1328ZM275.043 15.1328V43.082H277.043V15.1328H275.043ZM275.043 43.082C275.043 50.1737 274.214 54.9419 272.712 57.5884L274.452 58.5756C276.231 55.4409 277.043 50.2091 277.043 43.082H275.043ZM272.715 57.5833C271.129 60.3398 269.448 62.0171 267.722 62.7954L268.544 64.6186C270.802 63.6001 272.753 61.5274 274.449 58.5807L272.715 57.5833ZM267.722 62.7954C265.934 63.6018 262.911 64.0547 258.523 64.0547V66.0547C262.964 66.0547 266.348 65.6091 268.544 64.6186L267.722 62.7954ZM258.523 64.0547C255.984 64.0547 252.587 63.7124 248.314 63.0131L247.991 64.9869C252.311 65.6938 255.828 66.0547 258.523 66.0547V64.0547ZM249.152 64V51.8711H247.152V64H249.152ZM248.152 52.8711C248.471 52.8711 249.359 52.9082 250.854 52.9869L250.959 50.9897C249.485 50.9121 248.536 50.8711 248.152 50.8711V52.8711ZM250.838 52.986C252.564 53.1037 253.919 53.1641 254.891 53.1641V51.1641C253.987 51.1641 252.686 51.1073 250.974 50.9906L250.838 52.986ZM254.891 53.1641C256.1 53.1641 257.176 52.9697 258.053 52.5062C258.957 52.0284 259.597 51.2903 259.936 50.3276L258.049 49.6646C257.879 50.1472 257.582 50.4931 257.119 50.738C256.628 50.9971 255.908 51.1641 254.891 51.1641V53.1641ZM259.938 50.3198C260.241 49.4339 260.435 47.9153 260.562 45.8834C260.69 43.8129 260.754 41.0994 260.754 37.75H258.754C258.754 41.0803 258.691 43.7476 258.565 45.7592C258.438 47.8093 258.251 49.0739 258.046 49.6724L259.938 50.3198ZM260.754 37.75V1.77344H258.754V37.75H260.754ZM335.609 4.41016L335.132 3.53146L335.129 3.53306L335.609 4.41016ZM375.336 9.56641L374.622 10.2667L374.624 10.2689L375.336 9.56641ZM375.219 56.1484L374.505 55.4481L374.505 55.4481L375.219 56.1484ZM335.961 61.5391L335.514 62.4335L335.516 62.4348L335.961 61.5391ZM324.184 50.2305L323.303 50.705L323.305 50.7079L324.184 50.2305ZM363.031 47.0664L362.285 46.4004L362.281 46.4054L363.031 47.0664ZM363.031 18.707L362.281 19.3681L362.285 19.373L363.031 18.707ZM321.141 32.0078C321.141 26.7108 322.444 21.577 325.068 16.5949L323.299 15.6629C320.532 20.9152 319.141 26.3673 319.141 32.0078H321.141ZM325.068 16.5949C327.675 11.6459 331.346 7.88521 336.09 5.28725L335.129 3.53306C330.029 6.32573 326.083 10.3776 323.299 15.6629L325.068 16.5949ZM336.087 5.28885C340.89 2.67939 346.251 1.36719 352.191 1.36719V-0.632812C345.944 -0.632812 340.251 0.750301 335.132 3.53147L336.087 5.28885ZM352.191 1.36719C361.365 1.36719 368.813 4.34494 374.622 10.2667L376.05 8.86615C369.827 2.52225 361.846 -0.632812 352.191 -0.632812V1.36719ZM374.624 10.2689C380.438 16.1577 383.359 23.6119 383.359 32.7109H385.359C385.359 23.1381 382.266 15.1626 376.048 8.86388L374.624 10.2689ZM383.359 32.7109C383.359 41.8867 380.399 49.4403 374.505 55.4481L375.933 56.8488C382.226 50.4347 385.359 42.3633 385.359 32.7109H383.359ZM374.505 55.4481C368.652 61.4146 361.279 64.4062 352.309 64.4062V66.4062C361.776 66.4062 369.676 63.226 375.933 56.8487L374.505 55.4481ZM352.309 64.4062C346.762 64.4062 341.465 63.1541 336.405 60.6433L335.516 62.4348C340.847 65.0803 346.449 66.4062 352.309 66.4062V64.4062ZM336.408 60.6446C331.431 58.156 327.658 54.5301 325.062 49.7531L323.305 50.7079C326.1 55.8527 330.178 59.7659 335.514 62.4335L336.408 60.6446ZM325.064 49.756C322.465 44.9347 321.141 39.0326 321.141 32.0078H319.141C319.141 39.2799 320.512 45.5262 323.303 50.705L325.064 49.756ZM336.016 32.8867C336.016 39.2055 337.515 44.2056 340.664 47.7324L342.156 46.4004C339.446 43.3647 338.016 38.9117 338.016 32.8867H336.016ZM340.664 47.7324C343.779 51.2204 347.661 52.9883 352.25 52.9883V50.9883C348.246 50.9883 344.901 49.4749 342.156 46.4004L340.664 47.7324ZM352.25 52.9883C356.84 52.9883 360.705 51.2198 363.782 47.7274L362.281 46.4054C359.576 49.4755 356.254 50.9883 352.25 50.9883V52.9883ZM363.777 47.7324C366.928 44.2036 368.426 39.1626 368.426 32.7695H366.426C366.426 38.8765 364.994 43.3667 362.285 46.4004L363.777 47.7324ZM368.426 32.7695C368.426 26.525 366.924 21.5657 363.777 18.041L362.285 19.373C364.998 22.4109 366.426 26.8266 366.426 32.7695H368.426ZM363.782 18.046C360.705 14.5536 356.84 12.7852 352.25 12.7852V14.7852C356.254 14.7852 359.576 16.2979 362.281 19.3681L363.782 18.046ZM352.25 12.7852C347.661 12.7852 343.779 14.553 340.664 18.041L342.156 19.373C344.901 16.2985 348.246 14.7852 352.25 14.7852V12.7852ZM340.664 18.041C337.515 21.5678 336.016 26.5679 336.016 32.8867H338.016C338.016 26.8618 339.446 22.4088 342.156 19.373L340.664 18.041ZM390.664 1.77344V0.773438H389.664V1.77344H390.664ZM432.676 1.77344H433.676V0.773438H432.676V1.77344ZM432.676 15.0742V16.0742H433.676V15.0742H432.676ZM407.129 15.0742V14.0742H406.129V15.0742H407.129ZM407.129 64V65H408.129V64H407.129ZM390.664 64H389.664V65H390.664V64ZM390.664 2.77344H432.676V0.773438H390.664V2.77344ZM431.676 1.77344V15.0742H433.676V1.77344H431.676ZM432.676 14.0742H407.129V16.0742H432.676V14.0742ZM406.129 15.0742V64H408.129V15.0742H406.129ZM407.129 63H390.664V65H407.129V63ZM391.664 64V1.77344H389.664V64H391.664ZM434.938 1.77344V0.773438H433.938V1.77344H434.938ZM450.758 1.77344H451.758V0.773438H450.758V1.77344ZM450.758 40.8555H449.758V44.239L451.597 41.3991L450.758 40.8555ZM476.07 1.77344V0.773438H475.527L475.231 1.22982L476.07 1.77344ZM492.242 1.77344H493.242V0.773438H492.242V1.77344ZM492.242 64V65H493.242V64H492.242ZM476.422 64H475.422V65H476.422V64ZM476.422 24.2148H477.422V20.8198L475.582 23.6728L476.422 24.2148ZM450.758 64V65H451.303L451.598 64.5421L450.758 64ZM434.938 64H433.938V65H434.938V64ZM434.938 2.77344H450.758V0.773438H434.938V2.77344ZM449.758 1.77344V40.8555H451.758V1.77344H449.758ZM451.597 41.3991L476.91 2.31705L475.231 1.22982L449.918 40.3119L451.597 41.3991ZM476.07 2.77344H492.242V0.773438H476.07V2.77344ZM491.242 1.77344V64H493.242V1.77344H491.242ZM492.242 63H476.422V65H492.242V63ZM477.422 64V24.2148H475.422V64H477.422ZM475.582 23.6728L449.917 63.4579L451.598 64.5421L477.262 24.7569L475.582 23.6728ZM450.758 63H434.938V65H450.758V63ZM435.938 64V1.77344H433.938V64H435.938ZM556.496 1.77344H557.496V0.773438H556.496V1.77344ZM556.496 64V65H557.496V64H556.496ZM540.148 64H539.148V65H540.148V64ZM540.148 38.1602H541.148V37.1602H540.148V38.1602ZM530.773 39.5664L531.254 40.4435L531.261 40.4396L530.773 39.5664ZM525.266 45.3672L526.043 45.9964L526.068 45.9651L526.091 45.9319L525.266 45.3672ZM524.27 46.5977L523.492 45.9685L523.453 46.0165L523.421 46.0689L524.27 46.5977ZM513.43 64V65H513.985L514.279 64.5287L513.43 64ZM494.27 64L493.432 63.4535L492.423 65H494.27V64ZM506.047 45.9531L506.884 46.4996L506.885 46.499L506.047 45.9531ZM515.188 37.0469L515.462 38.0084L515.247 36.0486L515.188 37.0469ZM503.938 31.832L503.187 32.4925L503.195 32.502L503.938 31.832ZM502.473 9.15625L501.642 8.5989L501.637 8.60684L502.473 9.15625ZM510.031 3.35547L510.34 4.30653L510.347 4.30415L510.031 3.35547ZM540.148 12.3789H541.148V11.3789H540.148V12.3789ZM519.23 14.2539L519.798 15.0774L519.804 15.0732L519.81 15.0689L519.23 14.2539ZM540.148 28.375V29.375H541.148V28.375H540.148ZM555.496 1.77344V64H557.496V1.77344H555.496ZM556.496 63H540.148V65H556.496V63ZM541.148 64V38.1602H539.148V64H541.148ZM540.148 37.1602H538.625V39.1602H540.148V37.1602ZM538.625 37.1602C535.022 37.1602 532.194 37.6284 530.286 38.6932L531.261 40.4396C532.712 39.6294 535.119 39.1602 538.625 39.1602V37.1602ZM530.293 38.6893C528.438 39.7051 526.493 41.8026 524.44 44.8025L526.091 45.9319C528.101 42.9942 529.827 41.2246 531.254 40.4435L530.293 38.6893ZM524.488 44.738L523.492 45.9685L525.047 47.2269L526.043 45.9964L524.488 44.738ZM523.421 46.0689L512.581 63.4713L514.279 64.5287L525.118 47.1264L523.421 46.0689ZM513.43 63H494.27V65H513.43V63ZM495.107 64.5465L506.884 46.4996L505.209 45.4066L493.432 63.4535L495.107 64.5465ZM506.885 46.499C508.54 43.9578 510.096 41.9913 511.549 40.5756C513.008 39.154 514.314 38.3365 515.462 38.0084L514.913 36.0854C513.327 36.5385 511.742 37.596 510.154 39.1431C508.56 40.6962 506.913 42.7922 505.209 45.4072L506.885 46.499ZM515.247 36.0486C510.879 35.7895 507.382 34.1558 504.68 31.1621L503.195 32.502C506.275 35.9146 510.277 37.7573 515.128 38.0451L515.247 36.0486ZM504.688 31.1716C502.022 28.1404 500.66 24.2664 500.66 19.4688H498.66C498.66 24.6711 500.149 29.0393 503.187 32.4925L504.688 31.1716ZM500.66 19.4688C500.66 15.605 501.559 12.3667 503.308 9.70566L501.637 8.60684C499.637 11.649 498.66 15.2857 498.66 19.4688H500.66ZM503.303 9.71357C505.098 7.03885 507.438 5.24964 510.34 4.3065L509.722 2.40443C506.374 3.49255 503.675 5.57053 501.642 8.59893L503.303 9.71357ZM510.347 4.30415C513.356 3.30117 517.914 2.77344 524.094 2.77344V0.773438C517.851 0.773438 513.034 1.30039 509.715 2.40679L510.347 4.30415ZM524.094 2.77344H556.496V0.773438H524.094V2.77344ZM540.148 11.3789H528.371V13.3789H540.148V11.3789ZM528.371 11.3789C524.002 11.3789 520.679 11.9966 518.651 13.4389L519.81 15.0689C521.297 14.0112 524.069 13.3789 528.371 13.3789V11.3789ZM518.663 13.4304C516.548 14.8877 515.594 17.2888 515.594 20.3477H517.594C517.594 17.7034 518.398 16.042 519.798 15.0774L518.663 13.4304ZM515.594 20.3477C515.594 23.4587 516.702 25.8733 519.051 27.3471L520.114 25.6529C518.478 24.6267 517.594 22.9397 517.594 20.3477H515.594ZM519.051 27.3471C521.292 28.7533 524.794 29.375 529.367 29.375V27.375C524.878 27.375 521.857 26.7467 520.114 25.6529L519.051 27.3471ZM529.367 29.375H540.148V27.375H529.367V29.375ZM541.148 28.375V12.3789H539.148V28.375H541.148Z" fill="white"/>
<path d="M16.2734 128.41L15.796 127.531L15.7931 127.533L16.2734 128.41ZM56 133.566L55.2861 134.267L55.2883 134.269L56 133.566ZM55.8828 180.148L55.169 179.448L55.169 179.448L55.8828 180.148ZM16.625 185.539L16.1778 186.433L16.1805 186.435L16.625 185.539ZM4.84766 174.23L3.9674 174.705L3.96897 174.708L4.84766 174.23ZM43.6953 171.066L42.9494 170.4L42.945 170.405L43.6953 171.066ZM43.6953 142.707L42.9449 143.368L42.9494 143.373L43.6953 142.707ZM1.80469 156.008C1.80469 150.711 3.1083 145.577 5.73243 140.595L3.96288 139.663C1.19638 144.915 -0.195312 150.367 -0.195312 156.008H1.80469ZM5.73243 140.595C8.33919 135.646 12.0096 131.885 16.7538 129.287L15.7931 127.533C10.6935 130.326 6.74675 134.378 3.96288 139.663L5.73243 140.595ZM16.7508 129.289C21.5537 126.679 26.9149 125.367 32.8555 125.367V123.367C26.6086 123.367 20.915 124.75 15.796 127.531L16.7508 129.289ZM32.8555 125.367C42.0294 125.367 49.4775 128.345 55.2861 134.267L56.7139 132.866C50.4912 126.522 42.5097 123.367 32.8555 123.367V125.367ZM55.2883 134.269C61.1017 140.158 64.0234 147.612 64.0234 156.711H66.0234C66.0234 147.138 62.9296 139.163 56.7117 132.864L55.2883 134.269ZM64.0234 156.711C64.0234 165.887 61.0634 173.44 55.169 179.448L56.5966 180.849C62.8897 174.435 66.0234 166.363 66.0234 156.711H64.0234ZM55.169 179.448C49.3157 185.415 41.9426 188.406 32.9727 188.406V190.406C42.4402 190.406 50.3405 187.226 56.5967 180.849L55.169 179.448ZM32.9727 188.406C27.4264 188.406 22.1291 187.154 17.0695 184.643L16.1805 186.435C21.5115 189.08 27.1126 190.406 32.9727 190.406V188.406ZM17.0722 184.645C12.095 182.156 8.32174 178.53 5.72634 173.753L3.96897 174.708C6.7642 179.853 10.8425 183.766 16.1778 186.433L17.0722 184.645ZM5.72791 173.756C3.12896 168.935 1.80469 163.033 1.80469 156.008H-0.195312C-0.195312 163.28 1.17573 169.526 3.96741 174.705L5.72791 173.756ZM16.6797 156.887C16.6797 163.206 18.1794 168.206 21.3283 171.732L22.8202 170.4C20.1097 167.365 18.6797 162.912 18.6797 156.887H16.6797ZM21.3283 171.732C24.4426 175.22 28.3247 176.988 32.9141 176.988V174.988C28.9097 174.988 25.5653 173.475 22.8202 170.4L21.3283 171.732ZM32.9141 176.988C37.5039 176.988 41.3691 175.22 44.4457 171.727L42.945 170.405C40.2403 173.476 36.918 174.988 32.9141 174.988V176.988ZM44.4412 171.732C47.592 168.204 49.0898 163.163 49.0898 156.77H47.0898C47.0898 162.876 45.658 167.367 42.9494 170.4L44.4412 171.732ZM49.0898 156.77C49.0898 150.525 47.5883 145.566 44.4412 142.041L42.9494 143.373C45.6617 146.411 47.0898 150.827 47.0898 156.77H49.0898ZM44.4457 142.046C41.3691 138.554 37.5039 136.785 32.9141 136.785V138.785C36.918 138.785 40.2403 140.298 42.945 143.368L44.4457 142.046ZM32.9141 136.785C28.3247 136.785 24.4426 138.553 21.3283 142.041L22.8202 143.373C25.5653 140.299 28.9097 138.785 32.9141 138.785V136.785ZM21.3283 142.041C18.1794 145.568 16.6797 150.568 16.6797 156.887H18.6797C18.6797 150.862 20.1097 146.409 22.8202 143.373L21.3283 142.041ZM71.3281 125.773V124.773H70.3281V125.773H71.3281ZM87.793 125.773H88.793V124.773H87.793V125.773ZM87.793 148.566H86.793V149.566H87.793V148.566ZM111.348 148.566V149.566H112.348V148.566H111.348ZM111.348 125.773V124.773H110.348V125.773H111.348ZM127.871 125.773H128.871V124.773H127.871V125.773ZM127.871 188V189H128.871V188H127.871ZM111.348 188H110.348V189H111.348V188ZM111.348 161.867H112.348V160.867H111.348V161.867ZM87.793 161.867V160.867H86.793V161.867H87.793ZM87.793 188V189H88.793V188H87.793ZM71.3281 188H70.3281V189H71.3281V188ZM71.3281 126.773H87.793V124.773H71.3281V126.773ZM86.793 125.773V148.566H88.793V125.773H86.793ZM87.793 149.566H111.348V147.566H87.793V149.566ZM112.348 148.566V125.773H110.348V148.566H112.348ZM111.348 126.773H127.871V124.773H111.348V126.773ZM126.871 125.773V188H128.871V125.773H126.871ZM127.871 187H111.348V189H127.871V187ZM112.348 188V161.867H110.348V188H112.348ZM111.348 160.867H87.793V162.867H111.348V160.867ZM86.793 161.867V188H88.793V161.867H86.793ZM87.793 187H71.3281V189H87.793V187ZM72.3281 188V125.773H70.3281V188H72.3281ZM137.867 125.773V124.773H136.867V125.773H137.867ZM154.273 125.773H155.273V124.773H154.273V125.773ZM154.273 151.203H153.273V152.324L154.387 152.197L154.273 151.203ZM160.074 148.684L159.304 148.046L160.074 148.684ZM164.176 139.719L165.12 140.047L165.121 140.044L164.176 139.719ZM171.09 127.941L170.523 127.117L171.09 127.941ZM187.438 125.656L188.437 125.651L188.432 124.717L187.501 124.658L187.438 125.656ZM187.496 136.555V137.555H188.501L188.496 136.549L187.496 136.555ZM179.176 137.785L178.615 136.957L178.606 136.963L178.597 136.97L179.176 137.785ZM175.25 145.461L176.199 145.777L176.2 145.775L175.25 145.461ZM166.988 156.066L166.642 155.128L163.74 156.201L166.72 157.03L166.988 156.066ZM180.172 169.602L179.268 170.03L179.273 170.039L179.277 170.049L180.172 169.602ZM180.816 170.832L181.698 170.36L181.694 170.353L180.816 170.832ZM190.016 188V189H191.686L190.897 187.528L190.016 188ZM172.32 188L171.41 188.415L171.677 189H172.32V188ZM164.117 170.012L165.027 169.597L165.025 169.592L164.117 170.012ZM159.723 163.039L159.066 163.793L159.079 163.804L159.092 163.815L159.723 163.039ZM154.273 161.457V160.457H153.273V161.457H154.273ZM154.273 188V189H155.273V188H154.273ZM137.867 188H136.867V189H137.867V188ZM137.867 126.773H154.273V124.773H137.867V126.773ZM153.273 125.773V151.203H155.273V125.773H153.273ZM154.387 152.197C157.241 151.87 159.476 150.973 160.844 149.322L159.304 148.046C158.407 149.129 156.775 149.911 154.16 150.21L154.387 152.197ZM160.844 149.322C161.495 148.536 162.164 147.352 162.859 145.833C163.56 144.3 164.314 142.369 165.12 140.047L163.231 139.391C162.436 141.678 161.706 143.546 161.04 145.001C160.367 146.471 159.786 147.464 159.304 148.046L160.844 149.322ZM165.121 140.044C167.225 133.928 169.445 130.285 171.656 128.765L170.523 127.117C167.734 129.035 165.345 133.244 163.23 139.394L165.121 140.044ZM171.656 128.765C173.942 127.194 177.006 126.363 180.934 126.363V124.363C176.736 124.363 173.238 125.251 170.523 127.117L171.656 128.765ZM180.934 126.363C182.148 126.363 184.288 126.459 187.374 126.654L187.501 124.658C184.415 124.463 182.219 124.363 180.934 124.363V126.363ZM186.438 125.662L186.496 136.56L188.496 136.549L188.437 125.651L186.438 125.662ZM187.496 135.555C185.303 135.555 183.472 135.658 182.018 135.873C180.594 136.084 179.413 136.417 178.615 136.957L179.737 138.613C180.15 138.333 180.96 138.051 182.31 137.852C183.63 137.656 185.354 137.555 187.496 137.555V135.555ZM178.597 136.97C177.787 137.545 177.067 138.581 176.396 139.893C175.709 141.236 175.012 142.993 174.3 145.147L176.2 145.775C176.894 143.671 177.555 142.02 178.176 140.804C178.814 139.558 179.354 138.885 179.755 138.601L178.597 136.97ZM174.301 145.145C172.427 150.766 169.819 153.954 166.642 155.128L167.335 157.004C171.345 155.522 174.244 151.64 176.199 145.777L174.301 145.145ZM166.72 157.03C171.512 158.363 175.73 162.569 179.268 170.03L181.075 169.173C177.426 161.478 172.855 156.661 167.256 155.103L166.72 157.03ZM179.277 170.049C179.479 170.451 179.699 170.872 179.939 171.311L181.694 170.353C181.465 169.933 181.256 169.533 181.066 169.154L179.277 170.049ZM179.935 171.304L189.134 188.472L190.897 187.528L181.698 170.36L179.935 171.304ZM190.016 187H172.32V189H190.016V187ZM173.23 187.585L165.027 169.597L163.207 170.427L171.41 188.415L173.23 187.585ZM165.025 169.592C164.174 167.752 163.368 166.222 162.605 165.011C161.849 163.812 161.102 162.871 160.353 162.263L159.092 163.815C159.593 164.223 160.204 164.952 160.913 166.077C161.614 167.19 162.38 168.638 163.21 170.431L165.025 169.592ZM160.379 162.285C158.913 161.008 156.818 160.457 154.273 160.457V162.457C156.572 162.457 158.11 162.961 159.066 163.793L160.379 162.285ZM153.273 161.457V188H155.273V161.457H153.273ZM154.273 187H137.867V189H154.273V187ZM138.867 188V125.773H136.867V188H138.867ZM202.648 128.41L202.171 127.531L202.168 127.533L202.648 128.41ZM242.375 133.566L241.661 134.267L241.663 134.269L242.375 133.566ZM242.258 180.148L241.544 179.448L241.544 179.448L242.258 180.148ZM203 185.539L202.553 186.433L202.555 186.435L203 185.539ZM191.223 174.23L190.342 174.705L190.344 174.708L191.223 174.23ZM230.07 171.066L229.324 170.4L229.32 170.405L230.07 171.066ZM230.07 142.707L229.32 143.368L229.324 143.373L230.07 142.707ZM188.18 156.008C188.18 150.711 189.483 145.577 192.107 140.595L190.338 139.663C187.571 144.915 186.18 150.367 186.18 156.008H188.18ZM192.107 140.595C194.714 135.646 198.385 131.885 203.129 129.287L202.168 127.533C197.068 130.326 193.122 134.378 190.338 139.663L192.107 140.595ZM203.126 129.289C207.929 126.679 213.29 125.367 219.23 125.367V123.367C212.984 123.367 207.29 124.75 202.171 127.531L203.126 129.289ZM219.23 125.367C228.404 125.367 235.853 128.345 241.661 134.267L243.089 132.866C236.866 126.522 228.885 123.367 219.23 123.367V125.367ZM241.663 134.269C247.477 140.158 250.398 147.612 250.398 156.711H252.398C252.398 147.138 249.305 139.163 243.087 132.864L241.663 134.269ZM250.398 156.711C250.398 165.887 247.438 173.44 241.544 179.448L242.972 180.849C249.265 174.435 252.398 166.363 252.398 156.711H250.398ZM241.544 179.448C235.691 185.415 228.318 188.406 219.348 188.406V190.406C228.815 190.406 236.715 187.226 242.972 180.849L241.544 179.448ZM219.348 188.406C213.801 188.406 208.504 187.154 203.445 184.643L202.555 186.435C207.887 189.08 213.488 190.406 219.348 190.406V188.406ZM203.447 184.645C198.47 182.156 194.697 178.53 192.101 173.753L190.344 174.708C193.139 179.853 197.218 183.766 202.553 186.433L203.447 184.645ZM192.103 173.756C189.504 168.935 188.18 163.033 188.18 156.008H186.18C186.18 163.28 187.551 169.526 190.342 174.705L192.103 173.756ZM203.055 156.887C203.055 163.206 204.554 168.206 207.703 171.732L209.195 170.4C206.485 167.365 205.055 162.912 205.055 156.887H203.055ZM207.703 171.732C210.818 175.22 214.7 176.988 219.289 176.988V174.988C215.285 174.988 211.94 173.475 209.195 170.4L207.703 171.732ZM219.289 176.988C223.879 176.988 227.744 175.22 230.821 171.727L229.32 170.405C226.615 173.476 223.293 174.988 219.289 174.988V176.988ZM230.816 171.732C233.967 168.204 235.465 163.163 235.465 156.77H233.465C233.465 162.876 232.033 167.367 229.324 170.4L230.816 171.732ZM235.465 156.77C235.465 150.525 233.963 145.566 230.816 142.041L229.324 143.373C232.037 146.411 233.465 150.827 233.465 156.77H235.465ZM230.821 142.046C227.744 138.554 223.879 136.785 219.289 136.785V138.785C223.293 138.785 226.615 140.298 229.32 143.368L230.821 142.046ZM219.289 136.785C214.7 136.785 210.818 138.553 207.703 142.041L209.195 143.373C211.94 140.299 215.285 138.785 219.289 138.785V136.785ZM207.703 142.041C204.554 145.568 203.055 150.568 203.055 156.887H205.055C205.055 150.862 206.485 146.409 209.195 143.373L207.703 142.041ZM259.754 125.773V124.773H258.754V125.773H259.754ZM314.891 125.773H315.891V124.773H314.891V125.773ZM314.891 188V189H315.891V188H314.891ZM298.484 188H297.484V189H298.484V188ZM298.484 139.133H299.484V138.133H298.484V139.133ZM276.043 139.133V138.133H275.043V139.133H276.043ZM273.582 182.082L274.449 182.581L274.452 182.576L273.582 182.082ZM248.152 188H247.152V188.85L247.991 188.987L248.152 188ZM248.152 175.871V174.871H247.152V175.871H248.152ZM250.906 175.988L250.974 174.991L250.967 174.99L250.959 174.99L250.906 175.988ZM258.992 173.996L259.936 174.328L259.938 174.32L258.992 173.996ZM259.754 126.773H314.891V124.773H259.754V126.773ZM313.891 125.773V188H315.891V125.773H313.891ZM314.891 187H298.484V189H314.891V187ZM299.484 188V139.133H297.484V188H299.484ZM298.484 138.133H276.043V140.133H298.484V138.133ZM275.043 139.133V167.082H277.043V139.133H275.043ZM275.043 167.082C275.043 174.174 274.214 178.942 272.712 181.588L274.452 182.576C276.231 179.441 277.043 174.209 277.043 167.082H275.043ZM272.715 181.583C271.129 184.34 269.448 186.017 267.722 186.795L268.544 188.619C270.802 187.6 272.753 185.527 274.449 182.581L272.715 181.583ZM267.722 186.795C265.934 187.602 262.911 188.055 258.523 188.055V190.055C262.964 190.055 266.348 189.609 268.544 188.619L267.722 186.795ZM258.523 188.055C255.984 188.055 252.587 187.712 248.314 187.013L247.991 188.987C252.311 189.694 255.828 190.055 258.523 190.055V188.055ZM249.152 188V175.871H247.152V188H249.152ZM248.152 176.871C248.471 176.871 249.359 176.908 250.854 176.987L250.959 174.99C249.485 174.912 248.536 174.871 248.152 174.871V176.871ZM250.838 176.986C252.564 177.104 253.919 177.164 254.891 177.164V175.164C253.987 175.164 252.686 175.107 250.974 174.991L250.838 176.986ZM254.891 177.164C256.1 177.164 257.176 176.97 258.053 176.506C258.957 176.028 259.597 175.29 259.936 174.328L258.049 173.665C257.879 174.147 257.582 174.493 257.119 174.738C256.628 174.997 255.908 175.164 254.891 175.164V177.164ZM259.938 174.32C260.241 173.434 260.435 171.915 260.562 169.883C260.69 167.813 260.754 165.099 260.754 161.75H258.754C258.754 165.08 258.691 167.748 258.565 169.759C258.438 171.809 258.251 173.074 258.046 173.672L259.938 174.32ZM260.754 161.75V125.773H258.754V161.75H260.754ZM335.609 128.41L335.132 127.531L335.129 127.533L335.609 128.41ZM375.336 133.566L374.622 134.267L374.624 134.269L375.336 133.566ZM375.219 180.148L374.505 179.448L374.505 179.448L375.219 180.148ZM335.961 185.539L335.514 186.433L335.516 186.435L335.961 185.539ZM324.184 174.23L323.303 174.705L323.305 174.708L324.184 174.23ZM363.031 171.066L362.285 170.4L362.281 170.405L363.031 171.066ZM363.031 142.707L362.281 143.368L362.285 143.373L363.031 142.707ZM321.141 156.008C321.141 150.711 322.444 145.577 325.068 140.595L323.299 139.663C320.532 144.915 319.141 150.367 319.141 156.008H321.141ZM325.068 140.595C327.675 135.646 331.346 131.885 336.09 129.287L335.129 127.533C330.029 130.326 326.083 134.378 323.299 139.663L325.068 140.595ZM336.087 129.289C340.89 126.679 346.251 125.367 352.191 125.367V123.367C345.944 123.367 340.251 124.75 335.132 127.531L336.087 129.289ZM352.191 125.367C361.365 125.367 368.813 128.345 374.622 134.267L376.05 132.866C369.827 126.522 361.846 123.367 352.191 123.367V125.367ZM374.624 134.269C380.438 140.158 383.359 147.612 383.359 156.711H385.359C385.359 147.138 382.266 139.163 376.048 132.864L374.624 134.269ZM383.359 156.711C383.359 165.887 380.399 173.44 374.505 179.448L375.933 180.849C382.226 174.435 385.359 166.363 385.359 156.711H383.359ZM374.505 179.448C368.652 185.415 361.279 188.406 352.309 188.406V190.406C361.776 190.406 369.676 187.226 375.933 180.849L374.505 179.448ZM352.309 188.406C346.762 188.406 341.465 187.154 336.405 184.643L335.516 186.435C340.847 189.08 346.449 190.406 352.309 190.406V188.406ZM336.408 184.645C331.431 182.156 327.658 178.53 325.062 173.753L323.305 174.708C326.1 179.853 330.178 183.766 335.514 186.433L336.408 184.645ZM325.064 173.756C322.465 168.935 321.141 163.033 321.141 156.008H319.141C319.141 163.28 320.512 169.526 323.303 174.705L325.064 173.756ZM336.016 156.887C336.016 163.206 337.515 168.206 340.664 171.732L342.156 170.4C339.446 167.365 338.016 162.912 338.016 156.887H336.016ZM340.664 171.732C343.779 175.22 347.661 176.988 352.25 176.988V174.988C348.246 174.988 344.901 173.475 342.156 170.4L340.664 171.732ZM352.25 176.988C356.84 176.988 360.705 175.22 363.782 171.727L362.281 170.405C359.576 173.476 356.254 174.988 352.25 174.988V176.988ZM363.777 171.732C366.928 168.204 368.426 163.163 368.426 156.77H366.426C366.426 162.876 364.994 167.367 362.285 170.4L363.777 171.732ZM368.426 156.77C368.426 150.525 366.924 145.566 363.777 142.041L362.285 143.373C364.998 146.411 366.426 150.827 366.426 156.77H368.426ZM363.782 142.046C360.705 138.554 356.84 136.785 352.25 136.785V138.785C356.254 138.785 359.576 140.298 362.281 143.368L363.782 142.046ZM352.25 136.785C347.661 136.785 343.779 138.553 340.664 142.041L342.156 143.373C344.901 140.299 348.246 138.785 352.25 138.785V136.785ZM340.664 142.041C337.515 145.568 336.016 150.568 336.016 156.887H338.016C338.016 150.862 339.446 146.409 342.156 143.373L340.664 142.041ZM390.664 125.773V124.773H389.664V125.773H390.664ZM432.676 125.773H433.676V124.773H432.676V125.773ZM432.676 139.074V140.074H433.676V139.074H432.676ZM407.129 139.074V138.074H406.129V139.074H407.129ZM407.129 188V189H408.129V188H407.129ZM390.664 188H389.664V189H390.664V188ZM390.664 126.773H432.676V124.773H390.664V126.773ZM431.676 125.773V139.074H433.676V125.773H431.676ZM432.676 138.074H407.129V140.074H432.676V138.074ZM406.129 139.074V188H408.129V139.074H406.129ZM407.129 187H390.664V189H407.129V187ZM391.664 188V125.773H389.664V188H391.664ZM434.938 125.773V124.773H433.938V125.773H434.938ZM450.758 125.773H451.758V124.773H450.758V125.773ZM450.758 164.855H449.758V168.239L451.597 165.399L450.758 164.855ZM476.07 125.773V124.773H475.527L475.231 125.23L476.07 125.773ZM492.242 125.773H493.242V124.773H492.242V125.773ZM492.242 188V189H493.242V188H492.242ZM476.422 188H475.422V189H476.422V188ZM476.422 148.215H477.422V144.82L475.582 147.673L476.422 148.215ZM450.758 188V189H451.303L451.598 188.542L450.758 188ZM434.938 188H433.938V189H434.938V188ZM434.938 126.773H450.758V124.773H434.938V126.773ZM449.758 125.773V164.855H451.758V125.773H449.758ZM451.597 165.399L476.91 126.317L475.231 125.23L449.918 164.312L451.597 165.399ZM476.07 126.773H492.242V124.773H476.07V126.773ZM491.242 125.773V188H493.242V125.773H491.242ZM492.242 187H476.422V189H492.242V187ZM477.422 188V148.215H475.422V188H477.422ZM475.582 147.673L449.917 187.458L451.598 188.542L477.262 148.757L475.582 147.673ZM450.758 187H434.938V189H450.758V187ZM435.938 188V125.773H433.938V188H435.938ZM556.496 125.773H557.496V124.773H556.496V125.773ZM556.496 188V189H557.496V188H556.496ZM540.148 188H539.148V189H540.148V188ZM540.148 162.16H541.148V161.16H540.148V162.16ZM530.773 163.566L531.254 164.444L531.261 164.44L530.773 163.566ZM525.266 169.367L526.043 169.996L526.068 169.965L526.091 169.932L525.266 169.367ZM524.27 170.598L523.492 169.968L523.453 170.016L523.421 170.069L524.27 170.598ZM513.43 188V189H513.985L514.279 188.529L513.43 188ZM494.27 188L493.432 187.453L492.423 189H494.27V188ZM506.047 169.953L506.884 170.5L506.885 170.499L506.047 169.953ZM515.188 161.047L515.462 162.008L515.247 160.049L515.188 161.047ZM503.938 155.832L503.187 156.493L503.195 156.502L503.938 155.832ZM502.473 133.156L501.642 132.599L501.637 132.607L502.473 133.156ZM510.031 127.355L510.34 128.307L510.347 128.304L510.031 127.355ZM540.148 136.379H541.148V135.379H540.148V136.379ZM519.23 138.254L519.798 139.077L519.804 139.073L519.81 139.069L519.23 138.254ZM540.148 152.375V153.375H541.148V152.375H540.148ZM555.496 125.773V188H557.496V125.773H555.496ZM556.496 187H540.148V189H556.496V187ZM541.148 188V162.16H539.148V188H541.148ZM540.148 161.16H538.625V163.16H540.148V161.16ZM538.625 161.16C535.022 161.16 532.194 161.628 530.286 162.693L531.261 164.44C532.712 163.629 535.119 163.16 538.625 163.16V161.16ZM530.293 162.689C528.438 163.705 526.493 165.803 524.44 168.803L526.091 169.932C528.101 166.994 529.827 165.225 531.254 164.444L530.293 162.689ZM524.488 168.738L523.492 169.968L525.047 171.227L526.043 169.996L524.488 168.738ZM523.421 170.069L512.581 187.471L514.279 188.529L525.118 171.126L523.421 170.069ZM513.43 187H494.27V189H513.43V187ZM495.107 188.547L506.884 170.5L505.209 169.407L493.432 187.453L495.107 188.547ZM506.885 170.499C508.54 167.958 510.096 165.991 511.549 164.576C513.008 163.154 514.314 162.337 515.462 162.008L514.913 160.085C513.327 160.538 511.742 161.596 510.154 163.143C508.56 164.696 506.913 166.792 505.209 169.407L506.885 170.499ZM515.247 160.049C510.879 159.79 507.382 158.156 504.68 155.162L503.195 156.502C506.275 159.915 510.277 161.757 515.128 162.045L515.247 160.049ZM504.688 155.172C502.022 152.14 500.66 148.266 500.66 143.469H498.66C498.66 148.671 500.149 153.039 503.187 156.492L504.688 155.172ZM500.66 143.469C500.66 139.605 501.559 136.367 503.308 133.706L501.637 132.607C499.637 135.649 498.66 139.286 498.66 143.469H500.66ZM503.303 133.714C505.098 131.039 507.438 129.25 510.34 128.307L509.722 126.404C506.374 127.493 503.675 129.571 501.642 132.599L503.303 133.714ZM510.347 128.304C513.356 127.301 517.914 126.773 524.094 126.773V124.773C517.851 124.773 513.034 125.3 509.715 126.407L510.347 128.304ZM524.094 126.773H556.496V124.773H524.094V126.773ZM540.148 135.379H528.371V137.379H540.148V135.379ZM528.371 135.379C524.002 135.379 520.679 135.997 518.651 137.439L519.81 139.069C521.297 138.011 524.069 137.379 528.371 137.379V135.379ZM518.663 137.43C516.548 138.888 515.594 141.289 515.594 144.348H517.594C517.594 141.703 518.398 140.042 519.798 139.077L518.663 137.43ZM515.594 144.348C515.594 147.459 516.702 149.873 519.051 151.347L520.114 149.653C518.478 148.627 517.594 146.94 517.594 144.348H515.594ZM519.051 151.347C521.292 152.753 524.794 153.375 529.367 153.375V151.375C524.878 151.375 521.857 150.747 520.114 149.653L519.051 151.347ZM529.367 153.375H540.148V151.375H529.367V153.375ZM541.148 152.375V136.379H539.148V152.375H541.148Z" fill="white"/>
</svg>
