<svg width="251" height="57" viewBox="0 0 251 57" fill="none" xmlns="http://www.w3.org/2000/svg">
<path d="M0.162109 41.6035C0.162109 39.1426 0.768555 36.7607 1.98145 34.458C3.19434 32.1553 4.9082 30.3975 7.12305 29.1846C9.35547 27.9717 11.8428 27.3652 14.585 27.3652C18.8213 27.3652 22.293 28.7451 25 31.5049C27.707 34.2471 29.0605 37.7188 29.0605 41.9199C29.0605 46.1562 27.6895 49.6719 24.9473 52.4668C22.2227 55.2441 18.7861 56.6328 14.6377 56.6328C12.0713 56.6328 9.61914 56.0527 7.28125 54.8926C4.96094 53.7324 3.19434 52.0361 1.98145 49.8037C0.768555 47.5537 0.162109 44.8203 0.162109 41.6035ZM7.75586 41.999C7.75586 44.7764 8.41504 46.9033 9.7334 48.3799C11.0518 49.8564 12.6777 50.5947 14.6113 50.5947C16.5449 50.5947 18.1621 49.8564 19.4629 48.3799C20.7812 46.9033 21.4404 44.7588 21.4404 41.9463C21.4404 39.2041 20.7812 37.0947 19.4629 35.6182C18.1621 34.1416 16.5449 33.4033 14.6113 33.4033C12.6777 33.4033 11.0518 34.1416 9.7334 35.6182C8.41504 37.0947 7.75586 39.2217 7.75586 41.999ZM31.8977 27.998H39.3068V38.2549H49.9064V27.998H57.342V56H49.9064V44.2402H39.3068V56H31.8977V27.998ZM61.8402 27.998H69.223V39.4414C70.4535 39.3008 71.3236 38.9229 71.8334 38.3076C72.3432 37.6924 72.9584 36.3477 73.6791 34.2734C74.6283 31.5137 75.6654 29.7471 76.7904 28.9736C77.9154 28.2002 79.392 27.8135 81.2201 27.8135C81.7826 27.8135 82.7582 27.8574 84.1469 27.9453L84.1732 32.8496C82.2221 32.8496 80.974 33.0342 80.4291 33.4033C79.8842 33.79 79.2953 34.9414 78.6625 36.8574C77.8012 39.4414 76.5619 41.0322 74.9447 41.6299C77.2826 42.2803 79.2602 44.3105 80.8773 47.7207C80.9652 47.8965 81.0619 48.0811 81.1674 48.2744L85.307 56H77.3441L73.6527 47.9053C72.8969 46.2705 72.2377 45.2246 71.6752 44.7676C71.1303 44.293 70.3129 44.0557 69.223 44.0557V56H61.8402V27.998ZM84.0309 41.6035C84.0309 39.1426 84.6373 36.7607 85.8502 34.458C87.0631 32.1553 88.777 30.3975 90.9918 29.1846C93.2242 27.9717 95.7115 27.3652 98.4537 27.3652C102.69 27.3652 106.162 28.7451 108.869 31.5049C111.576 34.2471 112.929 37.7188 112.929 41.9199C112.929 46.1562 111.558 49.6719 108.816 52.4668C106.091 55.2441 102.655 56.6328 98.5064 56.6328C95.94 56.6328 93.4879 56.0527 91.15 54.8926C88.8297 53.7324 87.0631 52.0361 85.8502 49.8037C84.6373 47.5537 84.0309 44.8203 84.0309 41.6035ZM91.6246 41.999C91.6246 44.7764 92.2838 46.9033 93.6021 48.3799C94.9205 49.8564 96.5465 50.5947 98.4801 50.5947C100.414 50.5947 102.031 49.8564 103.332 48.3799C104.65 46.9033 105.309 44.7588 105.309 41.9463C105.309 39.2041 104.65 37.0947 103.332 35.6182C102.031 34.1416 100.414 33.4033 98.4801 33.4033C96.5465 33.4033 94.9205 34.1416 93.6021 35.6182C92.2838 37.0947 91.6246 39.2217 91.6246 41.999ZM116.689 27.998H141.501V56H134.118V34.0098H124.019V46.5869C124.019 49.7861 123.65 52.0361 122.912 53.3369C122.174 54.6201 121.356 55.4639 120.46 55.8682C119.563 56.2725 118.122 56.4746 116.136 56.4746C114.958 56.4746 113.402 56.3164 111.469 56V50.542C111.627 50.542 112.04 50.5596 112.708 50.5947C113.481 50.6475 114.079 50.6738 114.501 50.6738C115.503 50.6738 116.118 50.3486 116.346 49.6982C116.575 49.0303 116.689 47.1934 116.689 44.1875V27.998ZM143.863 41.6035C143.863 39.1426 144.47 36.7607 145.683 34.458C146.896 32.1553 148.609 30.3975 150.824 29.1846C153.057 27.9717 155.544 27.3652 158.286 27.3652C162.522 27.3652 165.994 28.7451 168.701 31.5049C171.408 34.2471 172.762 37.7188 172.762 41.9199C172.762 46.1562 171.391 49.6719 168.648 52.4668C165.924 55.2441 162.487 56.6328 158.339 56.6328C155.772 56.6328 153.32 56.0527 150.982 54.8926C148.662 53.7324 146.896 52.0361 145.683 49.8037C144.47 47.5537 143.863 44.8203 143.863 41.6035ZM151.457 41.999C151.457 44.7764 152.116 46.9033 153.435 48.3799C154.753 49.8564 156.379 50.5947 158.312 50.5947C160.246 50.5947 161.863 49.8564 163.164 48.3799C164.482 46.9033 165.142 44.7588 165.142 41.9463C165.142 39.2041 164.482 37.0947 163.164 35.6182C161.863 34.1416 160.246 33.4033 158.312 33.4033C156.379 33.4033 154.753 34.1416 153.435 35.6182C152.116 37.0947 151.457 39.2217 151.457 41.999ZM175.599 27.998H194.504V33.9834H183.008V56H175.599V27.998ZM195.522 27.998H202.641V45.585L214.032 27.998H221.309V56H214.19V38.0967L202.641 56H195.522V27.998ZM250.223 27.998V56H242.867V44.3721H242.181C240.582 44.3721 239.404 44.583 238.648 45.0049C237.91 45.4092 237.084 46.2793 236.17 47.6152L235.721 48.1689L230.843 56H222.221L227.521 47.8789C229.033 45.5586 230.404 44.2227 231.634 43.8711C229.56 43.748 227.873 42.9658 226.572 41.5244C225.289 40.0654 224.647 38.2109 224.647 35.9609C224.647 34.1504 225.069 32.6035 225.913 31.3203C226.774 30.0371 227.908 29.167 229.314 28.71C230.738 28.2354 232.847 27.998 235.642 27.998H250.223ZM242.867 32.7705H237.567C235.616 32.7705 234.245 33.0518 233.454 33.6143C232.663 34.1592 232.267 35.0732 232.267 36.3564C232.267 37.6396 232.715 38.5625 233.612 39.125C234.508 39.6875 235.976 39.9688 238.015 39.9688H242.867V32.7705Z" fill="white"/>
<path d="M7.12305 2.18457L6.64565 1.30588L6.64273 1.30747L7.12305 2.18457ZM25 4.50488L24.2861 5.20514L24.2883 5.20741L25 4.50488ZM24.9473 25.4668L24.2335 24.7665L24.2334 24.7665L24.9473 25.4668ZM7.28125 27.8926L6.83403 28.787L6.83673 28.7883L7.28125 27.8926ZM1.98145 22.8037L1.10119 23.2782L1.10276 23.2811L1.98145 22.8037ZM19.4629 21.3799L18.7169 20.7139L18.7125 20.7189L19.4629 21.3799ZM19.4629 8.61816L18.7125 9.27921L18.717 9.28418L19.4629 8.61816ZM1.16211 14.6035C1.16211 12.3143 1.72452 10.0916 2.86622 7.92403L1.09667 6.99198C-0.187406 9.42987 -0.837891 11.9708 -0.837891 14.6035H1.16211ZM2.86622 7.92403C3.99055 5.78942 5.56629 4.17721 7.60336 3.06167L6.64273 1.30747C4.25012 2.61772 2.39812 4.52112 1.09667 6.99198L2.86622 7.92403ZM7.60044 3.06326C9.67484 1.93622 11.9959 1.36523 14.585 1.36523V-0.634766C11.6896 -0.634766 9.0361 0.0071373 6.64565 1.30588L7.60044 3.06326ZM14.585 1.36523C18.5811 1.36523 21.7861 2.65646 24.2861 5.20514L25.7139 3.80463C22.7998 0.833773 19.0615 -0.634766 14.585 -0.634766V1.36523ZM24.2883 5.20741C26.7931 7.74466 28.0605 10.9556 28.0605 14.9199H30.0605C30.0605 10.4819 28.621 6.74948 25.7117 3.80235L24.2883 5.20741ZM28.0605 14.9199C28.0605 18.9179 26.7763 22.1747 24.2335 24.7665L25.6611 26.1671C28.6026 23.169 30.0605 19.3946 30.0605 14.9199H28.0605ZM24.2334 24.7665C21.7103 27.3385 18.5374 28.6328 14.6377 28.6328V30.6328C19.0349 30.6328 22.735 29.1498 25.6611 26.1671L24.2334 24.7665ZM14.6377 28.6328C12.2282 28.6328 9.92793 28.0896 7.72577 26.9968L6.83673 28.7883C9.31035 30.0159 11.9144 30.6328 14.6377 30.6328V28.6328ZM7.72846 26.9981C5.58715 25.9275 3.9731 24.3748 2.86013 22.3263L1.10276 23.2811C2.41557 25.6974 4.33472 27.5373 6.83404 28.787L7.72846 26.9981ZM2.8617 22.3292C1.74517 20.258 1.16211 17.6966 1.16211 14.6035H-0.837891C-0.837891 17.944 -0.208058 20.8495 1.1012 23.2782L2.8617 22.3292ZM6.75586 14.999C6.75586 17.9233 7.44987 20.3238 8.98746 22.0459L10.4793 20.7139C9.38021 19.4828 8.75586 17.6294 8.75586 14.999H6.75586ZM8.98746 22.0459C10.4904 23.7292 12.3852 24.5947 14.6113 24.5947V22.5947C12.9702 22.5947 11.6131 21.9837 10.4793 20.7139L8.98746 22.0459ZM14.6113 24.5947C16.8379 24.5947 18.7265 23.7286 20.2132 22.0409L18.7125 20.7189C17.5977 21.9843 16.252 22.5947 14.6113 22.5947V24.5947ZM20.2088 22.0459C21.7482 20.3218 22.4404 17.9018 22.4404 14.9463H20.4404C20.4404 17.6157 19.8143 19.4849 18.717 20.7139L20.2088 22.0459ZM22.4404 14.9463C22.4404 12.0533 21.7446 9.67216 20.2088 7.95215L18.717 9.28418C19.8179 10.5173 20.4404 12.3549 20.4404 14.9463H22.4404ZM20.2132 7.95713C18.7265 6.26944 16.8379 5.40332 14.6113 5.40332V7.40332C16.252 7.40332 17.5977 8.01376 18.7125 9.27919L20.2132 7.95713ZM14.6113 5.40332C12.3852 5.40332 10.4904 6.26885 8.98746 7.95215L10.4793 9.28418C11.6131 8.01436 12.9702 7.40332 14.6113 7.40332V5.40332ZM8.98746 7.95215C7.44987 9.67425 6.75586 12.0748 6.75586 14.999H8.75586C8.75586 12.3686 9.38021 10.5152 10.4793 9.28418L8.98746 7.95215ZM31.8977 0.998047V-0.00195312H30.8977V0.998047H31.8977ZM39.3068 0.998047H40.3068V-0.00195312H39.3068V0.998047ZM39.3068 11.2549H38.3068V12.2549H39.3068V11.2549ZM49.9064 11.2549V12.2549H50.9064V11.2549H49.9064ZM49.9064 0.998047V-0.00195312H48.9064V0.998047H49.9064ZM57.342 0.998047H58.342V-0.00195312H57.342V0.998047ZM57.342 29V30H58.342V29H57.342ZM49.9064 29H48.9064V30H49.9064V29ZM49.9064 17.2402H50.9064V16.2402H49.9064V17.2402ZM39.3068 17.2402V16.2402H38.3068V17.2402H39.3068ZM39.3068 29V30H40.3068V29H39.3068ZM31.8977 29H30.8977V30H31.8977V29ZM31.8977 1.99805H39.3068V-0.00195312H31.8977V1.99805ZM38.3068 0.998047V11.2549H40.3068V0.998047H38.3068ZM39.3068 12.2549H49.9064V10.2549H39.3068V12.2549ZM50.9064 11.2549V0.998047H48.9064V11.2549H50.9064ZM49.9064 1.99805H57.342V-0.00195312H49.9064V1.99805ZM56.342 0.998047V29H58.342V0.998047H56.342ZM57.342 28H49.9064V30H57.342V28ZM50.9064 29V17.2402H48.9064V29H50.9064ZM49.9064 16.2402H39.3068V18.2402H49.9064V16.2402ZM38.3068 17.2402V29H40.3068V17.2402H38.3068ZM39.3068 28H31.8977V30H39.3068V28ZM32.8977 29V0.998047H30.8977V29H32.8977ZM61.8402 0.998047V-0.00195312H60.8402V0.998047H61.8402ZM69.223 0.998047H70.223V-0.00195312H69.223V0.998047ZM69.223 12.4414H68.223V13.5622L69.3366 13.4349L69.223 12.4414ZM71.8334 11.3076L71.0634 10.6696L71.8334 11.3076ZM73.6791 7.27344L74.6237 7.60165L74.6247 7.59869L73.6791 7.27344ZM76.7904 1.97363L76.2239 1.14959L76.7904 1.97363ZM84.1469 0.945312L85.1469 0.939936L85.1418 0.00628471L84.21 -0.0526905L84.1469 0.945312ZM84.1732 5.84961V6.84961H85.1786L85.1732 5.84423L84.1732 5.84961ZM80.4291 6.40332L79.8683 5.5754L79.8592 5.58151L79.8503 5.58781L80.4291 6.40332ZM78.6625 9.85742L79.6112 10.1737L79.6121 10.171L78.6625 9.85742ZM74.9447 14.6299L74.5981 13.6919L71.6965 14.7642L74.6767 15.5933L74.9447 14.6299ZM80.8773 20.7207L79.9738 21.1492L79.9783 21.1586L79.9829 21.1679L80.8773 20.7207ZM81.1674 21.2744L82.0488 20.8021L82.0453 20.7956L81.1674 21.2744ZM85.307 29V30H86.9774L86.1885 28.5277L85.307 29ZM77.3441 29L76.4343 29.4149L76.7011 30H77.3441V29ZM73.6527 20.9053L74.5626 20.4903L74.5604 20.4856L73.6527 20.9053ZM71.6752 17.7676L71.0184 18.5217L71.0313 18.5329L71.0446 18.5437L71.6752 17.7676ZM69.223 17.0557V16.0557H68.223V17.0557H69.223ZM69.223 29V30H70.223V29H69.223ZM61.8402 29H60.8402V30H61.8402V29ZM61.8402 1.99805H69.223V-0.00195312H61.8402V1.99805ZM68.223 0.998047V12.4414H70.223V0.998047H68.223ZM69.3366 13.4349C70.6868 13.2806 71.8582 12.8451 72.6034 11.9456L71.0634 10.6696C70.7891 11.0006 70.2202 11.3209 69.1095 11.4479L69.3366 13.4349ZM72.6034 11.9456C72.9431 11.5357 73.2677 10.9504 73.5865 10.2537C73.9119 9.54249 74.2574 8.65578 74.6237 7.60165L72.7345 6.94523C72.3801 7.96531 72.0577 8.78807 71.7678 9.42161C71.4713 10.0696 71.2335 10.4643 71.0634 10.6696L72.6034 11.9456ZM74.6247 7.59869C75.5683 4.85535 76.5211 3.37235 77.357 2.79767L76.2239 1.14959C74.8098 2.12179 73.6883 4.172 72.7335 6.94819L74.6247 7.59869ZM77.357 2.79767C78.2673 2.17184 79.5269 1.81348 81.2201 1.81348V-0.186523C79.257 -0.186523 77.5636 0.22855 76.2239 1.14959L77.357 2.79767ZM81.2201 1.81348C81.7475 1.81348 82.6944 1.85539 84.0837 1.94332L84.21 -0.0526905C82.822 -0.140543 81.8178 -0.186523 81.2201 -0.186523V1.81348ZM83.1469 0.950689L83.1733 5.85499L85.1732 5.84423L85.1469 0.939936L83.1469 0.950689ZM84.1732 4.84961C83.1721 4.84961 82.3186 4.89659 81.6275 4.9988C80.9669 5.09649 80.3333 5.26037 79.8683 5.5754L80.9899 7.23124C81.0698 7.17713 81.3327 7.06415 81.9201 6.97728C82.4771 6.89491 83.2233 6.84961 84.1732 6.84961V4.84961ZM79.8503 5.58781C79.3732 5.92642 78.9998 6.4928 78.6884 7.10153C78.3615 7.74075 78.0376 8.56085 77.7129 9.54381L79.6121 10.171C79.9202 9.23798 80.2071 8.52439 80.4691 8.01224C80.7466 7.4696 80.9401 7.26694 81.0079 7.21883L79.8503 5.58781ZM77.7138 9.54119C76.8927 12.0047 75.7985 13.2482 74.5981 13.6919L75.2914 15.5679C77.3253 14.8162 78.7097 12.8781 79.6112 10.1736L77.7138 9.54119ZM74.6767 15.5933C76.6109 16.1314 78.4121 17.8561 79.9738 21.1492L81.7809 20.2922C80.1082 16.765 77.9543 14.4292 75.2127 13.6665L74.6767 15.5933ZM79.9829 21.1679C80.0767 21.3555 80.179 21.5507 80.2895 21.7533L82.0453 20.7956C81.9448 20.6114 81.8538 20.4375 81.7718 20.2735L79.9829 21.1679ZM80.2859 21.7467L84.4256 29.4723L86.1885 28.5277L82.0488 20.8021L80.2859 21.7467ZM85.307 28H77.3441V30H85.307V28ZM78.254 28.5851L74.5626 20.4904L72.7429 21.3202L76.4343 29.4149L78.254 28.5851ZM74.5604 20.4856C74.1718 19.645 73.7978 18.9333 73.4374 18.3616C73.0847 17.8019 72.7107 17.3204 72.3058 16.9915L71.0446 18.5437C71.2022 18.6717 71.439 18.9418 71.7455 19.428C72.0443 19.9021 72.3778 20.5307 72.7451 21.325L74.5604 20.4856ZM72.332 17.0135C71.532 16.3167 70.4357 16.0557 69.223 16.0557V18.0557C70.19 18.0557 70.7285 18.2692 71.0184 18.5217L72.332 17.0135ZM68.223 17.0557V29H70.223V17.0557H68.223ZM69.223 28H61.8402V30H69.223V28ZM62.8402 29V0.998047H60.8402V29H62.8402ZM90.9918 2.18457L90.5144 1.30588L90.5115 1.30747L90.9918 2.18457ZM108.869 4.50488L108.155 5.20514L108.157 5.20741L108.869 4.50488ZM108.816 25.4668L108.102 24.7665L108.102 24.7665L108.816 25.4668ZM91.15 27.8926L90.7028 28.787L90.7055 28.7883L91.15 27.8926ZM85.8502 22.8037L84.9699 23.2782L84.9715 23.2811L85.8502 22.8037ZM103.332 21.3799L102.586 20.7139L102.581 20.7189L103.332 21.3799ZM103.332 8.61816L102.581 9.27921L102.586 9.28418L103.332 8.61816ZM85.0309 14.6035C85.0309 12.3143 85.5933 10.0916 86.735 7.92403L84.9654 6.99198C83.6813 9.42987 83.0309 11.9708 83.0309 14.6035H85.0309ZM86.735 7.92403C87.8593 5.78942 89.435 4.17721 91.4721 3.06167L90.5115 1.30747C88.1189 2.61772 86.2669 4.52112 84.9654 6.99198L86.735 7.92403ZM91.4692 3.06326C93.5436 1.93622 95.8647 1.36523 98.4537 1.36523V-0.634766C95.5584 -0.634766 92.9048 0.0071373 90.5144 1.30588L91.4692 3.06326ZM98.4537 1.36523C102.45 1.36523 105.655 2.65646 108.155 5.20514L109.583 3.80463C106.669 0.833773 102.93 -0.634766 98.4537 -0.634766V1.36523ZM108.157 5.20741C110.662 7.74466 111.929 10.9556 111.929 14.9199H113.929C113.929 10.4819 112.49 6.74948 109.58 3.80235L108.157 5.20741ZM111.929 14.9199C111.929 18.9179 110.645 22.1747 108.102 24.7665L109.53 26.1671C112.471 23.169 113.929 19.3946 113.929 14.9199H111.929ZM108.102 24.7665C105.579 27.3385 102.406 28.6328 98.5064 28.6328V30.6328C102.904 30.6328 106.604 29.1498 109.53 26.1671L108.102 24.7665ZM98.5064 28.6328C96.097 28.6328 93.7967 28.0896 91.5945 26.9968L90.7055 28.7883C93.1791 30.0159 95.7831 30.6328 98.5064 30.6328V28.6328ZM91.5972 26.9981C89.4559 25.9275 87.8419 24.3748 86.7289 22.3263L84.9715 23.2811C86.2843 25.6974 88.2035 27.5373 90.7028 28.787L91.5972 26.9981ZM86.7304 22.3292C85.6139 20.258 85.0309 17.6966 85.0309 14.6035H83.0309C83.0309 17.944 83.6607 20.8495 84.9699 23.2782L86.7304 22.3292ZM90.6246 14.999C90.6246 17.9233 91.3186 20.3238 92.8562 22.0459L94.3481 20.7139C93.249 19.4828 92.6246 17.6294 92.6246 14.999H90.6246ZM92.8562 22.0459C94.3592 23.7292 96.254 24.5947 98.4801 24.5947V22.5947C96.839 22.5947 95.4819 21.9837 94.3481 20.7139L92.8562 22.0459ZM98.4801 24.5947C100.707 24.5947 102.595 23.7286 104.082 22.0409L102.581 20.7189C101.466 21.9843 100.121 22.5947 98.4801 22.5947V24.5947ZM104.078 22.0459C105.617 20.3218 106.309 17.9018 106.309 14.9463H104.309C104.309 17.6157 103.683 19.4849 102.586 20.7139L104.078 22.0459ZM106.309 14.9463C106.309 12.0533 105.613 9.67216 104.078 7.95215L102.586 9.28418C103.687 10.5173 104.309 12.3549 104.309 14.9463H106.309ZM104.082 7.95713C102.595 6.26944 100.707 5.40332 98.4801 5.40332V7.40332C100.121 7.40332 101.466 8.01376 102.581 9.27919L104.082 7.95713ZM98.4801 5.40332C96.254 5.40332 94.3592 6.26885 92.8562 7.95215L94.3481 9.28418C95.4819 8.01436 96.839 7.40332 98.4801 7.40332V5.40332ZM92.8562 7.95215C91.3186 9.67425 90.6246 12.0748 90.6246 14.999H92.6246C92.6246 12.3686 93.249 10.5152 94.3481 9.28418L92.8562 7.95215ZM116.689 0.998047V-0.00195312H115.689V0.998047H116.689ZM141.501 0.998047H142.501V-0.00195312H141.501V0.998047ZM141.501 29V30H142.501V29H141.501ZM134.118 29H133.118V30H134.118V29ZM134.118 7.00977H135.118V6.00977H134.118V7.00977ZM124.019 7.00977V6.00977H123.019V7.00977H124.019ZM122.912 26.3369L123.779 26.8356L123.782 26.8305L122.912 26.3369ZM111.469 29H110.469V29.8497L111.307 29.9869L111.469 29ZM111.469 23.542V22.542H110.469V23.542H111.469ZM112.708 23.5947L112.776 22.597L112.768 22.5965L112.76 22.5961L112.708 23.5947ZM116.346 22.6982L117.29 23.0297L117.293 23.0219L116.346 22.6982ZM116.689 1.99805H141.501V-0.00195312H116.689V1.99805ZM140.501 0.998047V29H142.501V0.998047H140.501ZM141.501 28H134.118V30H141.501V28ZM135.118 29V7.00977H133.118V29H135.118ZM134.118 6.00977H124.019V8.00977H134.118V6.00977ZM123.019 7.00977V19.5869H125.019V7.00977H123.019ZM123.019 19.5869C123.019 22.7684 122.642 24.7867 122.042 25.8433L123.782 26.8305C124.658 25.2856 125.019 22.8039 125.019 19.5869H123.019ZM122.045 25.8382C121.362 27.0263 120.679 27.6723 120.049 27.9566L120.871 29.7798C122.034 29.2554 122.986 28.2139 123.779 26.8356L122.045 25.8382ZM120.049 27.9566C119.356 28.2688 118.096 28.4746 116.136 28.4746V30.4746C118.148 30.4746 119.77 30.2761 120.871 29.7798L120.049 27.9566ZM116.136 28.4746C115.036 28.4746 113.54 28.3257 111.63 28.0131L111.307 29.9869C113.264 30.3071 114.88 30.4746 116.136 30.4746V28.4746ZM112.469 29V23.542H110.469V29H112.469ZM111.469 24.542C111.594 24.542 111.976 24.5576 112.655 24.5933L112.76 22.5961C112.103 22.5615 111.659 22.542 111.469 22.542V24.542ZM112.64 24.5924C113.421 24.6456 114.045 24.6738 114.501 24.6738V22.6738C114.113 22.6738 113.542 22.6493 112.776 22.597L112.64 24.5924ZM114.501 24.6738C115.098 24.6738 115.68 24.5788 116.181 24.314C116.709 24.035 117.091 23.595 117.29 23.0297L115.403 22.3668C115.373 22.4519 115.334 22.4997 115.246 22.5458C115.132 22.6062 114.906 22.6738 114.501 22.6738V24.6738ZM117.293 23.0219C117.456 22.5442 117.545 21.791 117.602 20.8817C117.661 19.9338 117.689 18.7 117.689 17.1875H115.689C115.689 18.6809 115.661 19.8685 115.605 20.7575C115.548 21.6851 115.465 22.1843 115.4 22.3746L117.293 23.0219ZM117.689 17.1875V0.998047H115.689V17.1875H117.689ZM150.824 2.18457L150.347 1.30588L150.344 1.30747L150.824 2.18457ZM168.701 4.50488L167.987 5.20514L167.99 5.20741L168.701 4.50488ZM168.648 25.4668L167.935 24.7665L167.935 24.7665L168.648 25.4668ZM150.982 27.8926L150.535 28.787L150.538 28.7883L150.982 27.8926ZM145.683 22.8037L144.802 23.2782L144.804 23.2811L145.683 22.8037ZM163.164 21.3799L162.418 20.7139L162.414 20.7189L163.164 21.3799ZM163.164 8.61816L162.414 9.27921L162.418 9.28418L163.164 8.61816ZM144.863 14.6035C144.863 12.3143 145.426 10.0916 146.567 7.92403L144.798 6.99198C143.514 9.42987 142.863 11.9708 142.863 14.6035H144.863ZM146.567 7.92403C147.692 5.78942 149.267 4.17721 151.305 3.06167L150.344 1.30747C147.951 2.61772 146.099 4.52112 144.798 6.99198L146.567 7.92403ZM151.302 3.06326C153.376 1.93622 155.697 1.36523 158.286 1.36523V-0.634766C155.391 -0.634766 152.737 0.0071373 150.347 1.30588L151.302 3.06326ZM158.286 1.36523C162.282 1.36523 165.487 2.65646 167.987 5.20514L169.415 3.80463C166.501 0.833773 162.763 -0.634766 158.286 -0.634766V1.36523ZM167.99 5.20741C170.494 7.74466 171.762 10.9556 171.762 14.9199H173.762C173.762 10.4819 172.322 6.74948 169.413 3.80235L167.99 5.20741ZM171.762 14.9199C171.762 18.9179 170.477 22.1747 167.935 24.7665L169.362 26.1671C172.304 23.169 173.762 19.3946 173.762 14.9199H171.762ZM167.935 24.7665C165.411 27.3385 162.239 28.6328 158.339 28.6328V30.6328C162.736 30.6328 166.436 29.1498 169.362 26.1671L167.935 24.7665ZM158.339 28.6328C155.929 28.6328 153.629 28.0896 151.427 26.9968L150.538 28.7883C153.012 30.0159 155.616 30.6328 158.339 30.6328V28.6328ZM151.43 26.9981C149.288 25.9275 147.674 24.3748 146.561 22.3263L144.804 23.2811C146.117 25.6974 148.036 27.5373 150.535 28.787L151.43 26.9981ZM146.563 22.3292C145.446 20.258 144.863 17.6966 144.863 14.6035H142.863C142.863 17.944 143.493 20.8495 144.802 23.2782L146.563 22.3292ZM150.457 14.999C150.457 17.9233 151.151 20.3238 152.689 22.0459L154.181 20.7139C153.081 19.4828 152.457 17.6294 152.457 14.999H150.457ZM152.689 22.0459C154.192 23.7292 156.086 24.5947 158.312 24.5947V22.5947C156.671 22.5947 155.314 21.9837 154.181 20.7139L152.689 22.0459ZM158.312 24.5947C160.539 24.5947 162.428 23.7286 163.914 22.0409L162.414 20.7189C161.299 21.9843 159.953 22.5947 158.312 22.5947V24.5947ZM163.91 22.0459C165.449 20.3218 166.142 17.9018 166.142 14.9463H164.142C164.142 17.6157 163.515 19.4849 162.418 20.7139L163.91 22.0459ZM166.142 14.9463C166.142 12.0533 165.446 9.67216 163.91 7.95215L162.418 9.28418C163.519 10.5173 164.142 12.3549 164.142 14.9463H166.142ZM163.914 7.95713C162.428 6.26944 160.539 5.40332 158.312 5.40332V7.40332C159.953 7.40332 161.299 8.01376 162.414 9.27919L163.914 7.95713ZM158.312 5.40332C156.086 5.40332 154.192 6.26885 152.689 7.95215L154.181 9.28418C155.314 8.01436 156.671 7.40332 158.312 7.40332V5.40332ZM152.689 7.95215C151.151 9.67425 150.457 12.0748 150.457 14.999H152.457C152.457 12.3686 153.081 10.5152 154.181 9.28418L152.689 7.95215ZM175.599 0.998047V-0.00195312H174.599V0.998047H175.599ZM194.504 0.998047H195.504V-0.00195312H194.504V0.998047ZM194.504 6.9834V7.9834H195.504V6.9834H194.504ZM183.008 6.9834V5.9834H182.008V6.9834H183.008ZM183.008 29V30H184.008V29H183.008ZM175.599 29H174.599V30H175.599V29ZM175.599 1.99805H194.504V-0.00195312H175.599V1.99805ZM193.504 0.998047V6.9834H195.504V0.998047H193.504ZM194.504 5.9834H183.008V7.9834H194.504V5.9834ZM182.008 6.9834V29H184.008V6.9834H182.008ZM183.008 28H175.599V30H183.008V28ZM176.599 29V0.998047H174.599V29H176.599ZM195.522 0.998047V-0.00195312H194.522V0.998047H195.522ZM202.641 0.998047H203.641V-0.00195312H202.641V0.998047ZM202.641 18.585H201.641V21.9685L203.48 19.1286L202.641 18.585ZM214.032 0.998047V-0.00195312H213.488L213.192 0.45443L214.032 0.998047ZM221.309 0.998047H222.309V-0.00195312H221.309V0.998047ZM221.309 29V30H222.309V29H221.309ZM214.19 29H213.19V30H214.19V29ZM214.19 11.0967H215.19V7.70167L213.35 10.5546L214.19 11.0967ZM202.641 29V30H203.186L203.481 29.5421L202.641 29ZM195.522 29H194.522V30H195.522V29ZM195.522 1.99805H202.641V-0.00195312H195.522V1.99805ZM201.641 0.998047V18.585H203.641V0.998047H201.641ZM203.48 19.1286L214.871 1.54166L213.192 0.45443L201.802 18.0413L203.48 19.1286ZM214.032 1.99805H221.309V-0.00195312H214.032V1.99805ZM220.309 0.998047V29H222.309V0.998047H220.309ZM221.309 28H214.19V30H221.309V28ZM215.19 29V11.0967H213.19V29H215.19ZM213.35 10.5546L201.801 28.4579L203.481 29.5421L215.03 11.6388L213.35 10.5546ZM202.641 28H195.522V30H202.641V28ZM196.522 29V0.998047H194.522V29H196.522ZM250.223 0.998047H251.223V-0.00195312H250.223V0.998047ZM250.223 29V30H251.223V29H250.223ZM242.867 29H241.867V30H242.867V29ZM242.867 17.3721H243.867V16.3721H242.867V17.3721ZM238.648 18.0049L239.128 18.882L239.135 18.8781L238.648 18.0049ZM236.17 20.6152L236.947 21.2444L236.972 21.2131L236.995 21.1799L236.17 20.6152ZM235.721 21.1689L234.944 20.5397L234.905 20.5878L234.872 20.6402L235.721 21.1689ZM230.843 29V30H231.399L231.692 29.5287L230.843 29ZM222.221 29L221.384 28.4535L220.375 30H222.221V29ZM227.521 20.8789L228.359 21.4254L228.359 21.4248L227.521 20.8789ZM231.634 16.8711L231.909 17.8326L231.694 15.8728L231.634 16.8711ZM226.572 14.5244L225.821 15.1849L225.829 15.1944L226.572 14.5244ZM225.913 4.32031L225.082 3.76296L225.077 3.77091L225.913 4.32031ZM229.314 1.70996L229.623 2.66102L229.63 2.65864L229.314 1.70996ZM242.867 5.77051H243.867V4.77051H242.867V5.77051ZM233.454 6.61426L234.021 7.43777L234.027 7.43353L234.033 7.42921L233.454 6.61426ZM242.867 12.9688V13.9688H243.867V12.9688H242.867ZM249.223 0.998047V29H251.223V0.998047H249.223ZM250.223 28H242.867V30H250.223V28ZM243.867 29V17.3721H241.867V29H243.867ZM242.867 16.3721H242.181V18.3721H242.867V16.3721ZM242.181 16.3721C240.533 16.3721 239.145 16.5825 238.161 17.1317L239.135 18.8781C239.663 18.5835 240.63 18.3721 242.181 18.3721V16.3721ZM238.168 17.1278C237.215 17.6494 236.28 18.6835 235.344 20.0505L236.995 21.1799C237.888 19.8751 238.604 19.1689 239.128 18.882L238.168 17.1278ZM235.392 19.986L234.944 20.5397L236.499 21.7981L236.947 21.2444L235.392 19.986ZM234.872 20.6402L229.995 28.4713L231.692 29.5287L236.57 21.6977L234.872 20.6402ZM230.843 28H222.221V30H230.843V28ZM223.059 29.5465L228.359 21.4254L226.684 20.3324L221.384 28.4535L223.059 29.5465ZM228.359 21.4248C229.091 20.3016 229.766 19.4522 230.381 18.8529C231.002 18.2477 231.513 17.9459 231.909 17.8326L231.36 15.9096C230.526 16.1479 229.735 16.6898 228.985 17.4205C228.229 18.1571 227.463 19.1359 226.683 20.333L228.359 21.4248ZM231.694 15.8728C229.861 15.7641 228.426 15.0864 227.314 13.8545L225.829 15.1944C227.319 16.8452 229.259 17.732 231.575 17.8693L231.694 15.8728ZM227.323 13.864C226.225 12.616 225.647 11.0086 225.647 8.96094H223.647C223.647 11.4133 224.352 13.5149 225.821 15.1848L227.323 13.864ZM225.647 8.96094C225.647 7.31005 226.03 5.96237 226.748 4.86972L225.077 3.77091C224.108 5.24467 223.647 6.99073 223.647 8.96094H225.647ZM226.743 4.87763C227.486 3.77127 228.44 3.04554 229.623 2.661L229.005 0.758926C227.376 1.28845 226.062 2.30295 225.082 3.76299L226.743 4.87763ZM229.63 2.65864C230.899 2.23574 232.879 1.99805 235.642 1.99805V-0.00195312C232.816 -0.00195312 230.577 0.234962 228.998 0.761278L229.63 2.65864ZM235.642 1.99805H250.223V-0.00195312H235.642V1.99805ZM242.867 4.77051H237.567V6.77051H242.867V4.77051ZM237.567 4.77051C235.582 4.77051 233.936 5.04447 232.874 5.7993L234.033 7.42921C234.554 7.05905 235.649 6.77051 237.567 6.77051V4.77051ZM232.886 5.79075C231.738 6.58205 231.267 7.86591 231.267 9.35645H233.267C233.267 8.28058 233.588 7.73631 234.021 7.43777L232.886 5.79075ZM231.267 9.35645C231.267 10.8991 231.827 12.1858 233.08 12.9721L234.143 11.2779C233.604 10.9392 233.267 10.3802 233.267 9.35645H231.267ZM233.08 12.9721C234.226 13.6908 235.934 13.9688 238.015 13.9688V11.9688C236.018 11.9688 234.791 11.6842 234.143 11.2779L233.08 12.9721ZM238.015 13.9688H242.867V11.9688H238.015V13.9688ZM243.867 12.9688V5.77051H241.867V12.9688H243.867Z" fill="white"/>
</svg>
