<svg width="50" height="36" viewBox="0 0 50 36" fill="none" xmlns="http://www.w3.org/2000/svg">
<g id="logo 1" clip-path="url(#clip0_2216_5303)">
<g id="Group">
<path id="Vector" d="M0 0H50V36H0V0Z" fill="#DBEC30"/>
<path id="Vector_2" d="M8.15659 26.7211C8.08083 26.4168 7.90406 25.783 7.02022 25.783C6.48992 25.783 5.70709 26.1633 5.70709 27.6337C5.70709 28.5718 6.11113 29.4338 7.02022 29.4338C7.62628 29.4338 8.03032 29.0788 8.15659 28.4197H9.24244C9.04042 29.5605 8.28285 30.3464 6.99497 30.3464C5.63133 30.3464 4.64648 29.4084 4.64648 27.6084C4.64648 25.783 5.68184 24.8704 7.02022 24.8704C8.56063 24.8704 9.19194 25.9352 9.24244 26.7211H8.15659ZM10.5556 27.8112L11.8182 26.3661H13.0556L11.7172 27.8366L13.1061 30.2197H11.894L10.9849 28.5718L10.5556 29.0028V30.2197H9.54547V26.3661H10.5556V27.8112ZM16.7677 28.2676C16.7677 29.6619 15.8334 30.2957 14.8233 30.2957C13.7879 30.2957 12.8536 29.6619 12.8536 28.2676C12.8536 26.8732 13.7879 26.2394 14.8233 26.2394C15.8334 26.2647 16.7677 26.8985 16.7677 28.2676ZM13.8889 28.2676C13.8889 28.7746 14.0404 29.4591 14.8233 29.4591C15.6061 29.4591 15.7323 28.7746 15.7323 28.2929C15.7323 27.7859 15.5808 27.1267 14.8233 27.1267C14.0404 27.1014 13.8889 27.7859 13.8889 28.2676Z" fill="#666666"/>
<path id="Vector_3" d="M20.5552 26.3663V30.2198H19.5451V27.1775H18.4592V28.3691C18.4592 29.8395 18.0299 30.3212 17.3229 30.3212C17.1461 30.3212 16.8683 30.2958 16.7168 30.2451V29.4846C16.742 29.5099 16.8683 29.5099 17.0198 29.5099C17.3229 29.5099 17.4744 29.3578 17.4744 28.1916V26.3663H20.5552ZM22.0703 27.8113L23.333 26.3663H24.5703L23.232 27.8367L24.5956 30.2198H23.4087L22.4744 28.5719L22.0703 29.0029V30.2198H21.0602V26.3663H22.0703V27.8113ZM28.2825 28.2677C28.2825 29.662 27.3481 30.2958 26.338 30.2958C25.3027 30.2958 24.3683 29.662 24.3683 28.2677C24.3683 26.8733 25.3027 26.2395 26.338 26.2395C27.3481 26.2649 28.2825 26.8987 28.2825 28.2677ZM25.4037 28.2677C25.4037 28.7747 25.5552 29.4592 26.338 29.4592C27.1208 29.4592 27.2471 28.7747 27.2471 28.293C27.2471 27.786 27.0956 27.1268 26.338 27.1268C25.5552 27.1015 25.4037 27.786 25.4037 28.2677Z" fill="#666666"/>
<path id="Vector_4" d="M28.6107 26.3662H30.3279C31.1865 26.3662 31.8178 26.7212 31.8178 27.355C31.8178 27.8113 31.5147 28.0902 31.1107 28.1916C31.4895 28.293 31.944 28.5465 31.944 29.155C31.944 29.8648 31.4137 30.2198 30.5299 30.2198H28.6107V26.3662ZM29.5955 27.9127H30.2521C30.5804 27.9127 30.8329 27.786 30.8329 27.4817C30.8329 27.1775 30.6056 27.0507 30.2774 27.0507H29.6208V27.9127H29.5955ZM29.5955 29.5099H30.3279C30.7067 29.5099 30.9339 29.3831 30.9339 29.0029C30.9339 28.6733 30.6814 28.4958 30.3279 28.4958H29.5955V29.5099ZM35.9592 28.2676C35.9592 29.662 35.0248 30.2958 34.0147 30.2958C32.9794 30.2958 32.045 29.662 32.045 28.2676C32.045 26.8733 32.9794 26.2395 34.0147 26.2395C35.0248 26.2648 35.9592 26.8986 35.9592 28.2676ZM33.0804 28.2676C33.0804 28.7747 33.2319 29.4592 34.0147 29.4592C34.7976 29.4592 34.9238 28.7747 34.9238 28.293C34.9238 27.786 34.7723 27.1268 34.0147 27.1268C33.2319 27.1014 33.0804 27.786 33.0804 28.2676ZM11.944 24.0085C12.8026 24.0085 14.8986 23.8564 16.4895 22.6902V23.5775H19.6713V19.6986L21.0097 18.3043L23.8885 23.5775H27.7016L23.3329 16.0479L27.6006 11.3071H23.6865L19.6713 15.9719V7.04793H16.4895V8.46765C15.5299 7.42821 13.939 6.61694 11.4895 6.61694C6.18645 6.61694 5.20161 9.86201 5.20161 11.6874C5.20161 14.1972 6.53999 15.5662 8.86322 16.1493L12.1461 16.9606C13.8885 17.3916 15.1258 17.7212 15.1258 19.0141C15.1258 20.7381 13.3077 21.1437 11.6915 21.1437C8.71171 21.1437 8.20666 19.3944 8.20666 18.4564H4.92383C4.94908 20.5099 5.98443 24.0085 11.944 24.0085ZM14.1157 14.1465L10.1258 13.1831C9.44403 13.031 8.38342 12.7522 8.38342 11.4592C8.38342 9.98877 9.94908 9.48173 11.237 9.48173C14.2168 9.48173 14.4945 11.231 14.5703 11.9916H16.4642V15.0592C15.7824 14.6282 14.9743 14.3747 14.1157 14.1465Z" fill="#666666"/>
</g>
</g>
<defs>
<clipPath id="clip0_2216_5303">
<rect width="50" height="36" fill="white"/>
</clipPath>
</defs>
</svg>
