<svg width="40" height="40" viewBox="0 0 40 40" fill="none" xmlns="http://www.w3.org/2000/svg">
<rect width="40" height="40" rx="20" fill="#F0AB00"/>
<path d="M27 13.5H24V12.5C24 11.7044 23.6839 10.9413 23.1213 10.3787C22.5587 9.81607 21.7956 9.5 21 9.5H19C18.2044 9.5 17.4413 9.81607 16.8787 10.3787C16.3161 10.9413 16 11.7044 16 12.5V13.5H13C12.2044 13.5 11.4413 13.8161 10.8787 14.3787C10.3161 14.9413 10 15.7044 10 16.5V25.5C10 26.2956 10.3161 27.0587 10.8787 27.6213C11.4413 28.1839 12.2044 28.5 13 28.5H27C27.7956 28.5 28.5587 28.1839 29.1213 27.6213C29.6839 27.0587 30 26.2956 30 25.5V16.5C30 15.7044 29.6839 14.9413 29.1213 14.3787C28.5587 13.8161 27.7956 13.5 27 13.5ZM18 12.5C18 12.2348 18.1054 11.9804 18.2929 11.7929C18.4804 11.6054 18.7348 11.5 19 11.5H21C21.2652 11.5 21.5196 11.6054 21.7071 11.7929C21.8946 11.9804 22 12.2348 22 12.5V13.5H18V12.5ZM28 25.5C28 25.7652 27.8946 26.0196 27.7071 26.2071C27.5196 26.3946 27.2652 26.5 27 26.5H13C12.7348 26.5 12.4804 26.3946 12.2929 26.2071C12.1054 26.0196 12 25.7652 12 25.5V20C14.5463 21.0101 17.2607 21.5293 20 21.53C22.7392 21.5283 25.4535 21.0092 28 20V25.5ZM28 17.81C25.4784 18.9178 22.7542 19.4898 20 19.4898C17.2458 19.4898 14.5216 18.9178 12 17.81V16.5C12 16.2348 12.1054 15.9804 12.2929 15.7929C12.4804 15.6054 12.7348 15.5 13 15.5H27C27.2652 15.5 27.5196 15.6054 27.7071 15.7929C27.8946 15.9804 28 16.2348 28 16.5V17.81Z" fill="white"/>
</svg>
