<svg width="40" height="40" viewBox="0 0 40 40" fill="none" xmlns="http://www.w3.org/2000/svg">
<rect width="40" height="40" rx="20" fill="#F0AB00"/>
<path d="M21.5 28H15.5C15.2348 28 14.9804 27.8946 14.7929 27.7071C14.6054 27.5196 14.5 27.2652 14.5 27V13C14.5 12.7348 14.6054 12.4804 14.7929 12.2929C14.9804 12.1054 15.2348 12 15.5 12H20.5V15C20.5 15.7956 20.8161 16.5587 21.3787 17.1213C21.9413 17.6839 22.7044 18 23.5 18H26.5V23C26.5 23.2652 26.6054 23.5196 26.7929 23.7071C26.9804 23.8946 27.2348 24 27.5 24C27.7652 24 28.0196 23.8946 28.2071 23.7071C28.3946 23.5196 28.5 23.2652 28.5 23V17C28.5 17 28.5 17 28.5 16.94C28.4896 16.8481 28.4695 16.7576 28.44 16.67V16.58C28.3919 16.4772 28.3278 16.3827 28.25 16.3L22.25 10.3C22.1673 10.2222 22.0728 10.1581 21.97 10.11C21.9369 10.1042 21.9031 10.1042 21.87 10.11C21.7728 10.058 21.6683 10.0209 21.56 10H15.5C14.7044 10 13.9413 10.3161 13.3787 10.8787C12.8161 11.4413 12.5 12.2044 12.5 13V27C12.5 27.7956 12.8161 28.5587 13.3787 29.1213C13.9413 29.6839 14.7044 30 15.5 30H21.5C21.7652 30 22.0196 29.8946 22.2071 29.7071C22.3946 29.5196 22.5 29.2652 22.5 29C22.5 28.7348 22.3946 28.4804 22.2071 28.2929C22.0196 28.1054 21.7652 28 21.5 28ZM22.5 13.41L25.09 16H23.5C23.2348 16 22.9804 15.8946 22.7929 15.7071C22.6054 15.5196 22.5 15.2652 22.5 15V13.41ZM17.5 22H23.5C23.7652 22 24.0196 21.8946 24.2071 21.7071C24.3946 21.5196 24.5 21.2652 24.5 21C24.5 20.7348 24.3946 20.4804 24.2071 20.2929C24.0196 20.1054 23.7652 20 23.5 20H17.5C17.2348 20 16.9804 20.1054 16.7929 20.2929C16.6054 20.4804 16.5 20.7348 16.5 21C16.5 21.2652 16.6054 21.5196 16.7929 21.7071C16.9804 21.8946 17.2348 22 17.5 22ZM21.5 24H17.5C17.2348 24 16.9804 24.1054 16.7929 24.2929C16.6054 24.4804 16.5 24.7348 16.5 25C16.5 25.2652 16.6054 25.5196 16.7929 25.7071C16.9804 25.8946 17.2348 26 17.5 26H21.5C21.7652 26 22.0196 25.8946 22.2071 25.7071C22.3946 25.5196 22.5 25.2652 22.5 25C22.5 24.7348 22.3946 24.4804 22.2071 24.2929C22.0196 24.1054 21.7652 24 21.5 24ZM17.5 18H18.5C18.7652 18 19.0196 17.8946 19.2071 17.7071C19.3946 17.5196 19.5 17.2652 19.5 17C19.5 16.7348 19.3946 16.4804 19.2071 16.2929C19.0196 16.1054 18.7652 16 18.5 16H17.5C17.2348 16 16.9804 16.1054 16.7929 16.2929C16.6054 16.4804 16.5 16.7348 16.5 17C16.5 17.2652 16.6054 17.5196 16.7929 17.7071C16.9804 17.8946 17.2348 18 17.5 18ZM31.21 24.29C31.117 24.1963 31.0064 24.1219 30.8846 24.0711C30.7627 24.0203 30.632 23.9942 30.5 23.9942C30.368 23.9942 30.2373 24.0203 30.1154 24.0711C29.9936 24.1219 29.883 24.1963 29.79 24.29L26.5 27.59L25.21 26.29C25.1168 26.1968 25.0061 26.1228 24.8842 26.0723C24.7624 26.0219 24.6319 25.9959 24.5 25.9959C24.3681 25.9959 24.2376 26.0219 24.1158 26.0723C23.9939 26.1228 23.8832 26.1968 23.79 26.29C23.6968 26.3832 23.6228 26.4939 23.5723 26.6158C23.5219 26.7376 23.4959 26.8681 23.4959 27C23.4959 27.1319 23.5219 27.2624 23.5723 27.3842C23.6228 27.5061 23.6968 27.6168 23.79 27.71L25.79 29.71C25.883 29.8037 25.9936 29.8781 26.1154 29.9289C26.2373 29.9797 26.368 30.0058 26.5 30.0058C26.632 30.0058 26.7627 29.9797 26.8846 29.9289C27.0064 29.8781 27.117 29.8037 27.21 29.71L31.21 25.71C31.3037 25.617 31.3781 25.5064 31.4289 25.3846C31.4797 25.2627 31.5058 25.132 31.5058 25C31.5058 24.868 31.4797 24.7373 31.4289 24.6154C31.3781 24.4936 31.3037 24.383 31.21 24.29Z" fill="white"/>
</svg>
