<svg width="40" height="40" viewBox="0 0 40 40" fill="none" xmlns="http://www.w3.org/2000/svg">
<rect width="40" height="40" rx="20" fill="#F0AB00"/>
<path d="M11.7102 24.29C11.6151 24.199 11.503 24.1276 11.3802 24.08C11.1368 23.98 10.8637 23.98 10.6202 24.08C10.4975 24.1276 10.3853 24.199 10.2902 24.29C10.1992 24.3851 10.1278 24.4972 10.0802 24.62C10.0037 24.8021 9.98273 25.0028 10.0201 25.1968C10.0575 25.3908 10.1515 25.5694 10.2902 25.71C10.3874 25.7983 10.499 25.8694 10.6202 25.92C10.7399 25.9729 10.8694 26.0002 11.0002 26.0002C11.1311 26.0002 11.2605 25.9729 11.3802 25.92C11.5014 25.8694 11.613 25.7983 11.7102 25.71C11.849 25.5694 11.943 25.3908 11.9804 25.1968C12.0177 25.0028 11.9968 24.8021 11.9202 24.62C11.8726 24.4972 11.8013 24.3851 11.7102 24.29ZM15.0002 16H29.0002C29.2654 16 29.5198 15.8946 29.7073 15.7071C29.8949 15.5196 30.0002 15.2652 30.0002 15C30.0002 14.7348 29.8949 14.4804 29.7073 14.2929C29.5198 14.1054 29.2654 14 29.0002 14H15.0002C14.735 14 14.4807 14.1054 14.2931 14.2929C14.1056 14.4804 14.0002 14.7348 14.0002 15C14.0002 15.2652 14.1056 15.5196 14.2931 15.7071C14.4807 15.8946 14.735 16 15.0002 16ZM11.7102 19.29C11.5696 19.1512 11.391 19.0572 11.197 19.0199C11.0031 18.9825 10.8023 19.0034 10.6202 19.08C10.499 19.1306 10.3874 19.2017 10.2902 19.29C10.1992 19.3851 10.1278 19.4972 10.0802 19.62C10.0273 19.7397 10 19.8691 10 20C10 20.1309 10.0273 20.2603 10.0802 20.38C10.1309 20.5012 10.2019 20.6128 10.2902 20.71C10.3874 20.7983 10.499 20.8694 10.6202 20.92C10.7399 20.9729 10.8694 21.0002 11.0002 21.0002C11.1311 21.0002 11.2605 20.9729 11.3802 20.92C11.5014 20.8694 11.613 20.7983 11.7102 20.71C11.7986 20.6128 11.8696 20.5012 11.9202 20.38C11.9731 20.2603 12.0005 20.1309 12.0005 20C12.0005 19.8691 11.9731 19.7397 11.9202 19.62C11.8726 19.4972 11.8013 19.3851 11.7102 19.29ZM29.0002 19H15.0002C14.735 19 14.4807 19.1054 14.2931 19.2929C14.1056 19.4804 14.0002 19.7348 14.0002 20C14.0002 20.2652 14.1056 20.5196 14.2931 20.7071C14.4807 20.8946 14.735 21 15.0002 21H29.0002C29.2654 21 29.5198 20.8946 29.7073 20.7071C29.8949 20.5196 30.0002 20.2652 30.0002 20C30.0002 19.7348 29.8949 19.4804 29.7073 19.2929C29.5198 19.1054 29.2654 19 29.0002 19ZM11.7102 14.29C11.6151 14.199 11.503 14.1276 11.3802 14.08C11.1981 14.0034 10.9974 13.9825 10.8034 14.0199C10.6094 14.0572 10.4309 14.1512 10.2902 14.29C10.2019 14.3872 10.1309 14.4988 10.0802 14.62C10.0273 14.7397 10 14.8691 10 15C10 15.1309 10.0273 15.2603 10.0802 15.38C10.1309 15.5012 10.2019 15.6128 10.2902 15.71C10.3874 15.7983 10.499 15.8694 10.6202 15.92C10.8023 15.9966 11.0031 16.0175 11.197 15.9801C11.391 15.9428 11.5696 15.8488 11.7102 15.71C11.7986 15.6128 11.8696 15.5012 11.9202 15.38C11.9731 15.2603 12.0005 15.1309 12.0005 15C12.0005 14.8691 11.9731 14.7397 11.9202 14.62C11.8696 14.4988 11.7986 14.3872 11.7102 14.29ZM29.0002 24H15.0002C14.735 24 14.4807 24.1054 14.2931 24.2929C14.1056 24.4804 14.0002 24.7348 14.0002 25C14.0002 25.2652 14.1056 25.5196 14.2931 25.7071C14.4807 25.8946 14.735 26 15.0002 26H29.0002C29.2654 26 29.5198 25.8946 29.7073 25.7071C29.8949 25.5196 30.0002 25.2652 30.0002 25C30.0002 24.7348 29.8949 24.4804 29.7073 24.2929C29.5198 24.1054 29.2654 24 29.0002 24Z" fill="white"/>
</svg>
