<svg width="80" height="80" viewBox="0 0 80 80" fill="none" xmlns="http://www.w3.org/2000/svg">
<path id="Vector" d="M48.9815 29.5926C48.9815 25.0556 52.0556 20.6296 53.7407 21.463C55.6481 22.4259 52.2963 26.7037 48.9815 29.5926ZM28.037 31.2407C28.037 27.5926 31.6481 20.6296 33.8518 21.3704C36.4444 22.2407 31.6852 29.2593 28.037 31.2407ZM24.3704 57.3889C22.7037 57.463 21.6111 56.4074 21.6111 54.6296C21.6111 49.8704 28.2222 45.3148 33.2037 42.8704C32.3148 49.537 30.0741 57.1296 24.3704 57.3889ZM54.8519 41.8889C51.0926 41.8889 48.2037 44.6667 48.2037 47.9815C48.2037 50.7593 49.8704 52.963 52.0741 52.963C52.8519 52.963 53.6296 52.5185 53.6296 51.5185C53.6296 50.0741 51.7222 49.7222 51.8704 47.5741C51.963 46.1481 53.2963 45.2037 54.6296 45.2037C57.2963 45.2037 58.537 47.7778 58.537 50.4444C58.4259 54.537 55.4074 57.4074 51.8704 57.4074C47.2222 57.4074 44.2222 52.9815 44.2222 48.2037C44.2222 41.1111 48.8704 38.3333 51.3148 37.6852C51.3333 37.6852 57.6852 38.8148 57.4815 36.0185C57.3889 34.7963 55.5556 34.3148 54.2407 34.2593C52.7593 34.2037 51.2963 34.7222 51.2963 34.7222C50.5185 34.3333 49.9815 33.5741 49.6481 32.6852C54.1852 29.2407 57.4074 25.9259 57.4074 22.1667C57.4074 20.1667 56.0741 18.4074 53.537 18.4074C49 18.4074 45.5556 24.1667 45.5556 29.3704C45.5556 30.2593 45.5556 31.1481 45.7778 31.9259C42.8889 34.037 40.7593 35.3333 36.8704 37.6667C36.8704 37.1852 36.963 35.9259 37.2963 34.3148C38.6296 32.8704 40.4444 30.7222 40.4444 29.0556C40.4444 28.2778 40 27.6111 39.1111 27.6111C36.8889 27.6111 35.2407 30.9259 34.7963 33.2593C33.7963 34.4815 31.7963 36.037 30.1481 36.037C28.8148 36.037 28.3704 34.8148 28.2593 34.3704C32.463 32.9259 37.6852 27.1667 37.6852 21.963C37.6852 20.8519 37.2407 18.4074 33.9259 18.4074C28.9444 18.4074 24.7222 25.8333 24.7222 31.5926C22.9444 31.5926 22.2778 29.7037 22.2778 28.2778C22.2778 26.8333 22.8333 25.3889 22.8333 24.9444C22.8333 24.5 22.6111 23.9444 21.9444 23.9444C20.2778 23.9444 19.2778 26.1667 19.2778 28.7037C19.3889 32.2407 21.7222 34.463 24.8148 34.6852C25.2593 36.7963 27.1481 38.7778 29.463 38.7778C30.9074 38.7778 32.6852 38.3333 33.8889 37.2222C33.7778 38 33.6667 38.6667 33.5556 39.3333C28.6852 41.8889 25.1296 43.6481 21.9259 46.537C19.3704 48.8704 17.9444 51.963 17.9444 54.4074C17.9444 57.7407 20.0556 60.8333 24.3704 60.8333C29.463 60.8333 33.3519 56.7407 35.2222 51.0741C36.1111 48.4074 36.463 44.537 36.6852 41C41.7778 38.1296 44.2037 36.4444 46.8518 34.5741C47.1852 35.1296 47.5185 35.5741 47.963 35.9074C45.6296 37.1296 40.0926 40.5556 40.0926 48.6481C40.0926 54.4074 43.963 60.8333 51.6111 60.8333C57.9259 60.8333 62.2593 55.6296 62.2593 50.6481C62.2778 46.0926 59.7222 41.8889 54.8519 41.8889ZM73.8889 51.4074C73.8704 51.4444 73.8148 51.5 73.6852 51.4444C73.5926 51.4074 73.5556 51.3518 73.5556 51.2963C73.5556 51.2222 74.8889 47.2963 74.8889 42.7593C74.8704 37.8889 72.8889 34.8889 70.3518 34.8889C68.7963 34.8889 67.6852 36 67.6852 37.6667C67.6852 40.6667 71.3333 40.8889 71.3333 47.4259C71.3333 50.0926 70.7778 52.6296 69.8889 55.4074C65.8148 69.2593 52.7407 75.6852 40 75.6852C34.1296 75.6852 29.9444 74.4815 28.7037 73.9259C28.6481 73.9074 28.6111 73.7963 28.6481 73.7037C28.6852 73.6296 28.7593 73.5741 28.8148 73.5926C29.3148 73.7963 32.9074 74.9074 37.3333 74.9074C42.2037 74.9074 45.0926 72.9074 45.0926 70.4815C45.0926 68.9259 43.8704 67.7222 42.3148 67.7222C39.3148 67.7222 39.0926 71.4815 32.6667 71.4815C29.8889 71.4815 27.463 70.9259 24.5741 70.037C10.8333 65.8333 4.27778 52.8704 4.2963 40C4.2963 33.7407 6.05555 28.7593 6.09259 28.7037C6.11111 28.6667 6.18518 28.6296 6.2963 28.6667C6.38889 28.7037 6.42593 28.7778 6.40741 28.8148C6.24074 29.3333 5.07407 32.9074 5.07407 37.3333C5.07407 42.2037 7.07407 45.0926 9.61111 45.0926C11.0556 45.0926 12.2778 43.9815 12.2778 42.4259C12.2778 39.4259 8.62963 39.0926 8.62963 32.6667C8.62963 29.8889 9.18518 27.463 10.0741 24.5741C14.2778 10.8333 27.2407 4.38889 40 4.2963C45.9259 4.25926 51.1111 6.01852 51.2963 6.18518C51.3333 6.22222 51.3704 6.2963 51.3333 6.38889C51.2963 6.5 51.2222 6.5 51.1852 6.5C51.1296 6.5 47.7593 5.09259 42.6481 5.09259C37.8889 5.09259 34.8889 7.09259 34.8889 9.62963C34.8889 11.0741 36 12.2963 37.6481 12.2963C40.6481 12.2963 40.8704 8.64815 47.2963 8.64815C50.0741 8.64815 52.5 9.2037 55.3889 10.0926C69.2593 14.2963 75.5556 27.3704 75.6852 40C75.7407 46.463 73.9074 51.3704 73.8889 51.4074ZM40 1.88889C18.9444 1.88889 1.88889 18.963 1.88889 40C1.88889 61.0556 18.963 78.1111 40 78.1111C61.0556 78.1111 78.1111 61.0556 78.1111 40C78.1111 19.0556 61.0556 1.88889 40 1.88889ZM40 80C17.9444 80 0 62.1667 0 40C0 17.9444 17.9444 0 40 0C62.037 0 80 17.9444 80 40C80 62.1667 62.037 80 40 80Z" fill="#005CB9"/>
</svg>
