<svg width="220" height="57" viewBox="0 0 220 57" fill="none" xmlns="http://www.w3.org/2000/svg">
<g id="logo 2" clip-path="url(#clip0_2216_3321)">
<g id="UI v2">
<g id="Logo">
<g id="logo/extreme/rus">
<g id="logo/50">
<g id="logo/50/lower/orange">
<mask id="mask0_2216_3321" style="mask-type:alpha" maskUnits="userSpaceOnUse" x="1" y="43" width="25" height="14">
<g id="mask 2">
<path id="Vector" d="M25.0777 56.6923C15.6504 47.6214 10.9367 43.086 10.9365 43.0862L1.71633 52.1569C0.767865 53.4011 1.01294 55.1745 2.26371 56.1179C2.75783 56.4906 3.36094 56.6923 3.98106 56.6923C3.99654 56.6923 4.01201 56.6923 4.02748 56.6923C11.0442 56.6923 18.061 56.6923 25.0777 56.6923Z" fill="white"/>
</g>
</mask>
<g mask="url(#mask0_2216_3321)">
<path id="Fill 4" d="M25.0777 56.6923C15.6504 47.6214 10.9367 43.086 10.9365 43.0862L1.71633 52.1569C0.767865 53.4011 1.01294 55.1745 2.26371 56.1179C2.75783 56.4906 3.36094 56.6923 3.98106 56.6923C3.99654 56.6923 4.01201 56.6923 4.02748 56.6923C11.0442 56.6923 18.061 56.6923 25.0777 56.6923Z" fill="#FF4F12"/>
</g>
</g>
<g id="logo/50/upper/violet">
<path id="Fill 7" fill-rule="evenodd" clip-rule="evenodd" d="M34.1969 20.4092L13.6788 0L2.22313 11.8696C0.796601 13.3477 0 15.3172 0 17.3662L0 52.1569C0 54.6617 2.0414 56.6923 4.55959 56.6923C2.99949 56.6923 1.73478 55.4343 1.73478 53.8825C1.73478 53.1354 2.03387 52.4191 2.56594 51.8919" fill="#7800FF"/>
</g>
</g>
<g id="logo/text/rus/black">
<path id="Fill 1" fill-rule="evenodd" clip-rule="evenodd" d="M180.414 35.3467H175.48L169.587 41.2754V35.3467H165.414V51.6836H169.587V44.9316L175.58 51.6836H180.613L172.865 42.9222L180.414 35.3467Z" fill="#101828"/>
<g id="Group 4">
<mask id="mask1_2216_3321" style="mask-type:alpha" maskUnits="userSpaceOnUse" x="37" y="28" width="20" height="24">
<g id="mask 4">
<path id="Vector_2" d="M37.6162 28.6274H56.8219V51.6836H37.6162V28.6274Z" fill="white"/>
</g>
</mask>
<g mask="url(#mask1_2216_3321)">
<path id="Fill 2" fill-rule="evenodd" clip-rule="evenodd" d="M48.0138 39.7603H41.9869V32.514H48.0138C51.06 32.514 52.4509 33.9631 52.4509 36.137C52.4509 38.3109 51.06 39.7603 48.0138 39.7603ZM48.1461 28.6273H37.6162V51.6836H41.9869V43.6468H48.1461C53.3781 43.6468 56.8219 40.979 56.8219 36.137C56.8219 31.295 53.3781 28.6273 48.1461 28.6273Z" fill="#101828"/>
</g>
</g>
<path id="Fill 5" fill-rule="evenodd" clip-rule="evenodd" d="M66.6877 48.258C64.2375 48.258 61.9525 46.5122 61.9525 43.5147C61.9525 40.5176 64.2375 38.772 66.6877 38.772C69.1381 38.772 71.4229 40.5176 71.4229 43.5147C71.4229 46.5122 69.1381 48.258 66.6877 48.258ZM66.6877 34.8853C62.1844 34.8853 57.7139 37.784 57.7139 43.5147C57.7139 49.2463 62.1844 52.1445 66.6877 52.1445C71.1913 52.1445 75.6615 49.2463 75.6615 43.5147C75.6615 37.784 71.1913 34.8853 66.6877 34.8853Z" fill="#101828"/>
<path id="Fill 7_2" fill-rule="evenodd" clip-rule="evenodd" d="M86.3137 48.258C83.7971 48.258 81.9427 46.4463 81.9427 43.5147C81.9427 40.6163 83.8633 38.772 86.3137 38.772C87.8039 38.772 89.0953 39.4637 90.1217 41.0118L93.6979 38.9695C92.506 36.4331 89.9229 34.8853 86.3468 34.8853C81.6778 34.8853 77.7041 38.3108 77.7041 43.5147C77.7041 48.719 81.4793 52.1445 86.3468 52.1445C89.8568 52.1445 92.2077 50.5638 93.8636 47.7641L90.4198 45.8866C89.4264 47.2699 88.3666 48.258 86.3137 48.258Z" fill="#101828"/>
<path id="Fill 9" fill-rule="evenodd" clip-rule="evenodd" d="M130.738 44.6022C130.54 47.1052 130.042 47.6655 129.181 47.6655C128.593 47.6655 128.317 47.6005 127.914 47.4956L127.935 51.7236C127.935 51.7236 128.454 51.8811 129.414 51.8811C132.957 51.8811 134.281 49.6085 134.613 44.7668L135.01 39.0686H139.712V51.6507H143.884V35.3467H131.434L130.738 44.6022Z" fill="#101828"/>
<path id="Fill 11" fill-rule="evenodd" clip-rule="evenodd" d="M114.334 41.3414C114.93 39.4968 116.585 38.0475 118.771 38.0475C121.089 38.0475 122.645 39.2991 123.043 41.3414H114.334ZM118.903 34.8855C114.135 34.8855 110.261 38.3439 110.261 43.515C110.261 48.6863 114.135 52.1447 118.705 52.1447C122.314 52.1447 124.599 50.7944 126.254 47.9947L122.943 46.3479C121.917 47.6324 120.989 48.5873 118.771 48.5873C116.321 48.5873 114.532 47.0066 114.268 44.5033H126.917V43.054C126.917 38.2781 123.606 34.8855 118.903 34.8855Z" fill="#101828"/>
<path id="Fill 13" fill-rule="evenodd" clip-rule="evenodd" d="M150.293 41.3414C150.889 39.4968 152.544 38.0475 154.73 38.0475C157.048 38.0475 158.604 39.2991 159.002 41.3414H150.293ZM154.862 34.8855C150.094 34.8855 146.22 38.3439 146.22 43.515C146.22 48.6863 150.094 52.1447 154.664 52.1447C158.273 52.1447 160.558 50.7944 162.213 47.9947L158.902 46.3479C157.876 47.6324 156.948 48.5873 154.73 48.5873C152.279 48.5873 150.491 47.0066 150.227 44.5033H162.876V43.054C162.876 38.2781 159.564 34.8855 154.862 34.8855Z" fill="#101828"/>
<path id="Fill 15" fill-rule="evenodd" clip-rule="evenodd" d="M95.1611 38.9695H100.062V51.6835H104.234V38.9695H109.135V35.3466H95.1611V38.9695Z" fill="#101828"/>
<path id="Fill 17" fill-rule="evenodd" clip-rule="evenodd" d="M188.897 48.2582C186.446 48.2582 184.162 46.5124 184.162 43.515C184.162 40.5178 186.446 38.7723 188.897 38.7723C191.347 38.7723 193.632 40.5178 193.632 43.515C193.632 46.5124 191.347 48.2582 188.897 48.2582ZM188.897 34.8855C184.393 34.8855 179.923 37.7839 179.923 43.515C179.923 49.2463 184.393 52.1447 188.897 52.1447C193.4 52.1447 197.871 49.2463 197.871 43.515C197.871 37.7839 193.4 34.8855 188.897 34.8855Z" fill="#101828"/>
<path id="Fill 19" fill-rule="evenodd" clip-rule="evenodd" d="M214.471 35.3435L209.943 46.785L205.414 35.3435H199.961V51.6509H203.927V41.3271L208.323 51.6509H211.563L215.958 41.3271V51.6509H219.925V35.3435H214.471Z" fill="#101828"/>
</g>
</g>
</g>
</g>
</g>
<defs>
<clipPath id="clip0_2216_3321">
<rect width="220" height="56.6923" fill="white"/>
</clipPath>
</defs>
</svg>
