<svg width="112" height="80" viewBox="0 0 112 80" fill="none" xmlns="http://www.w3.org/2000/svg">
<path d="M0 0H112V80H0V0Z" fill="#DBEC30"/>
<path d="M18.2708 59.3798C18.1011 58.7037 17.7052 57.2953 15.7254 57.2953C14.5375 57.2953 12.784 58.1403 12.784 61.4079C12.784 63.4925 13.689 65.408 15.7254 65.408C17.083 65.408 17.988 64.6192 18.2708 63.1544H20.7032C20.2506 65.6896 18.5537 67.4361 15.6688 67.4361C12.6143 67.4361 10.4082 65.3516 10.4082 61.3516C10.4082 57.2953 12.7274 55.2671 15.7254 55.2671C19.1759 55.2671 20.59 57.6333 20.7032 59.3798H18.2708ZM23.6446 61.8023L26.4729 58.591H29.2446L26.2466 61.8587L29.3577 67.1544H26.6425L24.6062 63.4925L23.6446 64.4502V67.1544H21.3819V58.591H23.6446V61.8023ZM37.5597 62.8164C37.5597 65.915 35.4668 67.3235 33.2042 67.3235C30.885 67.3235 28.792 65.915 28.792 62.8164C28.792 59.7178 30.885 58.3094 33.2042 58.3094C35.4668 58.3657 37.5597 59.7741 37.5597 62.8164ZM31.1112 62.8164C31.1112 63.9432 31.4506 65.4643 33.2042 65.4643C34.9577 65.4643 35.2405 63.9432 35.2405 62.8727C35.2405 61.746 34.9011 60.2812 33.2042 60.2812C31.4506 60.2248 31.1112 61.746 31.1112 62.8164Z" fill="#666666"/>
<path d="M46.0443 58.5917V67.1551H43.7816V60.3946H41.3493V63.0425C41.3493 66.3101 40.3877 67.3805 38.8039 67.3805C38.4079 67.3805 37.7857 67.3242 37.4463 67.2115V65.5213C37.5029 65.5777 37.7857 65.5777 38.1251 65.5777C38.8039 65.5777 39.1433 65.2396 39.1433 62.6481V58.5917H46.0443ZM49.4382 61.803L52.2665 58.5917H55.0382L52.0402 61.8594L55.0948 67.1551H52.4362L50.3433 63.4932L49.4382 64.4509V67.1551H47.1756V58.5917H49.4382V61.803ZM63.3534 62.8171C63.3534 65.9157 61.2604 67.3242 58.9978 67.3242C56.6786 67.3242 54.5857 65.9157 54.5857 62.8171C54.5857 59.7185 56.6786 58.3101 58.9978 58.3101C61.2604 58.3664 63.3534 59.7748 63.3534 62.8171ZM56.9049 62.8171C56.9049 63.9439 57.2443 65.465 58.9978 65.465C60.7514 65.465 61.0342 63.9439 61.0342 62.8734C61.0342 61.7467 60.6948 60.2819 58.9978 60.2819C57.2443 60.2256 56.9049 61.7467 56.9049 62.8171Z" fill="#666666"/>
<path d="M64.0889 58.5914H67.9353C69.8586 58.5914 71.2727 59.3802 71.2727 60.7886C71.2727 61.8027 70.5939 62.4224 69.6889 62.6478C70.5374 62.8731 71.5555 63.4365 71.5555 64.7886C71.5555 66.3661 70.3677 67.1548 68.3879 67.1548H64.0889V58.5914ZM66.2949 62.028H67.7656C68.501 62.028 69.0666 61.7464 69.0666 61.0703C69.0666 60.3942 68.5576 60.1125 67.8222 60.1125H66.3515V62.028H66.2949ZM66.2949 65.5773H67.9353C68.7838 65.5773 69.2929 65.2957 69.2929 64.4506C69.2929 63.7182 68.7273 63.3238 67.9353 63.3238H66.2949V65.5773ZM80.5495 62.8168C80.5495 65.9154 78.4565 67.3238 76.1939 67.3238C73.8747 67.3238 71.7818 65.9154 71.7818 62.8168C71.7818 59.7182 73.8747 58.3097 76.1939 58.3097C78.4565 58.3661 80.5495 59.7745 80.5495 62.8168ZM74.101 62.8168C74.101 63.9435 74.4404 65.4647 76.1939 65.4647C77.9475 65.4647 78.2303 63.9435 78.2303 62.8731C78.2303 61.7464 77.8909 60.2816 76.1939 60.2816C74.4404 60.2252 74.101 61.7464 74.101 62.8168ZM26.7555 53.352C28.6788 53.352 33.3737 53.014 36.9374 50.4224V52.3942H44.0646V43.7745L47.0626 40.6759L53.5111 52.3942H62.0525L52.2666 35.6618L61.8262 25.1266H53.0586L44.0646 35.4928V15.6618H36.9374V18.8168C34.7879 16.5069 31.2242 14.7041 25.7373 14.7041C13.8586 14.7041 11.6525 21.9154 11.6525 25.9717C11.6525 31.5492 14.6505 34.5914 19.8545 35.8872L27.2081 37.69C31.1111 38.6478 33.8828 39.3802 33.8828 42.2534C33.8828 46.0844 29.8101 46.9858 26.1899 46.9858C19.5151 46.9858 18.3838 43.0985 18.3838 41.014H11.0303C11.0868 45.5773 13.406 53.352 26.7555 53.352ZM31.6202 31.4365L22.6828 29.2956C21.1555 28.9576 18.7798 28.3379 18.7798 25.4647C18.7798 22.1971 22.2868 21.0703 25.1717 21.0703C31.8464 21.0703 32.4687 24.9576 32.6384 26.6478H36.8808V33.4647C35.3535 32.5069 33.5434 31.9435 31.6202 31.4365Z" fill="#666666"/>
</svg>
