<svg xmlns="http://www.w3.org/2000/svg" width="60" height="60" viewBox="0 0 60 60" fill="none">
  <g clip-path="url(#clip0_2216_5233)">
    <path fill-rule="evenodd" clip-rule="evenodd" d="M20.6655 34.31L28.5343 38.2444V28.6985L20.6655 25.551V34.31ZM29.5179 40.8195C29.3674 40.8195 29.2169 40.7851 29.0782 40.7162L19.2422 35.7982C18.9087 35.631 18.6982 35.2907 18.6982 34.9179V24.0982C18.6982 23.7716 18.8605 23.4667 19.13 23.2838C19.4015 23.1008 19.7468 23.0644 20.0468 23.1844L29.8828 27.1189C30.2566 27.2693 30.5015 27.6303 30.5015 28.0326V39.8359C30.5015 40.1772 30.3245 40.4939 30.0343 40.673C29.8769 40.7703 29.6979 40.8195 29.5179 40.8195Z" fill="#F0AB00"/>
    <path fill-rule="evenodd" clip-rule="evenodd" d="M30.5014 28.6989V38.2448L38.3702 34.3103V25.5513L30.5014 28.6989ZM29.5178 40.8198C29.3378 40.8198 29.1588 40.7697 29.0014 40.6723C28.7112 40.4933 28.5342 40.1766 28.5342 39.8362V28.033C28.5342 27.6307 28.7791 27.2687 29.1529 27.1192L38.9889 23.1848C39.2889 23.0638 39.6332 23.1002 39.9057 23.2841C40.1752 23.4671 40.3375 23.772 40.3375 24.0985V34.9182C40.3375 35.291 40.127 35.6313 39.7935 35.7975L29.9575 40.7156C29.8188 40.7854 29.6683 40.8198 29.5178 40.8198Z" fill="#F0AB00"/>
    <path fill-rule="evenodd" clip-rule="evenodd" d="M22.0818 23.9985L29.5188 26.9729L36.9549 23.9985L29.5188 20.2804L22.0818 23.9985ZM29.5188 29.0168C29.3949 29.0168 29.271 28.9932 29.1529 28.946L19.3169 25.0116C18.9569 24.868 18.7159 24.5267 18.7001 24.1391C18.6834 23.7526 18.8959 23.3916 19.2421 23.2185L29.0782 18.3004C29.3555 18.1617 29.6821 18.1617 29.9585 18.3004L39.7946 23.2185C40.1408 23.3916 40.3532 23.7526 40.3375 24.1391C40.3208 24.5267 40.0798 24.868 39.7198 25.0116L29.8837 28.946C29.7657 28.9932 29.6428 29.0168 29.5188 29.0168Z" fill="#F0AB00"/>
    <path fill-rule="evenodd" clip-rule="evenodd" d="M10.8294 2.45903H5.91134C5.36741 2.45903 4.92773 2.01838 4.92773 1.47543C4.92773 0.932477 5.36741 0.491821 5.91134 0.491821H10.8294C11.3733 0.491821 11.813 0.932477 11.813 1.47543C11.813 2.01838 11.3733 2.45903 10.8294 2.45903Z" fill="#F0AB00"/>
    <path fill-rule="evenodd" clip-rule="evenodd" d="M1.97698 2.45903H0.993372C0.449438 2.45903 0.00976562 2.01838 0.00976562 1.47543C0.00976562 0.932477 0.449438 0.491821 0.993372 0.491821H1.97698C2.52091 0.491821 2.96059 0.932477 2.96059 1.47543C2.96059 2.01838 2.52091 2.45903 1.97698 2.45903Z" fill="#F0AB00"/>
    <path fill-rule="evenodd" clip-rule="evenodd" d="M4.9278 6.39348H0.993372C0.449438 6.39348 0.00976562 5.95283 0.00976562 5.40988C0.00976562 4.86693 0.449438 4.42627 0.993372 4.42627H4.9278C5.47173 4.42627 5.91141 4.86693 5.91141 5.40988C5.91141 5.95283 5.47173 6.39348 4.9278 6.39348Z" fill="#F0AB00"/>
    <path fill-rule="evenodd" clip-rule="evenodd" d="M10.8297 6.39348H8.86251C8.31858 6.39348 7.87891 5.95283 7.87891 5.40988C7.87891 4.86693 8.31858 4.42627 8.86251 4.42627H10.8297C11.3737 4.42627 11.8133 4.86693 11.8133 5.40988C11.8133 5.95283 11.3737 6.39348 10.8297 6.39348Z" fill="#F0AB00"/>
    <path fill-rule="evenodd" clip-rule="evenodd" d="M58.0423 55.5738H53.1242C52.5803 55.5738 52.1406 55.1331 52.1406 54.5902C52.1406 54.0472 52.5803 53.6066 53.1242 53.6066H58.0423C58.5862 53.6066 59.0259 54.0472 59.0259 54.5902C59.0259 55.1331 58.5862 55.5738 58.0423 55.5738Z" fill="#F0AB00"/>
    <path fill-rule="evenodd" clip-rule="evenodd" d="M49.1899 55.5738H48.2063C47.6623 55.5738 47.2227 55.1331 47.2227 54.5902C47.2227 54.0472 47.6623 53.6066 48.2063 53.6066H49.1899C49.7338 53.6066 50.1735 54.0472 50.1735 54.5902C50.1735 55.1331 49.7338 55.5738 49.1899 55.5738Z" fill="#F0AB00"/>
    <path fill-rule="evenodd" clip-rule="evenodd" d="M52.1407 59.5082H48.2063C47.6623 59.5082 47.2227 59.0676 47.2227 58.5246C47.2227 57.9817 47.6623 57.541 48.2063 57.541H52.1407C52.6846 57.541 53.1243 57.9817 53.1243 58.5246C53.1243 59.0676 52.6846 59.5082 52.1407 59.5082Z" fill="#F0AB00"/>
    <path fill-rule="evenodd" clip-rule="evenodd" d="M58.0426 59.5082H56.0754C55.5315 59.5082 55.0918 59.0676 55.0918 58.5246C55.0918 57.9817 55.5315 57.541 56.0754 57.541H58.0426C58.5866 57.541 59.0262 57.9817 59.0262 58.5246C59.0262 59.0676 58.5866 59.5082 58.0426 59.5082Z" fill="#F0AB00"/>
    <path fill-rule="evenodd" clip-rule="evenodd" d="M47.2229 10.3278C46.6789 10.3278 46.2393 9.88718 46.2393 9.34423V3.44259C46.2393 2.89964 46.6789 2.45898 47.2229 2.45898C47.7668 2.45898 48.2065 2.89964 48.2065 3.44259V9.34423C48.2065 9.88718 47.7668 10.3278 47.2229 10.3278Z" fill="#F0AB00"/>
    <path fill-rule="evenodd" clip-rule="evenodd" d="M50.1733 7.377H44.2717C43.7278 7.377 43.2881 6.93635 43.2881 6.3934C43.2881 5.85045 43.7278 5.40979 44.2717 5.40979H50.1733C50.7173 5.40979 51.1569 5.85045 51.1569 6.3934C51.1569 6.93635 50.7173 7.377 50.1733 7.377Z" fill="#F0AB00"/>
    <path fill-rule="evenodd" clip-rule="evenodd" d="M8.86178 59.5082C8.60998 59.5082 8.35818 59.4118 8.16637 59.22C7.78178 58.8354 7.78178 58.2138 8.16637 57.8292L14.068 51.9275C14.4526 51.543 15.0742 51.543 15.4588 51.9275C15.8434 52.3121 15.8434 52.9338 15.4588 53.3184L9.55719 59.22C9.36539 59.4118 9.11358 59.5082 8.86178 59.5082Z" fill="#F0AB00"/>
    <path fill-rule="evenodd" clip-rule="evenodd" d="M14.7634 59.5082C14.5116 59.5082 14.2598 59.4118 14.068 59.22L8.16637 53.3184C7.78178 52.9338 7.78178 52.3121 8.16637 51.9275C8.55096 51.543 9.1726 51.543 9.55719 51.9275L15.4588 57.8292C15.8434 58.2138 15.8434 58.8354 15.4588 59.22C15.267 59.4118 15.0152 59.5082 14.7634 59.5082Z" fill="#F0AB00"/>
    <path fill-rule="evenodd" clip-rule="evenodd" d="M19.6812 25.082C19.4589 25.082 19.2366 25.0072 19.0517 24.8538L13.4245 20.1639H8.86251C8.31858 20.1639 7.87891 19.7233 7.87891 19.1803C7.87891 18.6374 8.31858 18.1967 8.86251 18.1967H13.7805C14.0107 18.1967 14.234 18.2774 14.411 18.4249L20.3127 23.3429C20.7287 23.6902 20.7858 24.3108 20.4386 24.7279C20.2428 24.961 19.9635 25.082 19.6812 25.082Z" fill="#F0AB00"/>
    <path fill-rule="evenodd" clip-rule="evenodd" d="M39.3549 25.082C39.0726 25.082 38.7932 24.961 38.5975 24.7279C38.2503 24.3108 38.3073 23.6902 38.7234 23.3429L44.625 18.4249C44.8021 18.2774 45.0254 18.1967 45.2555 18.1967H50.1736C50.7175 18.1967 51.1572 18.6374 51.1572 19.1803C51.1572 19.7233 50.7175 20.1639 50.1736 20.1639H45.6116L39.9844 24.8538C39.7995 25.0072 39.5772 25.082 39.3549 25.082Z" fill="#F0AB00"/>
    <path fill-rule="evenodd" clip-rule="evenodd" d="M50.1736 40.8197H45.2555C45.0254 40.8197 44.8021 40.739 44.625 40.5915L38.7234 35.6734C38.3073 35.3262 38.2503 34.7056 38.5975 34.2885C38.9457 33.8715 39.5654 33.8144 39.9844 34.1626L45.6116 38.8525H50.1736C50.7175 38.8525 51.1572 39.2931 51.1572 39.8361C51.1572 40.379 50.7175 40.8197 50.1736 40.8197Z" fill="#F0AB00"/>
    <path fill-rule="evenodd" clip-rule="evenodd" d="M13.7805 40.8197H8.86251C8.31858 40.8197 7.87891 40.379 7.87891 39.8361C7.87891 39.2931 8.31858 38.8525 8.86251 38.8525H13.4245L19.0517 34.1626C19.4717 33.8144 20.0904 33.8715 20.4386 34.2885C20.7858 34.7056 20.7287 35.3262 20.3127 35.6734L14.411 40.5915C14.234 40.739 14.0107 40.8197 13.7805 40.8197Z" fill="#F0AB00"/>
    <path fill-rule="evenodd" clip-rule="evenodd" d="M29.5178 20.1639C28.9739 20.1639 28.5342 19.7233 28.5342 19.1803V11.3115C28.5342 10.7685 28.9739 10.3279 29.5178 10.3279C30.0617 10.3279 30.5014 10.7685 30.5014 11.3115V19.1803C30.5014 19.7233 30.0617 20.1639 29.5178 20.1639Z" fill="#F0AB00"/>
    <path fill-rule="evenodd" clip-rule="evenodd" d="M29.5178 49.6722C28.9739 49.6722 28.5342 49.2315 28.5342 48.6885V39.8361C28.5342 39.2931 28.9739 38.8525 29.5178 38.8525C30.0617 38.8525 30.5014 39.2931 30.5014 39.8361V48.6885C30.5014 49.2315 30.0617 49.6722 29.5178 49.6722Z" fill="#F0AB00"/>
    <path fill-rule="evenodd" clip-rule="evenodd" d="M1.97698 42.7869H7.87862V36.8852H1.97698V42.7869ZM8.86222 44.7541H0.993372C0.449438 44.7541 0.00976562 44.3134 0.00976562 43.7705V35.9016C0.00976562 35.3587 0.449438 34.918 0.993372 34.918H8.86222C9.40518 34.918 9.84583 35.3587 9.84583 35.9016V43.7705C9.84583 44.3134 9.40518 44.7541 8.86222 44.7541Z" fill="#F0AB00"/>
    <path fill-rule="evenodd" clip-rule="evenodd" d="M51.1576 42.7869H57.0593V36.8852H51.1576V42.7869ZM58.0429 44.7541H50.174C49.6301 44.7541 49.1904 44.3134 49.1904 43.7705V35.9016C49.1904 35.3587 49.6301 34.918 50.174 34.918H58.0429C58.5858 34.918 59.0265 35.3587 59.0265 35.9016V43.7705C59.0265 44.3134 58.5858 44.7541 58.0429 44.7541Z" fill="#F0AB00"/>
    <path fill-rule="evenodd" clip-rule="evenodd" d="M1.97698 22.1312H7.87862V16.2295H1.97698V22.1312ZM8.86222 24.0984H0.993372C0.449438 24.0984 0.00976562 23.6577 0.00976562 23.1148V15.2459C0.00976562 14.703 0.449438 14.2623 0.993372 14.2623H8.86222C9.40518 14.2623 9.84583 14.703 9.84583 15.2459V23.1148C9.84583 23.6577 9.40518 24.0984 8.86222 24.0984Z" fill="#F0AB00"/>
    <path fill-rule="evenodd" clip-rule="evenodd" d="M26.5678 55.5738H32.4694V49.6722H26.5678V55.5738ZM33.453 57.541H25.5842C25.0403 57.541 24.6006 57.1004 24.6006 56.5574V48.6886C24.6006 48.1456 25.0403 47.705 25.5842 47.705H33.453C33.996 47.705 34.4367 48.1456 34.4367 48.6886V56.5574C34.4367 57.1004 33.996 57.541 33.453 57.541Z" fill="#F0AB00"/>
    <path fill-rule="evenodd" clip-rule="evenodd" d="M26.5678 10.3278H32.4694V4.4262H26.5678V10.3278ZM33.453 12.2951H25.5842C25.0403 12.2951 24.6006 11.8544 24.6006 11.3114V3.44259C24.6006 2.89964 25.0403 2.45898 25.5842 2.45898H33.453C33.996 2.45898 34.4367 2.89964 34.4367 3.44259V11.3114C34.4367 11.8544 33.996 12.2951 33.453 12.2951Z" fill="#F0AB00"/>
    <path fill-rule="evenodd" clip-rule="evenodd" d="M51.1576 22.1312H57.0593V16.2295H51.1576V22.1312ZM58.0429 24.0984H50.174C49.6301 24.0984 49.1904 23.6577 49.1904 23.1148V15.2459C49.1904 14.703 49.6301 14.2623 50.174 14.2623H58.0429C58.5858 14.2623 59.0265 14.703 59.0265 15.2459V23.1148C59.0265 23.6577 58.5858 24.0984 58.0429 24.0984Z" fill="#F0AB00"/>
  </g>
  <defs>
    <clipPath id="clip0_2216_5233">
      <rect width="60" height="60" fill="white"/>
    </clipPath>
  </defs>
</svg>