<svg xmlns="http://www.w3.org/2000/svg" width="70" height="70" viewBox="0 0 70 70" fill="none">
  <path fill-rule="evenodd" clip-rule="evenodd" d="M34.4368 14.3443C33.1711 14.3443 32.1418 15.3736 32.1418 16.6394C32.1418 17.9051 33.1711 18.9344 34.4368 18.9344C35.7026 18.9344 36.7319 17.9051 36.7319 16.6394C36.7319 15.3736 35.7026 14.3443 34.4368 14.3443ZM34.4368 21.2295C31.9054 21.2295 29.8467 19.1708 29.8467 16.6394C29.8467 14.1079 31.9054 12.0492 34.4368 12.0492C36.9683 12.0492 39.027 14.1079 39.027 16.6394C39.027 19.1708 36.9683 21.2295 34.4368 21.2295Z" fill="#F0AB00"/>
  <path fill-rule="evenodd" clip-rule="evenodd" d="M34.4368 28.1148C33.1711 28.1148 32.1418 29.1441 32.1418 30.4099C32.1418 31.6756 33.1711 32.7049 34.4368 32.7049C35.7026 32.7049 36.7319 31.6756 36.7319 30.4099C36.7319 29.1441 35.7026 28.1148 34.4368 28.1148ZM34.4368 35C31.9054 35 29.8467 32.9413 29.8467 30.4099C29.8467 27.8784 31.9054 25.8197 34.4368 25.8197C36.9683 25.8197 39.027 27.8784 39.027 30.4099C39.027 32.9413 36.9683 35 34.4368 35Z" fill="#F0AB00"/>
  <path fill-rule="evenodd" clip-rule="evenodd" d="M29.8468 47.623H39.0271V47.4956C39.0271 44.4351 39.9658 41.4251 41.741 38.7926C48.8833 28.0895 46.6146 14.5612 36.2363 5.87771C36.2351 5.87656 36.2351 5.87656 36.234 5.87656L34.4369 4.36754L32.6399 5.87656C22.2615 14.56 19.9917 28.0872 27.1202 38.7743C28.9081 41.4216 29.8468 44.4316 29.8468 47.4944V47.623ZM40.1746 49.918H28.6992C28.0658 49.918 27.5517 49.4039 27.5517 48.7705V47.4944C27.5517 44.8528 26.7702 42.358 25.2314 40.0767C17.4097 28.3534 19.8586 13.5777 31.1653 4.11623L33.6991 1.98984C34.1259 1.63181 34.7479 1.63181 35.1748 1.98984L37.7097 4.11738C49.0176 13.5789 51.4653 28.3546 43.662 40.0492C42.1036 42.3603 41.3222 44.8562 41.3222 47.4956V48.7705C41.3222 49.4039 40.8081 49.918 40.1746 49.918Z" fill="#F0AB00"/>
  <path fill-rule="evenodd" clip-rule="evenodd" d="M63.126 53.3606H60.8309C60.8309 50.8292 58.7722 48.7705 56.2407 48.7705C53.7092 48.7705 51.6506 50.8292 51.6506 53.3606H49.3555C49.3555 49.5634 52.4435 46.4754 56.2407 46.4754C60.0379 46.4754 63.126 49.5634 63.126 53.3606Z" fill="#F0AB00"/>
  <path fill-rule="evenodd" clip-rule="evenodd" d="M20.667 53.3606H18.3719C18.3719 50.8292 16.3132 48.7705 13.7817 48.7705C11.2503 48.7705 9.19157 50.8292 9.19157 53.3606H6.89648C6.89648 49.5634 9.98452 46.4754 13.7817 46.4754C17.5789 46.4754 20.667 49.5634 20.667 53.3606Z" fill="#F0AB00"/>
  <path fill-rule="evenodd" clip-rule="evenodd" d="M2.30582 67.1311H66.5681V59.0983C66.5681 55.9346 63.9942 53.3606 60.8304 53.3606C57.6666 53.3606 55.0927 55.9346 55.0927 59.0983C55.0927 59.7318 54.5798 60.2459 53.9452 60.2459C53.3117 60.2459 52.7976 59.7318 52.7976 59.0983C52.7976 55.0303 50.9581 54.5082 49.355 54.5082C47.457 54.5082 45.9124 56.0528 45.9124 57.9508C45.9124 61.1146 43.0814 63.6885 39.6009 63.6885C37.4688 63.6885 35.5799 62.7223 34.437 61.2465C33.294 62.7223 31.4052 63.6885 29.273 63.6885C25.7925 63.6885 22.9616 61.1146 22.9616 57.9508C22.9616 56.0528 21.417 54.5082 19.5189 54.5082C16.8016 54.5082 16.0763 57.3931 16.0763 59.0983C16.0763 59.7318 15.5622 60.2459 14.9288 60.2459C14.2953 60.2459 13.7812 59.7318 13.7812 59.0983C13.7812 55.9346 11.2073 53.3606 8.04353 53.3606C4.87976 53.3606 2.30582 55.9346 2.30582 59.0983V67.1311ZM67.7157 69.4262H1.15828C0.524841 69.4262 0.0107422 68.9121 0.0107422 68.2787V59.0983C0.0107422 54.6688 3.61402 51.0656 8.04353 51.0656C10.9227 51.0656 13.453 52.5883 14.8714 54.8708C15.7963 53.3182 17.3248 52.2131 19.5189 52.2131C22.6827 52.2131 25.2566 54.787 25.2566 57.9508C25.2566 59.8488 27.0583 61.3934 29.273 61.3934C31.4878 61.3934 33.2894 59.8488 33.2894 57.9508C33.2894 57.3174 33.8035 56.8033 34.437 56.8033C35.0704 56.8033 35.5845 57.3174 35.5845 57.9508C35.5845 59.8488 37.3862 61.3934 39.6009 61.3934C41.8157 61.3934 43.6173 59.8488 43.6173 57.9508C43.6173 54.787 46.1912 52.2131 49.355 52.2131C50.7952 52.2131 52.8917 52.6182 54.1116 54.701C55.5483 52.5126 58.0235 51.0656 60.8304 51.0656C65.2588 51.0656 68.8632 54.6688 68.8632 59.0983V68.2787C68.8632 68.9121 68.3503 69.4262 67.7157 69.4262Z" fill="#F0AB00"/>
  <path fill-rule="evenodd" clip-rule="evenodd" d="M29.8468 56.8032C29.2133 56.8032 28.6992 56.2891 28.6992 55.6557V52.2131C28.6992 51.5796 29.2133 51.0656 29.8468 51.0656C30.4802 51.0656 30.9943 51.5796 30.9943 52.2131V55.6557C30.9943 56.2891 30.4802 56.8032 29.8468 56.8032Z" fill="#F0AB00"/>
  <path fill-rule="evenodd" clip-rule="evenodd" d="M39.0274 56.8032C38.394 56.8032 37.8799 56.2891 37.8799 55.6557V52.2131C37.8799 51.5796 38.394 51.0656 39.0274 51.0656C39.6609 51.0656 40.175 51.5796 40.175 52.2131V55.6557C40.175 56.2891 39.6609 56.8032 39.0274 56.8032Z" fill="#F0AB00"/>
  <path fill-rule="evenodd" clip-rule="evenodd" d="M34.4366 54.5082C33.8032 54.5082 33.2891 53.9941 33.2891 53.3606V52.2131C33.2891 51.5796 33.8032 51.0656 34.4366 51.0656C35.07 51.0656 35.5841 51.5796 35.5841 52.2131V53.3606C35.5841 53.9941 35.07 54.5082 34.4366 54.5082Z" fill="#F0AB00"/>
  <path fill-rule="evenodd" clip-rule="evenodd" d="M51.616 44.1791C51.1478 44.1791 50.6819 44.0368 50.2814 43.7568L43.0508 38.6962L44.367 36.8154L51.5977 41.8772L51.6493 37.2319C51.6493 28.9949 46.6598 25.7152 46.4464 25.5798L47.6673 23.6359C47.9244 23.7965 53.9444 27.6695 53.9444 37.2319V41.8508C53.9444 42.7218 53.4647 43.5124 52.6913 43.9152C52.3516 44.0919 51.9832 44.1791 51.616 44.1791Z" fill="#F0AB00"/>
  <path fill-rule="evenodd" clip-rule="evenodd" d="M17.2571 44.1791C16.8899 44.1791 16.5215 44.0919 16.1818 43.9152C15.4084 43.5124 14.9287 42.7218 14.9287 41.8508V37.2319C14.9287 27.6695 20.9487 23.7965 21.2058 23.6359L22.4267 25.5798C22.2133 25.7152 17.2238 28.9949 17.2238 37.2319V41.8508L24.5061 36.8154L25.8223 38.6962L18.5917 43.7568C18.1912 44.0368 17.7253 44.1791 17.2571 44.1791Z" fill="#F0AB00"/>
  <path fill-rule="evenodd" clip-rule="evenodd" d="M41.3555 43.0327H27.5196C26.8862 43.0327 26.3721 42.5187 26.3721 41.8852C26.3721 41.2518 26.8862 40.7377 27.5196 40.7377H41.3555C41.989 40.7377 42.503 41.2518 42.503 41.8852C42.503 42.5187 41.989 43.0327 41.3555 43.0327Z" fill="#F0AB00"/>
  <path fill-rule="evenodd" clip-rule="evenodd" d="M52.7972 16.6393C52.5035 16.6393 52.2097 16.5269 51.9859 16.3031C51.5372 15.8544 51.5372 15.1292 51.9859 14.6805L56.5761 10.0903C57.0248 9.64161 57.75 9.64161 58.1987 10.0903C58.6474 10.539 58.6474 11.2642 58.1987 11.7129L53.6085 16.3031C53.3848 16.5269 53.091 16.6393 52.7972 16.6393Z" fill="#F0AB00"/>
  <path fill-rule="evenodd" clip-rule="evenodd" d="M57.3874 16.6393C57.0936 16.6393 56.7999 16.5269 56.5761 16.3031L51.9859 11.7129C51.5372 11.2642 51.5372 10.539 51.9859 10.0903C52.4346 9.64161 53.1599 9.64161 53.6085 10.0903L58.1987 14.6805C58.6474 15.1292 58.6474 15.8544 58.1987 16.3031C57.9749 16.5269 57.6812 16.6393 57.3874 16.6393Z" fill="#F0AB00"/>
  <path fill-rule="evenodd" clip-rule="evenodd" d="M66.5685 22.377C66.5685 23.0105 66.0556 23.5246 65.421 23.5246C64.7864 23.5246 64.2734 23.0105 64.2734 22.377C64.2734 21.7436 64.7864 21.2295 65.421 21.2295C66.0556 21.2295 66.5685 21.7436 66.5685 22.377Z" fill="#F0AB00"/>
  <path fill-rule="evenodd" clip-rule="evenodd" d="M10.339 37.295C10.339 37.9284 9.82493 38.4425 9.19149 38.4425C8.55804 38.4425 8.04395 37.9284 8.04395 37.295C8.04395 36.6616 8.55804 36.1475 9.19149 36.1475C9.82493 36.1475 10.339 36.6616 10.339 37.295Z" fill="#F0AB00"/>
  <path fill-rule="evenodd" clip-rule="evenodd" d="M4.59746 6.31144C5.03238 6.63848 5.4214 7.0275 5.74845 7.46242C6.0755 7.0275 6.46336 6.63848 6.89943 6.31144C6.46336 5.98439 6.0755 5.59537 5.74845 5.16045C5.4214 5.59537 5.03238 5.98439 4.59746 6.31144ZM5.74845 12.0491C5.115 12.0491 4.60091 11.535 4.60091 10.9016C4.60091 9.00357 3.05632 7.45898 1.15828 7.45898C0.524841 7.45898 0.0107422 6.94488 0.0107422 6.31144C0.0107422 5.67799 0.524841 5.16389 1.15828 5.16389C3.05632 5.16389 4.60091 3.6193 4.60091 1.72127C4.60091 1.08783 5.115 0.57373 5.74845 0.57373C6.38189 0.57373 6.89599 1.08783 6.89599 1.72127C6.89599 3.6193 8.44058 5.16389 10.3386 5.16389C10.9721 5.16389 11.4862 5.67799 11.4862 6.31144C11.4862 6.94488 10.9721 7.45898 10.3386 7.45898C8.44058 7.45898 6.89599 9.00357 6.89599 10.9016C6.89599 11.535 6.38189 12.0491 5.74845 12.0491Z" fill="#F0AB00"/>
</svg>