<svg xmlns="http://www.w3.org/2000/svg" width="70" height="70" viewBox="0 0 70 70" fill="none">
  <g clip-path="url(#clip0_2216_5455)">
    <path fill-rule="evenodd" clip-rule="evenodd" d="M12.8441 46.6666C7.05391 46.6666 2.34407 51.3776 2.34407 57.1666C2.34407 62.9556 7.05391 67.6666 12.8441 67.6666C18.6342 67.6666 23.3441 62.9556 23.3441 57.1666C23.3441 51.3776 18.6342 46.6666 12.8441 46.6666ZM12.8441 70C5.76824 70 0.0107422 64.2425 0.0107422 57.1666C0.0107422 50.0908 5.76824 44.3333 12.8441 44.3333C19.9199 44.3333 25.6774 50.0908 25.6774 57.1666C25.6774 64.2425 19.9199 70 12.8441 70Z" fill="#F0AB00"/>
    <path fill-rule="evenodd" clip-rule="evenodd" d="M9.81131 58.641V58.648V58.641ZM19.665 67.8098C19.392 67.8098 19.119 67.7141 18.8973 67.5216C18.7841 67.4225 18.6651 67.342 18.5426 67.2813L15.178 65.6176C14.3391 65.2046 13.8188 64.3681 13.8188 63.4371V62.1316C13.8188 61.8446 13.9238 61.5681 14.114 61.3546C14.1863 61.273 14.268 61.168 14.3566 61.0443C14.7335 60.5193 15.0321 59.9255 15.2398 59.2815C15.3495 58.9455 15.605 58.6783 15.9328 58.5523V57.255C15.6843 57.0333 15.5793 56.8152 15.5793 56.4827V54.4678C15.5793 54.4165 15.5828 54.3652 15.5898 54.3138C15.5898 54.3057 15.6458 53.6838 15.2141 53.2067C14.7941 52.7447 13.9845 52.4997 12.8715 52.4997C11.7585 52.4997 10.9488 52.7447 10.5288 53.2067C10.0971 53.6838 10.1531 54.3068 10.1555 54.3325C10.159 54.3698 10.1636 54.4305 10.1636 54.4678V56.4827C10.1636 56.814 10.0225 57.1302 9.77514 57.3518L9.80897 58.5756C10.04 58.7401 10.2033 58.984 10.2675 59.2617C10.5475 60.4656 11.293 61.3722 11.3 61.3815C11.4738 61.5915 11.573 61.8586 11.573 62.1316V63.4045C11.573 64.2993 11.0818 65.1195 10.2908 65.5453L7.1478 67.2416C7.03464 67.3023 6.9203 67.3851 6.81064 67.489C6.34047 67.9265 5.6008 67.9043 5.16214 67.433C4.7223 66.9616 4.7468 66.2243 5.21697 65.7833C5.47364 65.5441 5.7513 65.3435 6.04064 65.1871L9.18364 63.492L9.22447 62.498C8.90714 62.0418 8.40197 61.2123 8.09631 60.1763C7.70197 59.7691 7.47797 59.2255 7.47797 58.648V57.255C7.47797 56.8327 7.60164 56.4208 7.8303 56.0685V54.5262C7.79647 54.1377 7.7708 52.8147 8.75897 51.6877C9.64097 50.6785 11.0258 50.1663 12.8715 50.1663C14.7183 50.1663 16.1031 50.6785 16.9851 51.6888C17.9721 52.8147 17.9465 54.1377 17.9126 54.5262V56.0673C18.1413 56.4197 18.2661 56.8315 18.2661 57.255V58.648C18.2661 59.397 17.8928 60.0713 17.292 60.4726C17.0248 61.1656 16.676 61.8143 16.2525 62.4058C16.2186 62.4536 16.1848 62.4991 16.1521 62.5435V63.4371L19.5775 65.1895C19.8808 65.34 20.169 65.5336 20.4326 65.7646C20.9191 66.1893 20.9681 66.9255 20.5435 67.4108C20.3125 67.6745 19.9905 67.8098 19.665 67.8098Z" fill="#F0AB00"/>
    <path fill-rule="evenodd" clip-rule="evenodd" d="M57.1771 46.6666C51.3869 46.6666 46.6771 51.3776 46.6771 57.1666C46.6771 62.9556 51.3869 67.6666 57.1771 67.6666C62.9672 67.6666 67.6771 62.9556 67.6771 57.1666C67.6771 51.3776 62.9672 46.6666 57.1771 46.6666ZM57.1771 70C50.1012 70 44.3438 64.2425 44.3438 57.1666C44.3438 50.0908 50.1012 44.3333 57.1771 44.3333C64.2529 44.3333 70.0104 50.0908 70.0104 57.1666C70.0104 64.2425 64.2529 70 57.1771 70Z" fill="#F0AB00"/>
    <path fill-rule="evenodd" clip-rule="evenodd" d="M54.1443 58.641V58.648V58.641ZM63.998 67.8098C63.725 67.8098 63.452 67.7141 63.2303 67.5216C63.1171 67.4225 62.9981 67.342 62.8756 67.2813L59.511 65.6176C58.6721 65.2046 58.1518 64.3681 58.1518 63.4371V62.1316C58.1518 61.8446 58.2568 61.5681 58.447 61.3546C58.5193 61.273 58.601 61.168 58.6896 61.0443C59.0665 60.5193 59.3651 59.9255 59.5728 59.2815C59.6825 58.9455 59.938 58.6783 60.2658 58.5523V57.255C60.0173 57.0333 59.9123 56.8152 59.9123 56.4827V54.4678C59.9123 54.4165 59.9158 54.3652 59.9228 54.3138C59.9228 54.3057 59.9788 53.6838 59.5471 53.2067C59.1271 52.7447 58.3175 52.4997 57.2045 52.4997C56.0915 52.4997 55.2818 52.7447 54.8618 53.2067C54.4301 53.6838 54.4861 54.3068 54.4885 54.3325C54.492 54.3698 54.4966 54.4305 54.4966 54.4678V56.4827C54.4966 56.814 54.3555 57.1302 54.1081 57.3518L54.142 58.5756C54.373 58.7401 54.5363 58.984 54.6005 59.2617C54.8805 60.4656 55.626 61.3722 55.633 61.3815C55.8068 61.5915 55.906 61.8586 55.906 62.1316V63.4045C55.906 64.2993 55.4148 65.1195 54.6238 65.5453L51.4808 67.2416C51.3676 67.3023 51.2533 67.3851 51.1436 67.489C50.6735 67.9265 49.935 67.9043 49.4951 67.433C49.0553 66.9616 49.0798 66.2243 49.55 65.7833C49.8066 65.5441 50.0843 65.3435 50.3736 65.1871L53.5166 63.492L53.5575 62.498C53.2401 62.0418 52.735 61.2123 52.4293 60.1763C52.035 59.7691 51.811 59.2255 51.811 58.648V57.255C51.811 56.8327 51.9346 56.4208 52.1633 56.0685V54.5262C52.1295 54.1377 52.1038 52.8147 53.092 51.6877C53.974 50.6785 55.3588 50.1663 57.2045 50.1663C59.0513 50.1663 60.4361 50.6785 61.3181 51.6888C62.3051 52.8147 62.2795 54.1377 62.2456 54.5262V56.0673C62.4743 56.4197 62.5991 56.8315 62.5991 57.255V58.648C62.5991 59.397 62.2258 60.0713 61.625 60.4726C61.3578 61.1656 61.009 61.8143 60.5855 62.4058C60.5516 62.4536 60.5178 62.4991 60.4851 62.5435V63.4371L63.9105 65.1895C64.2138 65.34 64.502 65.5336 64.7656 65.7646C65.2521 66.1893 65.3011 66.9255 64.8765 67.4108C64.6455 67.6745 64.3235 67.8098 63.998 67.8098Z" fill="#F0AB00"/>
    <path fill-rule="evenodd" clip-rule="evenodd" d="M12.8441 2.33333C7.05391 2.33333 2.34407 7.04433 2.34407 12.8333C2.34407 18.6223 7.05391 23.3333 12.8441 23.3333C18.6342 23.3333 23.3441 18.6223 23.3441 12.8333C23.3441 7.04433 18.6342 2.33333 12.8441 2.33333ZM12.8441 25.6667C5.76824 25.6667 0.0107422 19.9092 0.0107422 12.8333C0.0107422 5.7575 5.76824 0 12.8441 0C19.9199 0 25.6774 5.7575 25.6774 12.8333C25.6774 19.9092 19.9199 25.6667 12.8441 25.6667Z" fill="#F0AB00"/>
    <path fill-rule="evenodd" clip-rule="evenodd" d="M9.81131 14.3077V14.3147V14.3077ZM19.665 23.4765C19.392 23.4765 19.119 23.3808 18.8973 23.1883C18.7841 23.0892 18.6651 23.0087 18.5426 22.948L15.178 21.2843C14.3391 20.8713 13.8188 20.0348 13.8188 19.1038V17.7983C13.8188 17.5113 13.9238 17.2348 14.114 17.0213C14.1863 16.9397 14.268 16.8347 14.3566 16.711C14.7335 16.186 15.0321 15.5922 15.2398 14.9482C15.3495 14.6122 15.605 14.345 15.9328 14.219V12.9217C15.6843 12.7 15.5793 12.4818 15.5793 12.1493V10.1345C15.5793 10.0832 15.5828 10.0318 15.5898 9.98051C15.5898 9.97234 15.6458 9.35051 15.2141 8.87334C14.7941 8.41134 13.9845 8.16634 12.8715 8.16634C11.7585 8.16634 10.9488 8.41134 10.5288 8.87334C10.0971 9.35051 10.1531 9.97351 10.1555 9.99917C10.159 10.0365 10.1636 10.0972 10.1636 10.1345V12.1493C10.1636 12.4807 10.0225 12.7968 9.77514 13.0185L9.80897 14.2423C10.04 14.4068 10.2033 14.6507 10.2675 14.9283C10.5475 16.1323 11.293 17.0388 11.3 17.0482C11.4738 17.2582 11.573 17.5253 11.573 17.7983V19.0712C11.573 19.966 11.0818 20.7862 10.2908 21.212L7.1478 22.9083C7.03464 22.969 6.9203 23.0518 6.81064 23.1557C6.34047 23.5943 5.6008 23.5698 5.16214 23.0997C4.7223 22.6283 4.7468 21.891 5.21697 21.45C5.47364 21.2108 5.7513 21.0102 6.04064 20.8538L9.18364 19.1587L9.22447 18.1647C8.90714 17.7085 8.40197 16.879 8.09631 15.843C7.70197 15.4358 7.47797 14.8922 7.47797 14.3147V12.9217C7.47797 12.4993 7.60164 12.0875 7.8303 11.7352V10.1928C7.79647 9.80434 7.7708 8.48134 8.75897 7.35434C9.64097 6.34517 11.0258 5.83301 12.8715 5.83301C14.7183 5.83301 16.1031 6.34517 16.9851 7.35551C17.9721 8.48134 17.9465 9.80434 17.9126 10.1928V11.734C18.1413 12.0863 18.2661 12.4982 18.2661 12.9217V14.3147C18.2661 15.0637 17.8928 15.738 17.292 16.1393C17.0248 16.8323 16.676 17.481 16.2525 18.0725C16.2186 18.1203 16.1848 18.1658 16.1521 18.2102V19.1038L19.5775 20.8562C19.8808 21.0067 20.169 21.2003 20.4326 21.4313C20.9191 21.856 20.9681 22.5922 20.5435 23.0775C20.3125 23.3412 19.9905 23.4765 19.665 23.4765Z" fill="#F0AB00"/>
    <path fill-rule="evenodd" clip-rule="evenodd" d="M57.1771 2.33333C51.3869 2.33333 46.6771 7.04433 46.6771 12.8333C46.6771 18.6223 51.3869 23.3333 57.1771 23.3333C62.9672 23.3333 67.6771 18.6223 67.6771 12.8333C67.6771 7.04433 62.9672 2.33333 57.1771 2.33333ZM57.1771 25.6667C50.1012 25.6667 44.3438 19.9092 44.3438 12.8333C44.3438 5.7575 50.1012 0 57.1771 0C64.2529 0 70.0104 5.7575 70.0104 12.8333C70.0104 19.9092 64.2529 25.6667 57.1771 25.6667Z" fill="#F0AB00"/>
    <path fill-rule="evenodd" clip-rule="evenodd" d="M54.1443 14.3077V14.3147V14.3077ZM63.998 23.4765C63.725 23.4765 63.452 23.3808 63.2303 23.1883C63.1171 23.0892 62.9981 23.0087 62.8756 22.948L59.511 21.2843C58.6721 20.8713 58.1518 20.0348 58.1518 19.1038V17.7983C58.1518 17.5113 58.2568 17.2348 58.447 17.0213C58.5193 16.9397 58.601 16.8347 58.6896 16.711C59.0665 16.186 59.3651 15.5922 59.5728 14.9482C59.6825 14.6122 59.938 14.345 60.2658 14.219V12.9217C60.0173 12.7 59.9123 12.4818 59.9123 12.1493V10.1345C59.9123 10.0832 59.9158 10.0318 59.9228 9.98051C59.9228 9.97234 59.9788 9.35051 59.5471 8.87334C59.1271 8.41134 58.3175 8.16634 57.2045 8.16634C56.0915 8.16634 55.2818 8.41134 54.8618 8.87334C54.4301 9.35051 54.4861 9.97351 54.4885 9.99917C54.492 10.0365 54.4966 10.0972 54.4966 10.1345V12.1493C54.4966 12.4807 54.3555 12.7968 54.1081 13.0185L54.142 14.2423C54.373 14.4068 54.5363 14.6507 54.6005 14.9283C54.8805 16.1323 55.626 17.0388 55.633 17.0482C55.8068 17.2582 55.906 17.5253 55.906 17.7983V19.0712C55.906 19.966 55.4148 20.7862 54.6238 21.212L51.4808 22.9083C51.3676 22.969 51.2533 23.0518 51.1436 23.1557C50.6735 23.5943 49.935 23.5698 49.4951 23.0997C49.0553 22.6283 49.0798 21.891 49.55 21.45C49.8066 21.2108 50.0843 21.0102 50.3736 20.8538L53.5166 19.1587L53.5575 18.1647C53.2401 17.7085 52.735 16.879 52.4293 15.843C52.035 15.4358 51.811 14.8922 51.811 14.3147V12.9217C51.811 12.4993 51.9346 12.0875 52.1633 11.7352V10.1928C52.1295 9.80434 52.1038 8.48134 53.092 7.35434C53.974 6.34517 55.3588 5.83301 57.2045 5.83301C59.0513 5.83301 60.4361 6.34517 61.3181 7.35551C62.3051 8.48134 62.2795 9.80434 62.2456 10.1928V11.734C62.4743 12.0863 62.5991 12.4982 62.5991 12.9217V14.3147C62.5991 15.0637 62.2258 15.738 61.625 16.1393C61.3578 16.8323 61.009 17.481 60.5855 18.0725C60.5516 18.1203 60.5178 18.1658 60.4851 18.2102V19.1038L63.9105 20.8562C64.2138 21.0067 64.502 21.2003 64.7656 21.4313C65.2521 21.856 65.3011 22.5922 64.8765 23.0775C64.6455 23.3412 64.3235 23.4765 63.998 23.4765Z" fill="#F0AB00"/>
    <path fill-rule="evenodd" clip-rule="evenodd" d="M45.5104 14H24.5104C23.8652 14 23.3438 13.4774 23.3438 12.8334C23.3438 12.1894 23.8652 11.6667 24.5104 11.6667H45.5104C46.1556 11.6667 46.6771 12.1894 46.6771 12.8334C46.6771 13.4774 46.1556 14 45.5104 14Z" fill="#F0AB00"/>
    <path fill-rule="evenodd" clip-rule="evenodd" d="M57.1774 46.6666C56.5322 46.6666 56.0107 46.144 56.0107 45.5V24.5C56.0107 23.856 56.5322 23.3333 57.1774 23.3333C57.8226 23.3333 58.3441 23.856 58.3441 24.5V45.5C58.3441 46.144 57.8226 46.6666 57.1774 46.6666Z" fill="#F0AB00"/>
    <path fill-rule="evenodd" clip-rule="evenodd" d="M45.5104 58.3333H24.5104C23.8652 58.3333 23.3438 57.8107 23.3438 57.1667C23.3438 56.5227 23.8652 56 24.5104 56H45.5104C46.1556 56 46.6771 56.5227 46.6771 57.1667C46.6771 57.8107 46.1556 58.3333 45.5104 58.3333Z" fill="#F0AB00"/>
    <path fill-rule="evenodd" clip-rule="evenodd" d="M12.8444 46.6666C12.1992 46.6666 11.6777 46.144 11.6777 45.5V24.5C11.6777 23.856 12.1992 23.3333 12.8444 23.3333C13.4896 23.3333 14.0111 23.856 14.0111 24.5V45.5C14.0111 46.144 13.4896 46.6666 12.8444 46.6666Z" fill="#F0AB00"/>
    <path fill-rule="evenodd" clip-rule="evenodd" d="M35.0104 31.5C34.3652 31.5 33.8438 30.9774 33.8438 30.3334V12.8334C33.8438 12.1894 34.3652 11.6667 35.0104 11.6667C35.6556 11.6667 36.1771 12.1894 36.1771 12.8334V30.3334C36.1771 30.9774 35.6556 31.5 35.0104 31.5Z" fill="#F0AB00"/>
    <path fill-rule="evenodd" clip-rule="evenodd" d="M35.0104 58.3333C34.3652 58.3333 33.8438 57.8107 33.8438 57.1667V39.6667C33.8438 39.0227 34.3652 38.5 35.0104 38.5C35.6556 38.5 36.1771 39.0227 36.1771 39.6667V57.1667C36.1771 57.8107 35.6556 58.3333 35.0104 58.3333Z" fill="#F0AB00"/>
    <path fill-rule="evenodd" clip-rule="evenodd" d="M30.3444 36.1666H12.8444C12.1992 36.1666 11.6777 35.644 11.6777 35C11.6777 34.356 12.1992 33.8333 12.8444 33.8333H30.3444C30.9896 33.8333 31.5111 34.356 31.5111 35C31.5111 35.644 30.9896 36.1666 30.3444 36.1666Z" fill="#F0AB00"/>
    <path fill-rule="evenodd" clip-rule="evenodd" d="M57.1774 36.1666H39.6774C39.0322 36.1666 38.5107 35.644 38.5107 35C38.5107 34.356 39.0322 33.8333 39.6774 33.8333H57.1774C57.8226 33.8333 58.3441 34.356 58.3441 35C58.3441 35.644 57.8226 36.1666 57.1774 36.1666Z" fill="#F0AB00"/>
    <path fill-rule="evenodd" clip-rule="evenodd" d="M35.0111 31.5C33.0814 31.5 31.5111 33.0704 31.5111 35C31.5111 36.9297 33.0814 38.5 35.0111 38.5C36.9407 38.5 38.5111 36.9297 38.5111 35C38.5111 33.0704 36.9407 31.5 35.0111 31.5ZM35.0111 40.8334C31.7946 40.8334 29.1777 38.2165 29.1777 35C29.1777 31.7835 31.7946 29.1667 35.0111 29.1667C38.2276 29.1667 40.8444 31.7835 40.8444 35C40.8444 38.2165 38.2276 40.8334 35.0111 40.8334Z" fill="#F0AB00"/>
  </g>
  <defs>
    <clipPath id="clip0_2216_5455">
      <rect width="70" height="70" fill="white"/>
    </clipPath>
  </defs>
</svg>